<svg width="18" height="19" viewBox="0 0 18 19" fill="none" xmlns="http://www.w3.org/2000/svg">
<path d="M18 9.67652C18 14.5097 13.9706 18.4277 9 18.4277C4.02942 18.4277 0 14.5097 0 9.67652C0 4.84334 4.02942 0.925293 9 0.925293C13.9706 0.925293 18 4.84334 18 9.67652ZM7.95898 14.3102L14.6364 7.81738C14.8631 7.5969 14.8631 7.23941 14.6364 7.01893L13.8153 6.22049C13.5885 5.99998 13.2209 5.99998 12.9941 6.22049L7.54839 11.5156L5.00592 9.04343C4.77918 8.82296 4.41152 8.82296 4.18475 9.04343L3.3636 9.84187C3.13686 10.0623 3.13686 10.4198 3.3636 10.6403L7.1378 14.3102C7.36458 14.5307 7.7322 14.5307 7.95898 14.3102Z" fill="#55C9BE"/>
</svg>
