<svg width="459" height="516" viewBox="0 0 459 516" fill="none" xmlns="http://www.w3.org/2000/svg">
<path d="M377.246 13.8012L396.089 25.4222C400.451 29.4468 405.761 32.2099 409.985 36.4594C428.945 55.5398 440.55 78.6967 448.007 104.2C459.848 144.714 460.241 185.849 455.311 227.41C450.248 270.146 438.794 311.114 422.039 350.613C416.429 363.836 409.757 376.591 402.874 389.262C396.893 400.269 390.031 410.641 382.877 420.755C355.958 458.843 322.554 489.253 277.926 505.4C249.096 515.835 219.364 518.045 189.128 513.272C163.909 509.297 140.173 501.207 118.027 488.247C102.11 478.928 86.2934 469.546 71.9822 457.849C57.339 445.885 44.6091 432.152 33.8773 416.564C0.0211281 367.408 -6.84393 313.994 9.00386 257.145C15.0685 235.434 24.2931 215.066 35.4804 195.366C67.5047 139.01 111.463 93.8784 164.056 56.7882C192.182 36.9504 222.321 20.7437 255.33 10.4511C284.692 1.29207 314.553 -2.96514 345.232 2.49986C355.664 4.35576 365.697 7.43922 374.848 12.9587C375.579 13.4094 376.278 14.0115 377.246 13.8012Z" fill="#FBC8A6"/>
</svg>
