<svg width="471" height="507" viewBox="0 0 471 507" fill="none" xmlns="http://www.w3.org/2000/svg">
<path d="M421.729 472.535L404.028 485.83C398.688 488.42 394.176 492.355 388.677 494.733C363.989 505.413 338.193 507.756 311.729 505.382C269.689 501.605 231.254 486.944 194.365 467.172C156.433 446.846 122.48 421.218 91.8324 391.192C81.5724 381.139 72.136 370.27 62.8554 359.233C54.7937 349.644 47.6457 339.468 40.8436 329.114C15.222 290.142 -0.883388 247.937 0.387983 200.494C1.20632 169.846 10.0097 141.361 25.4985 114.958C38.4119 92.9346 54.6137 73.7937 74.7675 57.9126C89.2576 46.5003 103.769 35.2041 119.886 26.155C136.372 16.8943 153.806 10.0608 172.237 5.76528C230.363 -7.79415 282.594 5.32768 329.725 40.8478C347.72 54.4245 363.31 70.4519 377.562 88.0627C418.324 138.461 444.279 195.868 459.593 258.375C467.785 291.804 471.862 325.78 469.384 360.268C467.184 390.947 460.239 420.3 443.944 446.861C438.405 455.895 431.87 464.108 423.389 470.61C422.703 471.126 421.887 471.557 421.729 472.535Z" fill="#FBC8A6"/>
</svg>
