<svg width="64" height="63" viewBox="0 0 64 63" fill="none" xmlns="http://www.w3.org/2000/svg">
<path d="M55.5723 11.2982C54.2103 9.93555 52.5932 8.85459 50.8133 8.11709C49.0334 7.37959 47.1256 7 45.199 7C43.2724 7 41.3646 7.37959 39.5847 8.11709C37.8048 8.85459 36.1877 9.93555 34.8257 11.2982L31.999 14.1249L29.1723 11.2982C26.4212 8.54702 22.6898 7.00143 18.799 7.00143C14.9083 7.00143 11.1769 8.54702 8.42568 11.2982C5.6745 14.0494 4.12891 17.7808 4.12891 21.6715C4.12891 25.5623 5.6745 29.2937 8.42568 32.0449L11.2523 34.8715L31.999 55.6182L52.7457 34.8715L55.5723 32.0449C56.935 30.6829 58.0159 29.0657 58.7534 27.2858C59.491 25.5059 59.8705 23.5982 59.8705 21.6715C59.8705 19.7449 59.491 17.8371 58.7534 16.0573C58.0159 14.2774 56.935 12.6602 55.5723 11.2982Z" fill="#5553CC" stroke="#5553CC" stroke-width="5.33333" stroke-linecap="round" stroke-linejoin="round"/>
</svg>
