<svg width="55" height="56" viewBox="0 0 55 56" fill="none" xmlns="http://www.w3.org/2000/svg">
<path d="M6.79883 37.0649V18.9354C6.79883 15.9303 7.99262 13.0482 10.1176 10.9232C12.2425 8.79828 15.1246 7.60449 18.1298 7.60449H36.2593C39.2644 7.60449 42.1465 8.79828 44.2714 10.9232C46.3964 13.0482 47.5902 15.9303 47.5902 18.9354V37.0649C47.5902 40.0701 46.3964 42.9521 44.2714 45.0771C42.1465 47.2021 39.2644 48.3959 36.2593 48.3959H18.1298C15.1246 48.3959 12.2425 47.2021 10.1176 45.0771C7.99262 42.9521 6.79883 40.0701 6.79883 37.0649Z" fill="#5553CC" stroke="#5553CC" stroke-width="3.39928"/>
<path d="M27.1956 37.0648C29.5997 37.0648 31.9054 36.1098 33.6054 34.4098C35.3053 32.7098 36.2604 30.4042 36.2604 28.0001C36.2604 25.5959 35.3053 23.2903 33.6054 21.5903C31.9054 19.8903 29.5997 18.9353 27.1956 18.9353C24.7915 18.9353 22.4858 19.8903 20.7859 21.5903C19.0859 23.2903 18.1309 25.5959 18.1309 28.0001C18.1309 30.4042 19.0859 32.7098 20.7859 34.4098C22.4858 36.1098 24.7915 37.0648 27.1956 37.0648Z" fill="#5553CC" stroke="#F8F7F3" stroke-width="3.39928" stroke-linecap="round" stroke-linejoin="round"/>
<path d="M39.6582 15.5589L39.6809 15.5339" stroke="#F8F7F3" stroke-width="3.39928" stroke-linecap="round" stroke-linejoin="round"/>
</svg>
