<?xml version="1.0" encoding="utf-8"?>
<!-- Generator: Adobe Illustrator 28.0.0, SVG Export Plug-In . SVG Version: 6.00 Build 0)  -->
<svg version="1.1" id="Layer_1" xmlns="http://www.w3.org/2000/svg" xmlns:xlink="http://www.w3.org/1999/xlink" x="0px" y="0px"
	 viewBox="0 0 213.64 234.09" style="enable-background:new 0 0 213.64 234.09;" xml:space="preserve">
<style type="text/css">
	.st0{fill:#6DBFB7;}
	.st1{fill:#BCB9DD;}
	.st2{fill:#B8DFDB;}
	.st3{fill:#F8F7F3;}
	.st4{fill:#67696F;}
	.st5{fill:#090A11;}
	.st6{fill:#35363E;}
	.st7{fill:#414042;}
	.st8{fill:#6D6E71;}
	.st9{fill:#58595B;}
	.st10{fill:#BCBEC0;}
	.st11{fill:#939598;}
	.st12{fill:#5EC4BB;}
	.st13{fill:#BCBADB;}
	.st14{fill:#BBBBDB;}
	.st15{fill:#BAB9D7;}
	.st16{fill:#BBB9D7;}
	.st17{fill:#B7B3B8;}
	.st18{fill:#B4B1BC;}
	.st19{fill:#A39FAC;}
	.st20{fill:#BFE5E3;}
	.st21{fill:#EEF3F4;}
	.st22{fill:#E8EFEF;}
	.st23{fill:#0A0A0A;}
	.st24{fill:#B8DFDB;stroke:#B8DFDB;stroke-width:0.2926;stroke-miterlimit:10;}
	.st25{fill:#5DC4BB;}
	.st26{fill:#BDBBDE;}
	.st27{fill:#0B0E14;}
	.st28{fill:#050D0B;}
	.st29{fill:#F1F6F6;}
	.st30{fill:#1E433F;}
	.st31{fill:#F47622;}
	.st32{fill:#F2F7F7;}
	.st33{fill:#010101;}
	.st34{fill:#E5E5DF;}
	.st35{fill:#EDF1EE;}
	.st36{fill:#F0F2EF;}
	.st37{fill:#F6AB77;}
	.st38{fill:#89A2A0;}
	.st39{fill:#071110;}
	.st40{fill:#EFF5F5;}
	.st41{fill:#152F2D;}
	.st42{fill:#030302;}
	.st43{fill:#676FB4;}
	.st44{fill:#BCB9DC;}
	.st45{fill:#F7934E;}
	.st46{fill:#FCCAA8;}
	.st47{fill:#6AB5AD;}
	.st48{fill:#99A5A4;}
	.st49{fill:#398B84;}
	.st50{fill:#030202;}
	.st51{fill:#040908;}
	.st52{fill:#F1F6F7;}
	.st53{fill:#ACD0CD;}
	.st54{fill:#EFF4F5;}
	.st55{fill:#91A4A3;}
	.st56{fill:#ABA7AE;}
	.st57{fill:#AEA9B1;}
	.st58{fill:#88A2A0;}
	.st59{fill:#A6A1AD;}
	.st60{fill:#C0E5E3;}
	.st61{fill:#595BA8;}
	.st62{fill:#5A5CA8;}
	.st63{fill:#BDBBDD;}
	.st64{fill:#BCBADD;}
	.st65{fill:#5C5EA8;}
	.st66{fill:#B7B5D9;}
	.st67{fill:#ADAEAE;}
	.st68{fill:#BAB7DC;}
	.st69{fill:#B6DBD7;}
	.st70{fill:#BBB9DC;}
	.st71{fill:#A3ABAB;}
	.st72{fill:#AAC2C0;}
	.st73{fill:#A4ACAC;}
	.st74{fill:#A9ACAC;}
	.st75{fill:#A8BEBD;}
	.st76{fill:#6C6AA8;}
	.st77{fill:#CBD8D7;}
	.st78{fill:#AECAC8;}
	.st79{fill:#B4C8C6;}
	.st80{fill:#7CA9A4;}
	.st81{fill:#C3C0C4;}
	.st82{fill:#89A19F;}
	.st83{fill:#B4D7D4;}
	.st84{fill:#AAA7B7;}
	.st85{fill:#A5ABAA;}
	.st86{fill:#7AA7A2;}
	.st87{fill:#ADB4B4;}
	.st88{fill:#D8D7D7;}
	.st89{fill:#A8B0B0;}
	.st90{fill:#C2C3C3;}
	.st91{fill:#ADBBBA;}
	.st92{fill:#0A1816;}
	.st93{fill:#061311;}
	.st94{fill:#051210;}
	.st95{fill:#BFE4E2;}
	.st96{fill:#1D3735;}
	.st97{fill:#BBB9DD;}
	.st98{fill:#F0F5F5;}
	.st99{fill:#2D6B65;}
	.st100{fill:none;stroke:#C0E5E3;stroke-width:1.698;stroke-miterlimit:10;}
	.st101{fill:#5EC3BC;}
	.st102{fill:#595DA9;}
	.st103{fill:#92CEC9;}
	.st104{fill:#050D0C;}
	.st105{fill:#132624;}
	.st106{fill:#E0F2F3;}
	.st107{fill:#B4BDBC;}
	.st108{fill:#ADA9B0;}
	.st109{fill:#7DA49F;}
	.st110{fill:#BFC4C3;}
	.st111{fill:#A5A1AF;}
	.st112{fill:#EBEAEA;}
	.st113{fill:#85A5A1;}
	.st114{fill:#C8DFDC;}
	.st115{fill:#AAA6B2;}
	.st116{fill:#ABA7B5;}
	.st117{fill:#DFF2F2;}
	.st118{fill:#050C0B;}
	.st119{fill:#DBF0F0;}
	.st120{fill:#1F4340;}
	.st121{fill:#60C5BC;}
	.st122{fill:none;stroke:#FFFFFF;stroke-width:2.1779;stroke-miterlimit:10;}
	.st123{fill:none;stroke:#FFFFFF;stroke-width:1.315;stroke-miterlimit:10;}
	.st124{fill:#D0DDDC;}
</style>
<path class="st25" d="M34.89,193.99c-2.37-11.16-6.01-22.05-7.42-33.42c-0.15-1.23-0.08-2.49-0.11-3.74
	c-0.42-1.48-0.07-2.99-0.2-4.47c-0.04-0.41,0.25-1.14-0.68-0.92c-1.43,2.72-2.66,2.92-4.81,0.85c-2.09-2.02-2.48-4.73-3.08-7.35
	c-0.19-0.84-0.22-1.72-0.32-2.59c1.34-0.59,2.76-0.21,4.14-0.3c0.73-0.05,1.48,0.02,2.19-0.22c1.46-0.49,1.78-1.64,1.68-2.99
	c-0.1-1.31-1.03-1.59-2.14-1.79c-1.98-0.36-3.91,0.86-5.88,0.1c-0.01-8.88,2-17.31,5.58-25.41c2.13-4.83,4.85-9.34,8.53-13.07
	c5.95-6.03,8.84-13.48,11.45-21.31c3.36-10.1,5.99-20.48,10.73-30.09c1.17-2.37,2.55-4.64,3.83-6.96c1.29-3.57,4.02-5.97,6.76-8.36
	c0.34-0.29,0.81-0.31,1.25-0.19c3.94,1.94,8.23,2.2,12.47,2.17c5.78-0.05,11.57-0.43,17.29-1.45c3.12-0.56,6.13-1.47,9.02-2.78
	c0.6-0.27,1.18-0.62,1.88-0.48c1.36,0.55,2.04,1.87,3.1,2.76c0.59,0.19,1.04,0.57,1.3,1.12c1.02,2.2,2.41,4.2,3.47,6.38
	c4.83,9.62,8.03,19.87,11.54,30c2.26,6.5,3.94,13.28,8.26,18.88c2.44,3.17,4.25,3.63,7.77,1.78c2.27-1.2,4.45-2.56,6.26-4.46
	c3.14-3.3,6.36-6.53,9.54-9.78c0.69,0.01,0.99,0.57,1.35,1.01c3.1,3.79,6.15,7.62,9.4,11.29c0.34,0.39,0.65,0.8,0.49,1.38
	c-3.84,3.07-7.97,5.79-11.55,9.19c-3.67,3.49-7.76,6.59-10.3,11.13c-1.33,2.37-1.98,4.76-1.39,7.57
	c2.69,12.91,2.78,26.02,2.22,39.11c-0.39,9.08-0.58,18.19-1.72,27.22c-0.52,4.15-0.88,8.32-1.97,12.38
	c-0.79,0.78-1.83,0.9-2.85,1.03c-13.75,1.75-27.42,3.95-40.98,6.82c-1.57,0.33-3.05,1.18-4.73,0.89c-1.17-1.12-2.39-2.18-3.81-2.95
	c-2.72-1.48-4.26-1.11-7.38,1.7c-1.31,0.34-2.61,0.19-3.93,0.02c-14.82-1.91-29.36-5.25-43.89-8.61
	C36.39,194.85,35.54,194.65,34.89,193.99z"/>
<path class="st61" d="M96.27,204.9c4.19-1.88,8.74-2.41,13.18-3.25c11.44-2.17,22.96-3.9,34.51-5.45c0.29-0.04,0.59-0.02,0.88-0.04
	c-0.68,2.48-1.35,4.96-2.02,7.44c-0.66,0.86-1.69,0.82-2.6,1.01c-10.07,2.1-20.17,4.11-30.44,4.9c-2.95,0.23-5.96,1.09-8.96,0.17
	C99.3,208.09,97.78,206.49,96.27,204.9z"/>
<path class="st25" d="M162.41,71.21c2.03-2.79,4.11-5.55,6.73-7.81c4.01-3.46,9.44-2.86,12.46,1.41c1.52,2.15,3.04,4.31,3.34,7.08
	c0.48,4.39-2.16,7.14-5.04,9.72c-1.41,1.26-3.05,2.28-4.58,3.41c-2.34-1.58-3.65-4.14-5.72-5.99c-2.07-1.84-3.96-3.89-5.9-5.87
	C163.13,72.6,162.42,72.13,162.41,71.21z"/>
<path class="st61" d="M34.89,193.99c7.44,1.63,14.9,3.13,22.3,4.91c8.93,2.15,18.04,3.05,27.08,4.46c0.28,0.04,0.54,0.19,0.81,0.29
	c-1.53,1.59-2.5,3.57-3.76,5.35c-2.03,0.61-4.11,0.34-6.09-0.03c-11.74-2.17-23.57-3.84-35.16-6.8c-1.17-0.3-2.26-0.64-3.16-1.46
	C35.97,198.55,35.14,196.35,34.89,193.99z"/>
<path class="st26" d="M79.64,211.22c-2.16,5.03-5.11,5.97-9.97,3.13c-0.57-0.34-0.89-0.4-1.22,0.22c-0.96,1.83-2.75,2.31-4.56,2.71
	c-5.37,1.18-11.31-2.08-12.84-7.02c-5.56,4.53-10.6,1.44-12.51-5.23c-0.2-0.7-0.36-1.42-0.54-2.13c0.88-0.5,1.75-0.11,2.56,0.16
	c9.27,3.04,18.9,4.39,28.47,6.02c2.88,0.49,5.88,0.19,8.74,1.02C78.48,210.3,79.49,210.08,79.64,211.22z"/>
<path class="st26" d="M142.42,205.42c-0.48,2.53-1.53,4.7-3.77,6.18c-1.83,1.21-3.63,1.5-5.46,0.09c-0.94-0.72-1.31-0.77-1.98,0.54
	c-2.8,5.56-11.39,7.45-16.4,3.76c-0.29-0.22-0.65-0.43-0.81-0.73c-0.93-1.79-1.77-2.23-3.69-0.77c-1.29,0.98-3.42,0.73-4.97-0.41
	c-1.11-0.82-2.12-1.8-3.17-2.7c0.49-0.89,1.39-1.03,2.26-1.13c7.92-0.91,15.87-1.67,23.71-3.17c3.96-0.76,7.92-1.52,11.94-1.86
	C140.87,205.15,141.69,204.86,142.42,205.42z"/>
<path class="st61" d="M107.07,29.21c-4.19,2.87-9.06,3.73-13.91,4.39c-5.22,0.7-10.51,1.21-15.78,0.92
	c-3.98-0.22-8.13-0.06-11.6-2.63c-0.17-0.3-0.14-0.58,0.08-0.84c1.33-1.23,2.67-2.46,4-3.69c8.76,1.93,17.38,0.15,26.03-0.98
	c1.9-0.25,3.63-1.23,5.57-1.29C103.43,26.31,105.43,27.51,107.07,29.21z"/>
<path class="st25" d="M101.45,25.08c-3.07,2.07-6.69,2.13-10.14,2.61c-6.26,0.86-12.54,1.55-18.89,0.79
	c-1.05-0.13-1.76-0.65-2.57-1.13c7.64-7.57,20.34-9.11,29.57-3.58C100.11,24.19,100.78,24.64,101.45,25.08z"/>
<path class="st61" d="M162.41,71.21c4.5,4.42,9.1,8.74,12.9,13.81c-1.84,1.61-3.7,3.2-5.76,4.54c-3.79-4.52-7.73-8.92-11.24-13.67
	C159.56,74.23,160.73,72.5,162.41,71.21z"/>
<path class="st12" d="M79.64,211.22c-2-0.73-4.11-1.03-6.19-1.22c-12.08-1.07-23.89-3.42-35.45-7.11c-0.37-0.73-0.74-1.46-1.11-2.18
	c9.93,2.57,19.99,4.45,30.09,6.16c4.77,0.81,9.52,1.6,14.33,2.12C80.97,209.9,80.29,210.55,79.64,211.22z"/>
<path class="st26" d="M65.85,31.04c-0.03,0.28-0.05,0.56-0.08,0.84c-2.85,2.47-5.18,5.39-7.38,8.42c-1.35-1.46-2.44-3.1-3.36-4.85
	c-0.82-1.56-1.82-3.09-0.24-4.82c1.64-1.8,3.58-2.26,5.95-1.47C62.47,29.74,63.96,30.94,65.85,31.04z"/>
<path class="st63" d="M114.94,39.47c-2.39-1.99-2.99-5.12-4.77-7.5c0.99-1.5,2.42-2.53,3.82-3.59c1.13-0.85,2.42-1.31,3.68-0.53
	c1.33,0.82,2.01,2.16,1.73,3.78c-0.36,2.05-1.01,3.96-2.62,5.45C116.05,37.76,115.1,38.33,114.94,39.47z"/>
<path class="st101" d="M142.42,205.42c-10.21,1.27-20.25,3.65-30.52,4.59c-3.25,0.3-6.56,0.43-9.73,1.37
	c-0.54-0.49-1.13-0.95-1.36-1.7c7.35-0.88,14.79-1.08,22.09-2.43c5.77-1.07,11.53-2.2,17.3-3.29c0.86-0.16,1.74-0.24,2.61-0.36
	C142.91,204.26,142.8,204.87,142.42,205.42z"/>
<path class="st102" d="M18.28,137.13c2.01-0.29,3.99-0.88,6.06-0.66c1.25,0.13,2.53,0.15,2.62,1.94c0.12,2.46-0.55,3.85-2.36,4.05
	c-2.1,0.22-4.22,0.44-6.32-0.12C18.28,140.61,18.28,138.87,18.28,137.13z"/>
<path class="st103" d="M26.48,151.43c0.05-0.29,0.01-0.77,0.15-0.82c0.65-0.25,0.71,0.34,0.72,0.72c0.03,1.83,0.01,3.66,0.01,5.49
	c-0.75-0.97-0.28-2.1-0.42-3.15C26.84,152.91,27.26,152.05,26.48,151.43z"/>
<path class="st25" d="M74.75,113.37c4.27,0.26,8.7,1.98,12.75,4.64c1.25,0.82,2.03,0.78,3.25-0.02c3.66-2.42,7.66-4.19,12.07-4.53
	c7.13-0.54,12.47,3.14,16.84,8.16c3.98,4.57,6.27,10.13,7.18,16.15c0.51,3.43-0.53,6.72-1.57,9.94c-1.89,5.84-5.27,10.83-9.05,15.57
	c-7.2,9.03-16.03,16.15-25.89,22.09c-0.87,0.53-1.4,0.6-2.34,0.06c-7.6-4.34-14.47-9.68-20.53-15.92
	c-6.47-6.68-11.96-14.06-15.06-23.11c-4.29-12.53,5.75-30.07,18.63-32.73C72.07,113.46,73.08,113.44,74.75,113.37z"/>
<path class="st32" d="M71.1,54.95c-0.46-7.68,7.11-16.89,16.57-16.48c9.14,0.4,16.32,7.33,16.2,16.59
	c-0.1,8.37-6.34,16.53-16.57,16.62C78.43,71.76,71.08,63.96,71.1,54.95z"/>
<path class="st104" d="M98.09,89.18c-7.77,3.28-15.85,4.26-24.2,3.31c0.27-0.97,1.06-0.49,1.61-0.53c2.1-0.15,4.22,0.19,6.32-0.19
	c7.69-0.8,14.78-3.42,21.55-7.05c1.76-0.94,3.26-2.23,4.8-3.48c0.65-0.53,1.52-1.5,2.22-0.68c0.66,0.78-0.38,1.61-1,2.15
	c-1.43,1.25-2.97,2.38-4.46,3.55C102.98,88.02,100.75,89.1,98.09,89.18z"/>
<path class="st29" d="M98.09,89.18c2.28-0.97,4.56-1.94,6.84-2.92c2.43,1.59,2.37,4.37-0.12,5.68
	C101.07,93.91,99.08,93.09,98.09,89.18z"/>
<path class="st105" d="M81.82,91.78c-1.74,0.77-3.59,0.22-5.37,0.41c-0.85,0.09-1.76-0.26-2.55,0.31c-1.08,0.02-2.11-0.2-3.11-0.7
	C74.47,92.05,78.14,91.72,81.82,91.78z"/>
<path class="st33" d="M76.83,54.57c0.01-5.96,4.84-10.57,10.99-10.48c5.79,0.08,10.34,4.8,10.33,10.73
	c-0.01,6.17-4.63,10.92-10.6,10.89C81.61,65.67,76.82,60.69,76.83,54.57z"/>
<g>
	<polygon class="st2" points="89.26,113.54 101.82,138.23 130.02,142.26 109.55,161.41 114.3,188.53 89.1,175.66 63.83,188.39 
		68.72,161.3 48.35,142.05 76.58,138.17 	"/>
	<g>
		<path class="st2" d="M87.97,114.29c2.24,4.41,4.48,8.82,6.72,13.23c1.45,2.85,2.9,5.7,4.35,8.55c0.51,1.01,1,2.79,2.02,3.45
			c1.03,0.67,3.06,0.54,4.22,0.7c3.25,0.46,6.5,0.93,9.74,1.39c4.86,0.69,9.73,1.39,14.59,2.08c-0.22-0.83-0.44-1.67-0.66-2.5
			c-3.53,3.3-7.06,6.6-10.59,9.91c-2.36,2.2-4.71,4.41-7.07,6.61c-0.85,0.79-2.69,1.94-3.12,3.11c-0.39,1.07,0.25,2.83,0.43,3.86
			c0.54,3.07,1.08,6.15,1.61,9.22c0.88,5,1.75,10.01,2.63,15.01c0.73-0.56,1.47-1.13,2.2-1.69c-4.49-2.29-8.99-4.59-13.48-6.88
			c-2.96-1.51-5.92-3.02-8.87-4.53c-0.95-0.48-2.46-1.67-3.61-1.66c-1.16,0.01-2.64,1.15-3.61,1.64c-2.82,1.42-5.64,2.84-8.46,4.26
			c-4.65,2.34-9.3,4.69-13.96,7.03c0.73,0.56,1.47,1.13,2.2,1.69c0.87-4.84,1.75-9.68,2.62-14.51c0.56-3.13,1.13-6.25,1.69-9.38
			c0.2-1.11,0.92-3.03,0.5-4.17c-0.39-1.09-2.08-2.16-2.86-2.89c-2.31-2.18-4.62-4.36-6.93-6.55c-3.63-3.43-7.26-6.86-10.89-10.3
			c-0.22,0.83-0.44,1.67-0.66,2.5c4.87-0.67,9.74-1.34,14.61-2.01c3.25-0.45,6.5-0.89,9.75-1.34c1.13-0.16,3.23,0,4.23-0.68
			c1.01-0.7,1.5-2.41,2.03-3.44c1.46-2.84,2.93-5.69,4.39-8.53c2.26-4.4,4.53-8.8,6.79-13.19c0.88-1.71-1.7-3.22-2.58-1.51
			c-2.11,4.1-4.23,8.21-6.34,12.31c-1.45,2.82-2.9,5.64-4.36,8.46c-0.42,0.81-1.13,1.8-1.38,2.69c-0.35,1.22-1.21,1,0.25,0.48
			c-4.17,1.49-9.71,1.33-14.07,1.93c-4.7,0.65-9.41,1.29-14.11,1.94c-1.14,0.16-1.4,1.8-0.66,2.5c3.28,3.1,6.55,6.19,9.83,9.29
			c3.35,3.16,6.68,7.34,10.51,9.93c-1.04-0.7,0.14-1.96-0.54-0.36c-0.34,0.8-0.35,1.97-0.51,2.82c-0.55,3.06-1.11,6.12-1.66,9.19
			c-0.84,4.68-1.69,9.35-2.53,14.03c-0.23,1.3,0.98,2.3,2.2,1.69c4.06-2.05,8.13-4.1,12.19-6.14c2.99-1.5,5.97-3.01,8.96-4.51
			c0.9-0.45,1.93-0.84,2.78-1.4c0.52-0.34,2.03-0.65,0.58-0.65c-1.47-0.01-0.07,0.21,0.38,0.56c0.82,0.64,2.04,1.04,2.97,1.51
			c2.83,1.45,5.67,2.89,8.5,4.34c4.2,2.14,8.4,4.29,12.6,6.43c1.22,0.62,2.42-0.4,2.2-1.69c-0.79-4.52-1.58-9.04-2.37-13.56
			c-0.54-3.11-1.09-6.21-1.63-9.32c-0.15-0.88-0.18-2.13-0.52-2.96c-0.74-1.81,0.79-0.75-0.58,0.14c3.71-2.45,6.96-6.51,10.2-9.54
			c3.41-3.19,6.82-6.38,10.23-9.57c0.75-0.7,0.47-2.34-0.66-2.5c-4.54-0.65-9.07-1.3-13.61-1.94c-4.4-0.63-10.4-0.41-14.55-2.08
			c1.2,0.48,0.65,0.84,0.36-0.29c-0.22-0.86-0.91-1.79-1.3-2.57c-1.42-2.79-2.84-5.58-4.26-8.37c-2.17-4.26-4.33-8.53-6.5-12.79
			C89.68,111.06,87.1,112.58,87.97,114.29z"/>
	</g>
</g>
</svg>
