<?xml version="1.0" encoding="utf-8"?>
<!-- Generator: Adobe Illustrator 28.0.0, SVG Export Plug-In . SVG Version: 6.00 Build 0)  -->
<svg version="1.1" id="Layer_1" xmlns="http://www.w3.org/2000/svg" xmlns:xlink="http://www.w3.org/1999/xlink" x="0px" y="0px"
	 viewBox="0 0 518 300" style="enable-background:new 0 0 518 300;" xml:space="preserve">
<style type="text/css">
	.st0{display:none;}
	.st1{display:inline;fill:#35363E;}
	.st2{display:inline;fill:none;stroke:#F8AD79;stroke-miterlimit:10;}
	.st3{display:inline;}
	.st4{fill:#F7924D;}
	.st5{fill:#F8AD79;stroke:#F8AD79;stroke-miterlimit:10;}
	.st6{fill:#F8AD79;stroke:#F8AD79;stroke-width:0.4241;stroke-miterlimit:10;}
	.st7{fill:#F7924D;stroke:#F8AD79;stroke-miterlimit:10;}
	.st8{fill:#F7924D;stroke:#F7924D;stroke-width:1.9097;stroke-miterlimit:10;}
	.st9{fill:#F7924D;stroke:#F8AD79;stroke-width:1.4945;stroke-miterlimit:10;}
	.st10{fill:#F7924D;stroke:#F7924D;stroke-width:1.4945;stroke-miterlimit:10;}
	.st11{fill:#F8AD79;stroke:#F8AD79;stroke-width:0.2834;stroke-miterlimit:10;}
	.st12{fill:#F7924D;stroke:#F8AD79;stroke-width:0.2834;stroke-miterlimit:10;}
	.st13{fill:#F7924D;stroke:#F7924D;stroke-width:0.5411;stroke-miterlimit:10;}
	.st14{fill:#F7924D;stroke:#F8AD79;stroke-width:0.4235;stroke-miterlimit:10;}
	.st15{fill:#F7924D;stroke:#F7924D;stroke-width:0.4235;stroke-miterlimit:10;}
	.st16{display:inline;fill:#F8F7F3;}
	.st17{fill:#DBEFED;stroke:#DBEFED;stroke-width:1.0346;stroke-miterlimit:10;}
	.st18{fill:#6DBFB7;}
	.st19{fill:#BCB9DD;}
	.st20{fill:#B8DFDB;}
	.st21{fill:#F8F7F3;}
	.st22{fill:#67696F;}
	.st23{fill:#090A11;}
	.st24{fill:#35363E;}
	.st25{fill:#414042;}
	.st26{fill:#6D6E71;}
	.st27{fill:#58595B;}
	.st28{fill:#BCBEC0;}
	.st29{fill:#939598;}
	.st30{fill:#7473B6;}
	.st31{fill:#7473B6;stroke:#7473B6;stroke-width:0.7162;stroke-miterlimit:10;}
	.st32{fill:#DBEFED;stroke:#DBEFED;stroke-width:0.9264;stroke-miterlimit:10;}
	.st33{fill:#DBEFED;stroke:#DBEFED;stroke-width:0.9264;stroke-miterlimit:9.9998;}
	.st34{fill:#DBEFED;stroke:#DBEFED;stroke-width:0.9264;stroke-miterlimit:10.0001;}
	.st35{fill:#DBEFED;stroke:#DBEFED;stroke-width:0.9264;stroke-miterlimit:9.9996;}
	.st36{fill:#DBEFED;stroke:#DBEFED;stroke-width:0.9264;stroke-miterlimit:10.0002;}
</style>
<g id="Layer_1_00000172431019256739122000000010589513277456849031_">
</g>
<g id="Layer_6" class="st0">
	<rect x="-169.8" y="-136.3" class="st1" width="843.5" height="597.9"/>
</g>
<g id="Layer_4" class="st0">
	<path class="st2" d="M-191.8,357.6"/>
	<g class="st3">
		<path class="st4" d="M650.5-25.2c0,46.2-37.5,83.7-83.7,83.7S483,21.1,483-25.2c0-32.5,20.5-55.1,23.8-58.4
			c3-3.1,26.2-26.1,60-25.3C606-108,650.5-75,650.5-25.2z"/>
		<path class="st5" d="M506.7-83.6c0,0-54.9-20-39.1,20.3S589,41,627.3,41.5c38.3,0.5,37.5-21.4,19.4-41.8L642,11.4
			c0,0,8.8,13.8-7.8,12.8s-110-31.1-143.1-91.3c0,0-9.7-17,9.6-9.4L506.7-83.6z"/>
	</g>
	<g class="st3">
		<path class="st4" d="M-19.4,35.1c0,19.6,15.9,35.5,35.5,35.5s35.5-15.9,35.5-35.5c0-13.8-8.7-23.4-10.1-24.8
			C40.3,9,30.5-0.8,16.1-0.4C-0.6,0-19.4,14-19.4,35.1z"/>
		<path class="st6" d="M41.6,10.3c0,0,23.3-8.5,16.6,8.6S6.7,63.2-9.6,63.4s-15.9-9.1-8.2-17.7l2,4.9c0,0-3.7,5.9,3.3,5.4
			s46.6-13.2,60.7-38.7c0,0,4.1-7.2-4.1-4L41.6,10.3z"/>
	</g>
	<g class="st3">
		<path class="st5" d="M-26.7,407.4c0,49.5-40.1,89.6-89.6,89.6c-49.5,0-89.6-40.1-89.6-89.6c0-26.1,11.2-49.6,29-66
			c12.3-11.3,27.8-19.2,44.9-22.2c5.1-0.9,10.3-1.4,15.7-1.4c19,0,36.6,5.9,51,15.9c10.1,7,18.8,16.1,25.3,26.6
			C-31.5,374.1-26.7,390.2-26.7,407.4z"/>
		<ellipse class="st7" cx="-121.6" cy="356.3" rx="13.5" ry="12.3"/>
		<path class="st8" d="M-130,328.2c0,12.9-11.5,23.4-25.7,23.4c-8.8,0-16.6-4-21.2-10.2c12.3-11.3,27.8-19.2,44.9-22.2
			C-130.7,321.9-130,325-130,328.2z"/>
		<ellipse class="st7" cx="-85.9" cy="458.8" rx="13.4" ry="12.3"/>
		<ellipse class="st9" cx="-89.6" cy="407.6" rx="20.6" ry="17.9"/>
		<ellipse class="st9" cx="-155.7" cy="447.4" rx="20.6" ry="17.9"/>
		<path class="st10" d="M-40,360.4c-2.6,1-5.4,1.6-8.5,1.6c-11.4,0-20.6-8-20.6-17.9c0-3.9,1.4-7.4,3.8-10.3
			C-55.1,340.8-46.5,349.9-40,360.4z"/>
	</g>
	<g class="st3">
		<path class="st11" d="M587.2,362c0,14-11.4,25.4-25.4,25.4S536.4,376,536.4,362c0-7.4,3.2-14.1,8.2-18.7c3.5-3.2,7.9-5.4,12.7-6.3
			c1.4-0.3,2.9-0.4,4.5-0.4c5.4,0,10.4,1.7,14.5,4.5c2.9,2,5.3,4.6,7.2,7.5C585.8,352.5,587.2,357.1,587.2,362z"/>
		<ellipse class="st12" cx="560.2" cy="347.5" rx="3.8" ry="3.5"/>
		<path class="st13" d="M557.9,339.5c0,3.7-3.3,6.6-7.3,6.6c-2.5,0-4.7-1.1-6-2.9c3.5-3.2,7.9-5.4,12.7-6.3
			C557.7,337.7,557.9,338.6,557.9,339.5z"/>
		<ellipse class="st12" cx="570.4" cy="376.5" rx="3.8" ry="3.5"/>
		<ellipse class="st14" cx="569.3" cy="362" rx="5.8" ry="5.1"/>
		<ellipse class="st14" cx="550.6" cy="373.3" rx="5.8" ry="5.1"/>
		<path class="st15" d="M583.4,348.6c-0.7,0.3-1.5,0.4-2.4,0.4c-3.2,0-5.8-2.3-5.8-5.1c0-1.1,0.4-2.1,1.1-2.9
			C579.1,343.1,581.5,345.6,583.4,348.6z"/>
	</g>
</g>
<g id="Layer_5" class="st0">
	<polygon class="st16" points="-130.7,-111.8 -129.2,-106.5 -123.9,-104.8 -128.5,-101.6 -128.5,-96.1 -132.9,-99.5 -138.2,-97.8 
		-136.3,-103 -139.5,-107.5 -134,-107.3 	"/>
	<polygon class="st16" points="35.4,265.5 37,270.8 42.2,272.6 37.7,275.7 37.6,281.2 33.3,277.9 28,279.5 29.9,274.3 26.6,269.8 
		32.2,270 	"/>
	<polygon class="st16" points="-36.7,95 -35.1,100.3 -29.9,102 -34.4,105.1 -34.5,110.7 -38.9,107.3 -44.1,109 -42.3,103.8 
		-45.5,99.3 -40,99.4 	"/>
	<polygon class="st16" points="400.9,-83.6 402.5,-78.3 407.7,-76.6 403.2,-73.4 403.1,-67.9 398.7,-71.3 393.5,-69.6 395.3,-74.8 
		392.1,-79.3 397.6,-79.1 	"/>
	<polygon class="st16" points="-79.6,-30.5 -78.6,-26.9 -75,-25.8 -78.1,-23.7 -78.1,-19.9 -81.1,-22.2 -84.6,-21.1 -83.3,-24.6 
		-85.5,-27.6 -81.8,-27.5 	"/>
	<polygon class="st16" points="-130.7,139.2 -129.2,144.5 -123.9,146.3 -128.5,149.4 -128.5,154.9 -132.9,151.5 -138.2,153.2 
		-136.3,148 -139.5,143.5 -134,143.7 	"/>
	<polygon class="st16" points="499,451 500.6,456.3 505.8,458 501.3,461.1 501.2,466.7 496.8,463.3 491.6,465 493.4,459.8 
		490.2,455.2 495.8,455.4 	"/>
	<polygon class="st16" points="299.6,327.5 301.1,332.8 306.4,334.6 301.8,337.7 301.8,343.2 297.4,339.8 292.1,341.5 294,336.3 
		290.8,331.8 296.3,332 	"/>
	<polygon class="st16" points="632.3,399.7 633.8,405 639.1,406.8 634.5,409.9 634.5,415.4 630.1,412 624.8,413.7 626.7,408.5 
		623.4,404 629,404.2 	"/>
	<polygon class="st16" points="616.6,223.4 618.2,228.8 623.4,230.5 618.9,233.6 618.8,239.1 614.5,235.8 609.2,237.4 611,232.2 
		607.8,227.7 613.3,227.9 	"/>
	<polygon class="st16" points="473.6,85 475.1,90.3 480.4,92 475.8,95.1 475.8,100.7 471.4,97.3 466.1,99 468,93.8 464.8,89.3 
		470.3,89.4 	"/>
	<polygon class="st16" points="139.1,-8.3 140.7,-3 146,-1.2 141.4,1.9 141.3,7.4 137,4 131.7,5.7 133.5,0.5 130.3,-4 135.9,-3.8 	
		"/>
	<polygon class="st16" points="598.8,121.5 602.3,125.9 607.8,125.5 604.7,130.1 606.8,135.3 601.5,133.8 597.2,137.3 597,131.8 
		592.3,128.8 597.5,126.9 	"/>
	<polygon class="st16" points="92.4,362 94.5,364.8 98.1,364.6 96.1,367.5 97.4,370.8 94,369.8 91.3,372.1 91.1,368.6 88.2,366.7 
		91.5,365.5 	"/>
	<polygon class="st16" points="186.3,413.1 188.5,415.8 192,415.6 190,418.5 191.3,421.8 187.9,420.9 185.2,423.1 185.1,419.6 
		182.1,417.7 185.4,416.5 	"/>
	<polygon class="st16" points="296.9,-18.6 296.1,-15.1 298.6,-12.4 295,-12.1 293.2,-8.9 291.8,-12.2 288.2,-12.9 290.9,-15.3 
		290.4,-18.9 293.6,-17.1 	"/>
	<polygon class="st16" points="411.2,395 410.4,398.5 412.9,401.2 409.3,401.5 407.6,404.7 406.1,401.4 402.5,400.7 405.2,398.3 
		404.8,394.7 407.9,396.5 	"/>
	<polygon class="st16" points="481.4,282.5 480.6,286 483.1,288.7 479.5,289 477.8,292.2 476.3,288.9 472.7,288.2 475.4,285.8 
		475,282.2 478.1,284 	"/>
	<polygon class="st16" points="115.8,157.4 115.1,160.9 117.6,163.5 114,163.9 112.2,167.1 110.8,163.8 107.2,163.1 109.9,160.7 
		109.4,157.1 112.6,158.9 	"/>
	<polygon class="st16" points="242.2,-93.3 241.4,-89.8 243.9,-87.2 240.3,-86.8 238.5,-83.6 237.1,-86.9 233.5,-87.6 236.2,-90 
		235.8,-93.6 238.9,-91.8 	"/>
	<polygon class="st16" points="651.2,-113.7 650.4,-110.2 652.9,-107.5 649.3,-107.2 647.5,-104 646.1,-107.3 642.5,-107.9 
		645.2,-110.4 644.7,-114 647.9,-112.2 	"/>
	<polygon class="st16" points="68,-93.3 67.2,-89.8 69.7,-87.2 66.1,-86.8 64.4,-83.6 62.9,-86.9 59.4,-87.6 62.1,-90 61.6,-93.6 
		64.7,-91.8 	"/>
	<polygon class="st16" points="-4.4,443 -5.1,446.3 -2.8,448.8 -6.1,449.1 -7.8,452.1 -9.1,449 -12.5,448.4 -10,446.1 -10.4,442.7 
		-7.4,444.4 	"/>
	<polygon class="st16" points="-113.5,222.9 -114.1,225.7 -112.1,227.8 -115,228.1 -116.4,230.6 -117.6,228 -120.4,227.5 
		-118.3,225.5 -118.6,222.7 -116.1,224.1 	"/>
</g>
<g id="Layer_2_00000013900662600242088610000015429212061569682861_">
	<ellipse class="st17" cx="261.5" cy="147.6" rx="123.3" ry="132"/>
	<g>
		<g>
			<g>
				<path class="st18" d="M202.9,246.9c-2.2-6.9-4.9-13.8-6.6-20.8c-2.4-9.6-4.2-19.5-6-29.2c-0.3-1.6,0.2-3.5,0.4-5.2
					c-6.7,0.1-10-3.8-10.4-13c-0.8-19,4.2-36.2,17.5-50.2c6.5-6.8,8.4-15.3,11.5-23.6c5.1-13.5,10.5-26.8,15.9-40.2
					c2.7-3.3,5.4-6.6,8-9.9c7.3-7.2,15.4-11.8,26.3-11.2c9.7,0.5,16.4,6,23.4,11.3c2,3.2,3.9,6.5,5.9,9.8
					c4.7,12.2,9.1,24.6,14.2,36.6c2.8,6.6,6.6,12.6,10.1,18.9c1.5,2.6,3.8,2.5,5.8,0.7c6-5.3,12.1-10.6,17.8-16.3
					c3.9-3.8,7-8.3,10.8-12.2c4.6-4.7,11.8-5.4,15-1.4c4.3,5.5,6.8,13.3,0.9,18.2c-7.4,6.1-15.1,11.9-22.4,18.2
					c-5.2,4.5-10.2,9.2-14.8,14.3c-4.6,5.1-1.4,11.3-1.2,17.1c0.5,11.5,0.6,22.9,0.8,34.4c0.1,3.5-0.1,7-0.1,10.5
					c0.1,14.4-1.6,28.5-5.5,42.3c-0.4,1.2-0.4,2.6-0.6,3.9c-15.2,2-30.4,4-45.6,6c-2.5-2.6-4.9-5.3-7.5-7.9
					c-5-4.9-10.8-3.3-14.4,3.8c-0.8,1.5-2,2.8-3,4.2c-1.4-0.4-2.8-0.8-4.3-1.1C230.7,252.2,216.8,249.6,202.9,246.9z M258.8,123.2
					c0.3-0.2,0.6-0.4,0.9-0.6c1-0.1,2.1-0.2,3.1-0.4c0.3-0.2,0.6-0.4,0.9-0.6c0.3-0.1,0.7-0.2,1-0.3c0.4,0,0.7,0,1.1,0
					c0.3-0.2,0.6-0.4,0.9-0.6c0.3-0.1,0.7-0.2,1-0.3c0.3,0,0.7,0,1,0l0.5,0.1l0.5-0.1c1.2,2.7,2.4,4.9,6.1,3.2
					c3.8-1.7,3.5-4.1,1.8-7c0.7-1,1.5-1.9,2.2-2.9c1-0.7,2.1-1.4,3.1-2c-0.2-0.3-0.4-0.5-0.6-0.8c-0.9,0.6-1.7,1.3-2.6,1.9
					c-0.4,0.3-0.7,0.5-1.1,0.8c-1.3,1-2.6,2-4,3c-0.6,0.1-1.3,0.1-1.9,0.2c-0.4,0.3-0.7,0.5-1.1,0.8c-0.3,0-0.6,0.1-0.9,0.2
					c-0.4,0.3-0.7,0.5-1.1,0.8c-0.6,0.1-1.2,0.2-1.9,0.3c-0.4,0.2-0.7,0.5-1.1,0.7c-0.3,0-0.6,0.1-0.9,0.2c-0.3,0-0.7,0-1,0
					c-0.4,0.2-0.7,0.5-1.1,0.7c-0.3,0-0.6,0.1-0.9,0.2c-0.3,0-0.7,0-1,0c-0.4,0.2-0.7,0.5-1.1,0.7c-0.6,0.1-1.3,0.2-1.9,0.3
					c-0.3,0-0.7,0-1,0c-0.3,0-0.7,0-1,0.1c-0.3,0.2-0.6,0.4-0.9,0.5c-0.4,0.1-0.7,0.2-1.1,0.4c-1,0-2,0-3,0c-1.4,0-2.7,0.1-4,0.1
					c-0.5,0.2-1.1,0.5-1.6,0.7c2.5,0.1,5,0.1,7.5,0.2c0.4-0.1,0.7-0.2,1.1-0.3c1,0,2,0,3,0C258.1,123.2,258.5,123.2,258.8,123.2z
					 M259.3,152.9c-12.9-8.5-26-8.1-34.9,4.6c-5.9,8.5-9.4,17.4-4.9,28.2c7.5,18.2,21.4,30.2,37.3,40.5c1.3,0.8,4,0.5,5.4-0.3
					c4.1-2.4,8.1-5.1,11.9-8c10.1-7.9,18.7-17.2,24.3-29c7.5-15.6-0.5-36-16.2-40.8C273.7,145.5,266.2,148.2,259.3,152.9z M239.9,82
					c-1.7,8.2,9,18.9,17.7,18.6c9.1-0.3,17.9-8.8,18.1-18c0.1-10.6-7.4-18.3-17.2-19C248.5,62.8,238.6,72.6,239.9,82z"/>
				<path class="st19" d="M202.9,246.9c13.9,2.7,27.8,5.3,41.7,8c1.4,0.3,2.8,0.7,4.3,1.1c-1.8,4.6-5,6.2-9.7,4.8
					c-1-0.3-2.4-0.7-3.2-0.3c-9.5,4-13.5,3.2-19.4-4.2C207.6,258.6,205,256.8,202.9,246.9z"/>
				<path class="st19" d="M273.9,255.9c15.2-2,30.4-4,45.6-6c-2.2,4.5-4.1,9.4-10.8,7.2c-0.7-0.2-1.9,0.4-2.5,1
					c-7.1,6.8-10.3,7.1-19.5,2.4c-1.5-0.8-3.7-0.1-5.3-0.7C278.7,258.8,276.3,257.2,273.9,255.9z"/>
				<path class="st19" d="M233,54.8c-2.7,3.3-5.4,6.6-8,9.9c-3.2-2.6-6.6-6.1-4.3-9.8C223.9,50,228.8,53.3,233,54.8z"/>
				<path class="st19" d="M288.6,64.6c-2-3.2-3.9-6.5-5.9-9.8c1.5-1,2.9-2.3,4.6-2.9c1.5-0.5,4-0.9,4.8-0.1c1.1,1.2,1.8,3.8,1.2,5.2
					C292.2,59.9,290.2,62.2,288.6,64.6z"/>
				<path class="st20" d="M259.3,152.9c6.9-4.7,14.4-7.3,22.8-4.8c15.6,4.8,23.7,25.2,16.2,40.8c-5.6,11.7-14.2,21-24.3,29
					c-3.8,2.9-7.7,5.7-11.9,8c-1.4,0.8-4.2,1.1-5.4,0.3c-15.8-10.3-29.7-22.3-37.3-40.5c-4.5-10.8-1-19.8,4.9-28.2
					C233.3,144.7,246.4,144.3,259.3,152.9z"/>
				<path class="st21" d="M239.9,82c-1.3-9.3,8.6-19.2,18.6-18.4c9.8,0.7,17.3,8.4,17.2,19c-0.1,9.2-9,17.7-18.1,18
					C248.9,100.8,238.2,90.2,239.9,82z M259.8,69.4c-1,0-2,0-3,0c-0.4,0.4-0.8,0.7-1.1,1.1c-2.8,1.4-6.7,2.1-8.2,4.3
					c-2.6,4-2.6,10.3,1,13.9c5.9,5.9,9.1,6.8,15.2,3.8c4-1.9,6.6-8.7,6.1-12.4c-0.7-5.4-3.6-8.7-8.8-9.7
					C260.5,70.2,260.2,69.8,259.8,69.4z"/>
				<path class="st21" d="M277.6,116.4c1.7,2.9,2,5.3-1.8,7c-3.7,1.7-4.9-0.5-6.1-3.2c0.1-0.2,0.1-0.4,0.2-0.7
					c0.3-0.1,0.5-0.1,0.8-0.2c0.4-0.2,0.8-0.5,1.2-0.8c0.3-0.1,0.6-0.1,0.9-0.2c0.4-0.3,0.8-0.5,1.1-0.8c0.3,0,0.6-0.1,0.9-0.2
					l0.5,0.1l0.5-0.1c0.4-0.2,0.8-0.5,1.2-0.7C277.1,116.5,277.3,116.4,277.6,116.4z"/>
				<path class="st22" d="M253.7,123.6c-2.5-0.1-5-0.1-7.5-0.2c0.6-0.1,1.1-0.1,1.7-0.2c1.3,0,2.7,0,4,0.1
					C252.5,123.4,253.1,123.5,253.7,123.6z"/>
				<path class="st23" d="M277.6,116.4c-0.3,0-0.5,0.1-0.8,0.1c-0.3,0-0.7-0.1-1-0.1c-0.4,0-0.7,0-1.1,0l-0.1-0.1c1.3-1,2.6-2,4-3
					c0.4,0,0.7,0,1,0l0.1,0.1C279,114.5,278.3,115.4,277.6,116.4z"/>
				<path class="st23" d="M279.7,112.6c0.9-0.6,1.7-1.3,2.6-1.9c0.2,0.3,0.4,0.5,0.6,0.8c-1,0.7-2.1,1.4-3.1,2l-0.1-0.1
					C279.7,113.2,279.7,112.9,279.7,112.6z"/>
				<path class="st23" d="M258.8,121.6c0.6-0.1,1.3-0.2,1.9-0.3c0.4,0,0.7,0,1,0.1l0.5,0l0.5,0l0,0c0,0.2,0,0.5,0,0.8
					c-1,0.1-2.1,0.2-3.1,0.4c-0.3-0.1-0.6-0.2-0.9-0.2C258.8,122.1,258.8,121.9,258.8,121.6z"/>
				<path class="st24" d="M251.9,123.2c-1.3,0-2.7,0-4-0.1l-0.1-0.5c1.4,0,2.7-0.1,4-0.1C251.9,122.8,251.9,123,251.9,123.2z"/>
				<path class="st23" d="M251.9,123.2c0-0.2,0-0.4,0-0.6c1,0,2,0,3,0c0,0.2,0,0.4,0,0.6c-0.4,0.1-0.7,0.2-1.1,0.3
					C253.1,123.5,252.5,123.4,251.9,123.2z"/>
				<path class="st25" d="M254.8,123.2c0-0.2,0-0.4,0-0.6c0.4-0.1,0.7-0.2,1.1-0.3l0.4,0.1l0.5,0c0.3,0,0.7,0,1,0.1l0,0
					c0,0.3,0,0.5,0,0.8C256.8,123.2,255.8,123.2,254.8,123.2z"/>
				<path class="st23" d="M270.7,119.3c-0.3,0.1-0.5,0.2-0.8,0.2c-0.3,0-0.7,0-1,0c-0.4,0-0.7-0.1-1.1-0.1l0,0c0-0.3,0-0.5,0-0.8
					c0.6-0.1,1.2-0.2,1.9-0.3c0.4,0,0.7,0,1.1,0l0,0C270.8,118.7,270.7,119,270.7,119.3z"/>
				<path class="st23" d="M274.7,117.3c-0.3,0.1-0.6,0.2-0.9,0.2c-0.4,0-0.7,0-1.1-0.1l0,0c0-0.3,0-0.6,0-0.8
					c0.6-0.1,1.3-0.1,1.9-0.2l0.1,0.1C274.7,116.7,274.7,117,274.7,117.3z"/>
				<path class="st23" d="M262.8,120.6c0.3-0.1,0.6-0.2,0.9-0.2c0.4,0,0.7,0.1,1,0.1c0,0.3,0,0.6,0,0.8c-0.3,0.1-0.7,0.2-1,0.3
					c-0.3-0.1-0.6-0.1-0.9-0.1l0,0C262.8,121.1,262.8,120.9,262.8,120.6z"/>
				<path class="st26" d="M247.8,122.7c0,0,0.1,0.5,0.1,0.5c-0.6,0.1-1.1,0.1-1.7,0.2C246.7,123.2,247.3,122.9,247.8,122.7z"/>
				<path class="st23" d="M265.8,119.6c0.3-0.1,0.6-0.2,0.9-0.2c0.4,0,0.7,0.1,1,0.1l0,0c0,0.3,0,0.6,0,0.8c-0.3,0.1-0.7,0.2-1,0.3
					c-0.3-0.1-0.6-0.1-0.9-0.1C265.8,120.2,265.8,119.9,265.8,119.6z"/>
				<path class="st25" d="M265.8,119.6c0,0.3,0,0.6,0,0.9c0,0.2,0,0.5,0,0.7c-0.4,0-0.7,0-1.1,0c0-0.3,0-0.6,0-0.8
					c0-0.3,0-0.5,0-0.8C265.1,119.6,265.5,119.6,265.8,119.6z"/>
				<path class="st23" d="M272.7,118.3c-0.3,0.1-0.6,0.2-0.9,0.2c-0.4,0-0.7-0.1-1.1-0.1l0,0c0-0.3,0-0.5,0-0.8
					c0.3-0.1,0.6-0.2,0.9-0.2c0.4,0,0.7,0,1.1,0.1l0,0C272.8,117.7,272.7,118,272.7,118.3z"/>
				<path class="st25" d="M279.7,112.6c0,0.3,0,0.5,0,0.8c-0.4,0-0.7,0-1,0C279,113.2,279.4,112.9,279.7,112.6z"/>
				<path class="st25" d="M272.7,117.4c-0.4,0-0.7,0-1.1-0.1c0.4-0.3,0.7-0.5,1.1-0.8C272.7,116.9,272.7,117.2,272.7,117.4z"/>
				<path class="st22" d="M268.8,119.5c0.3,0,0.7,0,1,0c0,0.2-0.1,0.4-0.2,0.7l-0.5,0.1l-0.5-0.1C268.8,120,268.8,119.8,268.8,119.5
					z"/>
				<path class="st27" d="M261.8,121.4c-0.4,0-0.7,0-1-0.1c0.4-0.2,0.7-0.5,1.1-0.7C261.8,120.9,261.8,121.1,261.8,121.4z"/>
				<path class="st25" d="M261.8,121.4c0-0.3,0-0.5,0-0.8c0.3,0,0.7,0,1,0c0,0.3,0,0.5,0,0.8l-0.5,0L261.8,121.4z"/>
				<path class="st26" d="M265.9,121.2c0-0.2,0-0.5,0-0.7c0.3-0.1,0.6,0,0.9,0.1C266.4,120.8,266.1,121,265.9,121.2z"/>
				<path class="st27" d="M264.8,119.6c0,0.3,0,0.5,0,0.8c-0.4,0-0.7,0-1-0.1C264.1,120.1,264.4,119.9,264.8,119.6z"/>
				<path class="st22" d="M256.8,122.4l-0.5,0l-0.4-0.1c0.3-0.2,0.6-0.4,0.9-0.5C256.8,121.9,256.8,122.1,256.8,122.4z"/>
				<path class="st27" d="M256.8,122.4c0-0.2,0-0.4,0-0.6c0.3,0,0.7,0,1-0.1c0,0.3,0,0.5,0,0.8C257.5,122.4,257.1,122.4,256.8,122.4
					z"/>
				<path class="st25" d="M257.8,122.4c0-0.3,0-0.5,0-0.8c0.3,0,0.7,0,1,0c0,0.3,0,0.5,0,0.8l0,0.1
					C258.5,122.4,258.1,122.4,257.8,122.4L257.8,122.4z"/>
				<path class="st26" d="M262.8,121.5c0.3,0,0.6,0,0.9,0.1c-0.3,0.2-0.6,0.4-0.9,0.6C262.8,122,262.8,121.7,262.8,121.5z"/>
				<path class="st27" d="M267.8,119.4c-0.4,0-0.7-0.1-1-0.1c0.4-0.2,0.7-0.5,1.1-0.7C267.8,118.9,267.8,119.2,267.8,119.4z"/>
				<path class="st24" d="M268.8,119.5c0,0.2-0.1,0.4,0,0.7c-0.3,0-0.7,0-1,0c0-0.3,0-0.6,0-0.8
					C268.1,119.5,268.5,119.5,268.8,119.5z"/>
				<path class="st26" d="M258.8,122.4c0.3,0,0.6,0.1,0.9,0.2c-0.3,0.2-0.6,0.4-1,0.6C258.8,123,258.8,122.7,258.8,122.4
					L258.8,122.4z"/>
				<path class="st25" d="M270.8,117.6c0,0.3,0,0.5,0,0.8c-0.4,0-0.7,0-1.1,0C270,118.1,270.4,117.9,270.8,117.6z"/>
				<path class="st24" d="M258.8,122.5c0,0.2,0,0.5,0,0.7c-0.3,0-0.7,0-1,0c0-0.3,0-0.5,0-0.8C258.1,122.5,258.5,122.5,258.8,122.5z
					"/>
				<path class="st23" d="M260.9,70.6c5.2,1.1,8.1,4.3,8.8,9.7c0.5,3.6-2.1,10.4-6.1,12.4c-6,2.9-9.3,2.1-15.2-3.8
					c-3.6-3.6-3.6-9.9-1-13.9c1.5-2.3,5.4-2.9,8.2-4.3c0.4,0,0.7,0,1.1,0.1c1,0,2,0,3,0C260.2,70.6,260.5,70.6,260.9,70.6z"/>
				<path class="st28" d="M256.8,69.5c1,0,2,0,3,0l0,0.4c-1,0-2,0-3.1,0l-0.1-0.2L256.8,69.5z"/>
				<path class="st24" d="M256.8,70.6c-0.4,0-0.7,0-1.1-0.1c0.4-0.4,0.8-0.7,1.1-1.1l-0.2,0.2l0.1,0.2
					C256.8,70.1,256.8,70.4,256.8,70.6z"/>
				<path class="st27" d="M260.9,70.6c-0.4,0-0.7,0-1.1,0.1c0-0.2,0-0.5,0-0.7l0-0.4C260.2,69.8,260.5,70.2,260.9,70.6z"/>
				<path class="st25" d="M274.7,117.3c0-0.3,0-0.5,0-0.8c0.4,0,0.7,0,1.1,0c-0.1,0.3-0.1,0.5-0.2,0.8l-0.5,0.1L274.7,117.3z"/>
				<path class="st26" d="M270.8,118.4c0.4,0,0.7,0.1,1.1,0.1c-0.4,0.2-0.8,0.5-1.2,0.8C270.7,119,270.8,118.7,270.8,118.4z"/>
				<path class="st24" d="M272.7,118.3c0-0.3,0-0.6,0-0.8c0.4,0,0.7,0,1.1,0.1C273.5,117.8,273.1,118,272.7,118.3z"/>
				<path class="st29" d="M275.6,117.3c0.1-0.3,0.1-0.5,0.2-0.8c0.3,0,0.7,0.1,1,0.1C276.4,116.8,276,117.1,275.6,117.3z"/>
				<path class="st25" d="M259.8,69.9c0,0.2,0,0.5,0,0.7c-1,0-2,0-3,0c0-0.2,0-0.5,0-0.7C257.8,69.9,258.8,69.9,259.8,69.9z"/>
			</g>
			<circle class="st21" cx="257.8" cy="81.6" r="19.1"/>
			<circle class="st23" cx="257.8" cy="81.6" r="12.6"/>
			<g>
				<path class="st23" d="M247.3,123.2c9.4-1.2,18.8-3.2,27.4-7.3c2.9-1.3,5.5-3.1,8.2-4.8C274.3,120.9,260,124.6,247.3,123.2
					L247.3,123.2z"/>
			</g>
			<ellipse class="st18" cx="257.8" cy="184.3" rx="49.9" ry="47"/>
		</g>
		<g>
			<polygon class="st20" points="259.8,142.1 273.8,169.5 305.2,173.9 282.5,195.3 287.8,225.5 259.8,211.2 231.7,225.5 
				237.1,195.3 214.4,173.9 245.7,169.5 			"/>
			<g>
				<path class="st20" d="M258.3,143c2.5,4.9,5,9.7,7.5,14.6c1.6,3.2,3.3,6.4,4.9,9.6c0.5,1.1,1.1,3.1,2.2,3.8
					c1.1,0.7,3.3,0.6,4.6,0.8c3.5,0.5,7,1,10.5,1.5c5.6,0.8,11.1,1.6,16.7,2.3c-0.2-0.9-0.5-1.9-0.7-2.8c-3.9,3.7-7.8,7.3-11.7,11
					c-2.6,2.5-5.2,4.9-7.8,7.4c-1,0.9-3,2.2-3.5,3.5c-0.5,1.2,0.3,3.2,0.5,4.4c0.6,3.4,1.2,6.9,1.8,10.3c1,5.5,2,11,2.9,16.5
					c0.8-0.6,1.6-1.2,2.4-1.9c-5-2.5-9.9-5-14.9-7.6c-3.2-1.6-6.5-3.3-9.7-4.9c-1.1-0.6-2.9-2-4.3-2c-1.3,0-2.9,1.3-4,1.8
					c-3.3,1.7-6.7,3.4-10,5.1c-5,2.5-9.9,5-14.9,7.6c0.8,0.6,1.6,1.2,2.4,1.9c1-5.4,1.9-10.7,2.9-16.1c0.6-3.5,1.2-7,1.9-10.4
					c0.2-1.3,1-3.5,0.6-4.7c-0.5-1.2-2.3-2.4-3.2-3.3c-2.6-2.4-5.2-4.9-7.7-7.3c-4-3.8-8-7.6-12.1-11.4c-0.2,0.9-0.5,1.9-0.7,2.8
					c5.4-0.8,10.8-1.5,16.2-2.3c3.7-0.5,7.3-1,11-1.5c1.2-0.2,3.5,0,4.6-0.8c1.1-0.8,1.7-2.7,2.2-3.8c1.6-3.1,3.1-6.1,4.7-9.2
					c2.6-5,5.1-10,7.7-15c1-1.9-1.9-3.6-2.9-1.7c-2.3,4.6-4.7,9.1-7,13.7c-1.6,3.1-3.2,6.2-4.7,9.3c-0.5,1-1.3,2.1-1.6,3.2
					c-0.5,1.5-1.2,0.8,0.3,0.5c-10.1,2.5-21,3-31.3,4.4c-1.3,0.2-1.6,2-0.7,2.8c3.7,3.5,7.3,6.9,11,10.3c2.6,2.4,5.2,4.9,7.8,7.3
					c1,0.9,2.6,3.3,3.9,3.7c-1.2-0.4,0.2-2.4-0.6-0.4c-0.4,0.9-0.4,2.2-0.6,3.1c-0.6,3.6-1.3,7.1-1.9,10.7c-0.9,5-1.8,10-2.7,15.1
					c-0.3,1.4,1.1,2.6,2.4,1.9c4.7-2.4,9.4-4.8,14-7.1c3.1-1.6,6.2-3.1,9.3-4.7c1.1-0.5,2.3-1,3.3-1.7c0.6-0.4,2.2-0.7,0.6-0.7
					c-1.6,0-0.2,0.2,0.4,0.6c0.9,0.7,2.2,1.1,3.2,1.6c3.2,1.6,6.4,3.3,9.6,4.9c4.7,2.4,9.4,4.8,14,7.1c1.4,0.7,2.7-0.4,2.4-1.9
					c-0.9-5-1.8-10-2.7-15.1c-0.6-3.5-1.2-6.9-1.8-10.4c-0.2-1.1-0.2-2.3-0.6-3.3c-0.7-2.2,0.7-0.5-0.6,0.2c1.3-0.7,2.6-2.4,3.6-3.4
					c2.7-2.5,5.4-5,8-7.5c3.7-3.5,7.3-6.9,11-10.3c0.8-0.8,0.5-2.6-0.7-2.8c-5.1-0.7-10.1-1.4-15.2-2.1c-5.2-0.7-11-0.9-16.1-2.3
					c1.3,0.4,0.8,1,0.3-0.5c-0.3-1-1-2-1.5-2.9c-1.6-3-3.1-6.1-4.7-9.1c-2.4-4.7-4.8-9.4-7.2-14.1C260.2,139.4,257.4,141,258.3,143z
					"/>
			</g>
		</g>
	</g>
</g>
<g id="Layer_3">
	<g>
		<g>
			<path class="st30" d="M261.8,231c-134.5,0-243.6-42.5-243.6-42.5s109-21.2,243.6-21.2"/>
			<g>
				<path class="st30" d="M261.8,229.3c-25.1,0-50.2-1.5-75.1-4.2c-22-2.4-43.9-5.8-65.7-10.2c-17.5-3.5-35-7.6-52.2-12.3
					c-11.9-3.2-23.7-6.7-35.4-10.6c-3.4-1.1-6.7-2.3-10.1-3.5c-1.5-0.5-3-1.3-4.5-1.7c-0.1,0-0.1,0-0.2-0.1c0,1.1,0,2.3,0,3.4
					c3.9-0.8,7.9-1.4,11.9-2.1c10.9-1.9,21.9-3.5,32.9-5c16.7-2.3,33.5-4.4,50.3-6.1c21.4-2.2,42.8-4,64.2-5.3
					c24.6-1.5,49.3-2.4,74-2.6c3.3,0,6.5,0,9.8,0c2.3,0,2.3-3.5,0-3.5c-25.1,0-50.3,0.7-75.4,2.1c-22,1.2-43.9,2.9-65.8,5.1
					c-17.6,1.7-35.1,3.8-52.6,6.2c-11.8,1.6-23.6,3.3-35.4,5.3c-3.4,0.6-6.8,1.1-10.2,1.8c-1.5,0.3-3,0.5-4.5,0.8
					c-0.1,0-0.1,0-0.2,0c-1.9,0.4-1.4,2.8,0,3.4c3.9,1.5,7.9,2.9,11.9,4.3c10.9,3.7,21.9,7,33,10.1c16.8,4.7,33.7,8.8,50.8,12.3
					c21.2,4.4,42.7,8,64.2,10.6c24.7,3,49.6,4.8,74.6,5.2c3.2,0,6.3,0.1,9.5,0.1C264.1,232.8,264.1,229.3,261.8,229.3L261.8,229.3z"
					/>
			</g>
		</g>
		<g>
			<path class="st30" d="M261.8,231c134.5,0,243.6-42.5,243.6-42.5s-109-21.2-243.6-21.2"/>
			<g>
				<path class="st30" d="M261.8,232.8c25.2,0,50.5-1.5,75.5-4.3c22-2.4,43.9-5.8,65.6-10.1c17.7-3.5,35.2-7.6,52.7-12.3
					c11.9-3.2,23.7-6.7,35.3-10.6c4.9-1.6,9.9-3.3,14.7-5.2c0.1,0,0.1,0,0.2-0.1c1.5-0.6,1.9-3,0-3.4c-4-0.8-7.9-1.4-11.9-2.1
					c-11-1.9-22.1-3.5-33.2-5.1c-16.9-2.4-33.8-4.4-50.8-6.2c-21.3-2.2-42.8-4-64.2-5.3c-24.7-1.5-49.4-2.4-74.2-2.6
					c-3.3,0-6.5,0-9.8,0c-2.3,0-2.3,3.5,0,3.5c25.1,0,50.3,0.7,75.4,2.1c21.8,1.2,43.7,2.9,65.4,5c17.4,1.7,34.8,3.7,52.2,6.1
					c11.8,1.6,23.6,3.3,35.3,5.3c3.4,0.6,6.8,1.1,10.2,1.7c1.5,0.3,3,0.7,4.5,0.8c0.1,0,0.1,0,0.2,0c0-1.1,0-2.3,0-3.4
					c-3.9,1.5-7.8,2.9-11.8,4.2c-10.9,3.7-22,7.1-33,10.2c-16.7,4.7-33.5,8.7-50.4,12.3c-21.2,4.4-42.7,8-64.2,10.6
					c-24.6,3-49.4,4.8-74.1,5.1c-3.2,0-6.3,0.1-9.5,0.1C259.5,229.3,259.5,232.8,261.8,232.8L261.8,232.8z"/>
			</g>
		</g>
	</g>
	<path class="st31" d="M386.7,202.8c0,46.7-56.8,84.5-126.8,84.5S133,249.4,133,202.8"/>
	<g>
		
			<ellipse transform="matrix(0.3848 -0.923 0.923 0.3848 -128.6134 194.5625)" class="st32" cx="81.6" cy="193.8" rx="7.9" ry="4.3"/>
		<ellipse transform="matrix(0.866 -0.5 0.5 0.866 -85.5455 48.2894)" class="st33" cx="47.3" cy="183.8" rx="7.9" ry="4.3"/>
		
			<ellipse transform="matrix(0.2502 -0.9682 0.9682 0.2502 -109.9438 259.2147)" class="st34" cx="112.4" cy="200.6" rx="7.9" ry="4.3"/>
		
			<ellipse transform="matrix(0.2502 -0.9682 0.9682 0.2502 -89.4735 300.8355)" class="st34" cx="149.5" cy="208.2" rx="7.9" ry="4.3"/>
		<ellipse transform="matrix(0.1408 -0.99 0.99 0.1408 -50.7134 368.597)" class="st35" cx="187" cy="213.5" rx="7.9" ry="4.3"/>
		
			<ellipse transform="matrix(8.959802e-02 -0.996 0.996 8.959802e-02 -11.4776 420.5995)" class="st36" cx="224.3" cy="216.6" rx="7.9" ry="4.3"/>
		
			<ellipse transform="matrix(0.923 -0.3848 0.3848 0.923 -40.9328 185.7171)" class="st32" cx="443.6" cy="195.1" rx="4.3" ry="7.9"/>
		<ellipse transform="matrix(0.5 -0.866 0.866 0.5 78.6293 506.4244)" class="st33" cx="477.9" cy="185.1" rx="4.3" ry="7.9"/>
		
			<ellipse transform="matrix(0.9682 -0.2502 0.2502 0.9682 -37.3862 109.7198)" class="st34" cx="412.9" cy="201.9" rx="4.3" ry="7.9"/>
		
			<ellipse transform="matrix(0.9682 -0.2502 0.2502 0.9682 -40.4679 100.677)" class="st34" cx="375.8" cy="209.5" rx="4.3" ry="7.9"/>
		<ellipse transform="matrix(0.99 -0.1408 0.1408 0.99 -26.8843 49.758)" class="st35" cx="338.2" cy="214.9" rx="4.3" ry="7.9"/>
		
			<ellipse transform="matrix(0.996 -8.959802e-02 8.959802e-02 0.996 -18.311 27.8419)" class="st36" cx="301" cy="217.9" rx="4.3" ry="7.9"/>
		<ellipse class="st32" cx="260.4" cy="217.9" rx="4.3" ry="7.9"/>
	</g>
</g>
</svg>
