<?xml version="1.0" encoding="utf-8"?>
<!-- Generator: Adobe Illustrator 28.0.0, SVG Export Plug-In . SVG Version: 6.00 Build 0)  -->
<svg version="1.1" id="Layer_1" xmlns="http://www.w3.org/2000/svg" xmlns:xlink="http://www.w3.org/1999/xlink" x="0px" y="0px"
	 viewBox="0 0 213.64 234.09" style="enable-background:new 0 0 213.64 234.09;" xml:space="preserve">
<style type="text/css">
	.st0{fill:#6DBFB7;}
	.st1{fill:#BCB9DD;}
	.st2{fill:#B8DFDB;}
	.st3{fill:#F8F7F3;}
	.st4{fill:#67696F;}
	.st5{fill:#090A11;}
	.st6{fill:#35363E;}
	.st7{fill:#414042;}
	.st8{fill:#6D6E71;}
	.st9{fill:#58595B;}
	.st10{fill:#BCBEC0;}
	.st11{fill:#939598;}
	.st12{fill:#5EC4BB;}
	.st13{fill:#BCBADB;}
	.st14{fill:#BBBBDB;}
	.st15{fill:#BAB9D7;}
	.st16{fill:#BBB9D7;}
	.st17{fill:#B7B3B8;}
	.st18{fill:#B4B1BC;}
	.st19{fill:#A39FAC;}
	.st20{fill:#BFE5E3;}
	.st21{fill:#EEF3F4;}
	.st22{fill:#E8EFEF;}
	.st23{fill:#0A0A0A;}
	.st24{fill:#B8DFDB;stroke:#B8DFDB;stroke-width:0.2926;stroke-miterlimit:10;}
	.st25{fill:#5DC4BB;}
	.st26{fill:#BDBBDE;}
	.st27{fill:#0B0E14;}
	.st28{fill:#050D0B;}
	.st29{fill:#F1F6F6;}
	.st30{fill:#1E433F;}
	.st31{fill:#F47622;}
	.st32{fill:#F2F7F7;}
	.st33{fill:#010101;}
	.st34{fill:#E5E5DF;}
	.st35{fill:#EDF1EE;}
	.st36{fill:#F0F2EF;}
	.st37{fill:#F6AB77;}
	.st38{fill:#89A2A0;}
	.st39{fill:#071110;}
	.st40{fill:#EFF5F5;}
	.st41{fill:#152F2D;}
	.st42{fill:#030302;}
	.st43{fill:#676FB4;}
	.st44{fill:#BCB9DC;}
	.st45{fill:#F7934E;}
	.st46{fill:#FCCAA8;}
	.st47{fill:#6AB5AD;}
	.st48{fill:#99A5A4;}
	.st49{fill:#398B84;}
	.st50{fill:#030202;}
	.st51{fill:#040908;}
	.st52{fill:#F1F6F7;}
	.st53{fill:#ACD0CD;}
	.st54{fill:#EFF4F5;}
	.st55{fill:#91A4A3;}
	.st56{fill:#ABA7AE;}
	.st57{fill:#AEA9B1;}
	.st58{fill:#88A2A0;}
	.st59{fill:#A6A1AD;}
	.st60{fill:#C0E5E3;}
	.st61{fill:#595BA8;}
	.st62{fill:#5A5CA8;}
	.st63{fill:#BDBBDD;}
	.st64{fill:#BCBADD;}
	.st65{fill:#5C5EA8;}
	.st66{fill:#B7B5D9;}
	.st67{fill:#ADAEAE;}
	.st68{fill:#BAB7DC;}
	.st69{fill:#B6DBD7;}
	.st70{fill:#BBB9DC;}
	.st71{fill:#A3ABAB;}
	.st72{fill:#AAC2C0;}
	.st73{fill:#A4ACAC;}
	.st74{fill:#A9ACAC;}
	.st75{fill:#A8BEBD;}
	.st76{fill:#6C6AA8;}
	.st77{fill:#CBD8D7;}
	.st78{fill:#AECAC8;}
	.st79{fill:#B4C8C6;}
	.st80{fill:#7CA9A4;}
	.st81{fill:#C3C0C4;}
	.st82{fill:#89A19F;}
	.st83{fill:#B4D7D4;}
	.st84{fill:#AAA7B7;}
	.st85{fill:#A5ABAA;}
	.st86{fill:#7AA7A2;}
	.st87{fill:#ADB4B4;}
	.st88{fill:#D8D7D7;}
	.st89{fill:#A8B0B0;}
	.st90{fill:#C2C3C3;}
	.st91{fill:#ADBBBA;}
	.st92{fill:#0A1816;}
	.st93{fill:#061311;}
	.st94{fill:#051210;}
	.st95{fill:#BFE4E2;}
	.st96{fill:#1D3735;}
	.st97{fill:#BBB9DD;}
	.st98{fill:#F0F5F5;}
	.st99{fill:#2D6B65;}
	.st100{fill:none;stroke:#C0E5E3;stroke-width:1.698;stroke-miterlimit:10;}
	.st101{fill:#5EC3BC;}
	.st102{fill:#595DA9;}
	.st103{fill:#92CEC9;}
	.st104{fill:#050D0C;}
	.st105{fill:#132624;}
	.st106{fill:#E0F2F3;}
	.st107{fill:#B4BDBC;}
	.st108{fill:#ADA9B0;}
	.st109{fill:#7DA49F;}
	.st110{fill:#BFC4C3;}
	.st111{fill:#A5A1AF;}
	.st112{fill:#EBEAEA;}
	.st113{fill:#85A5A1;}
	.st114{fill:#C8DFDC;}
	.st115{fill:#AAA6B2;}
	.st116{fill:#ABA7B5;}
	.st117{fill:#DFF2F2;}
	.st118{fill:#050C0B;}
	.st119{fill:#DBF0F0;}
	.st120{fill:#1F4340;}
	.st121{fill:#60C5BC;}
	.st122{fill:none;stroke:#FFFFFF;stroke-width:2.1779;stroke-miterlimit:10;}
	.st123{fill:none;stroke:#FFFFFF;stroke-width:1.315;stroke-miterlimit:10;}
	.st124{fill:#D0DDDC;}
</style>
<path class="st17" d="M139.05,225.77c1.51,0,3.02,0,4.52-0.01C142.07,226.6,140.56,226.59,139.05,225.77z"/>
<path class="st19" d="M74.31,225.64c1.1-0.7,2.19-0.75,3.27,0.05C76.49,225.67,75.4,225.66,74.31,225.64z"/>
<path class="st25" d="M121.69,216.9c-2.88-3.1-5.27-6.68-8.89-9.05c-3.33-2.17-5.54-1.81-8.39,0.83c-2.71,2.51-3.81,6.15-6.44,8.67
	c-0.67,0.27-1.37,0.39-2.08,0.25c-7.01-1.44-14.17-1.69-21.22-3.07c-6.42-1.26-12.73-2.84-19.02-4.57c-1.17-0.32-2.21-0.8-3.1-1.61
	c-1.82-3.18-2.93-6.6-3.59-10.2c-1.8-9.85-4.93-19.39-6.83-29.23c-0.77-3.96-1.07-7.96-1.38-11.95c-1.24-15.74,0.3-31.28,3.59-46.7
	c1.25-5.88,3.93-11.15,6.54-16.43c3-6.05,4.7-12.52,6.85-18.85c3.36-9.92,6.71-19.85,10.07-29.78c0.76-0.51,1.62-0.66,2.49-0.5
	c3.65,0.66,7.35,0.85,11.02,1.27c1.87,0.21,2.5,1.12,2.67,2.89c0.66,6.82,3.54,12.48,8.97,16.8c11.03,8.78,30.38,5.57,35.56-11.72
	c0.63-2.11,1.04-4.28,1.07-6.51c0.01-1.27,0.43-2.39,1.86-2.65c3.18-0.58,6.42-0.64,9.62-0.99c0.48-0.05,0.91,0.23,1.32,0.46
	c3.05,8.77,6.11,17.54,9.15,26.31c2.53,7.3,6.47,13.95,9.69,20.93c2.94,6.36,5.55,12.88,7.47,19.62c1.43,5,3.04,10.02,3.2,15.32
	c0.02,0.6,0.29,1.2,0.45,1.8c0.51,0.71-0.02,1.6,0.39,2.33c0.35,3.65,0.85,7.29,0.49,10.97c-0.41,3.82-0.06,7.65-0.19,11.47
	c-0.03,0.93,0.2,1.88-0.19,2.78c-0.43,14.64-0.8,29.29-3.5,43.73c-0.76,4.09-2.1,8.07-3.18,12.1c-2.5,1.43-5.34,1.2-8.03,1.56
	c-4.69,0.63-9.35,1.37-14,2.26c-6.13,1.17-12.37,1.36-18.54,2.11C124.25,217.73,122.9,217.62,121.69,216.9z"/>
<path class="st25" d="M136.27,30.11c1.84,3.92,3.79,7.8,5.2,11.91c-0.21,0.59-0.7,0.91-1.26,0.92c-2.92,0.05-5.81,0.5-8.72,0.59
	c-1.64,0.05-2.4-0.95-2.81-2.37c-0.82-2.83-2.07-5.43-3.91-7.77c-10.29-13.11-31.83-11.59-39.2,5.52c-0.57,1.32-0.74,2.74-1.09,4.11
	c-0.32,1.25-1.06,2.01-2.33,1.9c-4.31-0.36-8.66-0.35-12.93-1.14c-0.23-0.04-0.4-0.24-0.57-0.41c1.63-4.32,3.84-8.35,6.2-12.3
	c0.08-1.74,1.54-2.66,2.41-3.92c1.56-2.26,3.43-4.25,5.55-6.01c2.83-2.62,5.52-5.38,8.86-7.42c8.43-5.15,17.15-5.45,25.97-1.43
	c5.1,2.33,9.62,5.68,13.51,9.78c0.72,0.24,1.2,0.76,1.5,1.42C133.69,25.79,135.15,27.85,136.27,30.11z"/>
<path class="st26" d="M52.54,208.36c8.81,2.96,17.89,4.9,27.02,6.47c6.09,1.05,12.32,1.27,18.4,2.54c-1,2.89-2.76,4.88-6.02,5.1
	c-0.55,0.04-1.1,0.05-1.64,0.08c-1.75,0.09-3.07-2.43-4.16-1.73c-1.28,0.82-2.3,2.18-3.89,2.78c-4.56,1.71-11.63-0.58-14.3-4.6
	c-0.55-0.83-0.77-1.69-0.92-2.87c-1.98,1.72-4.12,2.72-6.64,2.36c-3.8-0.54-5.44-3.4-6.74-6.54
	C53.15,210.8,52.9,209.56,52.54,208.36z"/>
<path class="st27" d="M68.65,43.36c4.31,0.32,8.62,0.62,12.93,0.99c1.36,0.12,1.96-0.14,2.32-1.73
	c2.53-11.43,11.78-18.7,23.44-18.62c10,0.07,19.07,6.93,21.83,16.75c0.54,1.9,1.25,2.49,3.16,2.21c3.03-0.44,6.09-0.64,9.14-0.94
	c0.3,0.75,0.6,1.5,0.89,2.26c-3.6,0.36-7.19,0.78-10.79,1.04c-1.82,0.13-1.38,1.35-1.41,2.37c-0.29,10.48-6.68,19.22-16.3,22.31
	c-14.56,4.68-29.9-5.96-30.52-21.26c-0.06-1.55-0.5-1.96-1.98-2.09c-4.54-0.38-9.06-0.95-13.59-1.44
	C68.03,44.57,68.1,43.85,68.65,43.36z"/>
<path class="st26" d="M121.69,216.9c9.25-0.21,18.39-1.42,27.48-3.07c5.62-1.02,11.28-1.84,16.98-2.2c-0.4,5.8-6.21,8.61-11.38,5.32
	c-1.66,4.6-5.23,6.91-9.83,7.44c-4.56,0.53-8.9-0.06-11.18-4.97c-3.37,3.41-6.41,2.22-9.23-0.11
	C123.58,218.53,122.39,218,121.69,216.9z"/>
<path class="st26" d="M82.81,21.13c-2.65,3.31-5.3,6.62-7.96,9.93c-1.47-1.63-2.98-3.22-3.9-5.27c-0.87-1.94-1.55-3.8,0.26-5.63
	c1.81-1.83,3.9-1.7,6.11-1.05C79.2,19.65,80.8,20.94,82.81,21.13z"/>
<path class="st26" d="M136.27,30.11c-2.6-2.11-3.22-5.49-5.12-8.04c1.03-1.51,2.49-2.56,3.89-3.68c1.35-1.08,2.9-1.54,4.37-0.81
	c1.63,0.82,1.91,2.57,1.75,4.28c-0.26,2.81-1.93,4.88-3.73,6.86C137.02,29.16,136.33,29.37,136.27,30.11z"/>
<path class="st25" d="M122.72,152.47c7,3.47,10.24,3.07,15.1-1.74c2.54-2.51,4.35-5.59,6.6-8.31c1.47-1.77,2.53-3.91,4.54-5.51
	c0.76,4.76-0.31,8.99-1.99,13.08c-4.45,10.83-11.99,19.33-20.54,27.04c-5.16,4.65-10.92,8.5-16.73,12.26
	c-0.91,0.59-1.58,0.69-2.56,0.11c-13.86-8.26-25.71-18.63-34.29-32.47c-4.32-6.97-6.19-14.03-5.53-21.2
	c1.01,0.13,1.34,0.96,1.82,1.63c2.58,3.57,5.09,7.2,7.77,10.7c4.74,6.21,9,7.16,16.5,3.88c1.04-0.13,1.78,0.51,2.55,1.02
	c4.05,2.68,8.12,5.32,11.88,8.4c0.52,0.38,1.02,0.4,1.51-0.05c3.57-3.06,7.53-5.58,11.42-8.18
	C121.36,152.73,121.96,152.36,122.72,152.47z"/>
<path class="st25" d="M110.77,122.78c-0.3,0.25-0.61,0.51-0.91,0.76c-0.71,0.66-1.28,2.13-2.38,0.39c-0.17-0.18-0.34-0.35-0.51-0.53
	c-4.67-4.18-9.51-8.15-14.94-11.33c-0.59-0.35-1.68-0.18-1.66-1.33c6,0.03,11.38,2.05,16.35,5.24c1.18,0.76,1.94,0.74,3.11-0.03
	c5-3.33,10.46-5.31,16.57-5.14c-0.07,1-0.97,1.12-1.62,1.48C119.63,115.17,115.27,119.07,110.77,122.78z"/>
<path class="st28" d="M117.84,84.66c-4.85,1.45-9.6,3.29-14.74,3.61c-2.82,0.18-5.64,0.17-8.46,0.05c-0.95-0.37-1.98,0.11-2.92-0.32
	c-0.59-0.04-1.19-0.08-1.78-0.12c-0.01-0.89,0.51-0.62,0.99-0.45c10.82,0.51,21.05-1.75,30.71-6.64c2.25-1.14,4.38-2.47,6.29-4.12
	c0.48-0.41,0.91-0.9,1.45-1.21c0.63-0.36,1.37-1.21,2.06-0.41c0.55,0.64-0.15,1.38-0.62,1.84c-1.06,1.04-2.25,1.96-3.38,2.93
	c-0.53,0.45-1.06,0.91-1.59,1.36C123.5,83.06,120.83,84.22,117.84,84.66z"/>
<path class="st29" d="M117.84,84.66c2.67-1.16,5.34-2.31,8.02-3.47c1.87,2.19,2.1,4.52,0.41,5.72c-2.41,1.7-5.65,2.82-7.49-0.39
	C118.43,85.92,118.15,85.28,117.84,84.66z"/>
<path class="st25" d="M83.65,113.05c0.04,3.68,0.02,7.36-0.4,11.02c-2.54-1.26-3.89-3.81-6.01-5.54c-0.84-0.69,0.01-1.1,0.4-1.47
	C79.41,115.37,81.34,113.92,83.65,113.05z"/>
<path class="st25" d="M133.91,124.41c-0.62-3.62-0.44-7.27-0.36-10.92c2.19,0.96,3.99,2.48,5.75,4.06c0.71,0.63,0.82,1.06,0.1,1.68
	C137.49,120.87,136.05,123.01,133.91,124.41z"/>
<path class="st30" d="M90.93,87.43c-0.33,0.15-0.66,0.3-0.99,0.45c-0.63,0.09-1.2,0.03-1.84-0.72
	C89.2,87.09,90.07,86.89,90.93,87.43z"/>
<path class="st30" d="M91.72,88c0.99-0.07,2.02-0.43,2.92,0.32C93.67,88.22,92.65,88.48,91.72,88z"/>
<path class="st25" d="M106.91,25.79c12.1,0.08,21.76,9.62,21.81,21.54c0.04,12.13-10.1,22.32-22.09,22.2
	c-12.5-0.13-22.05-10.28-21.93-23.29C84.8,35.3,95.21,25.71,106.91,25.79z"/>
<path class="st31" d="M112.71,126.86c1.66-1.13,1.66-1.13,2.13,0.89c0.46-1.02-0.38-2.71,1.54-2.94c0.54,1.16,0.85,2.32,0.04,3.49
	c-0.87,0.05-0.79,1.07-1.4,1.38c-0.85,0.53-1.21-0.12-1.61-0.66C113.1,128.31,112.76,127.63,112.71,126.86z"/>
<path class="st31" d="M112.71,126.86c0.87,0.37,0.9,1.14,0.91,1.92c0.28,0.47,0.3,0.95,0.03,1.44c-0.8,0.43-1.76,0.66-2.41,1.69
	c0-1.52,0-3.03,0-4.55c1.16-0.65,1.07,0.24,1.14,0.98c0.14-0.54-0.14-1.08,0.18-1.55L112.71,126.86z"/>
<path class="st31" d="M116.41,128.29c-0.01-1.16-0.03-2.33-0.04-3.49c0.08-0.25,0.2-0.43,0.51-0.31c0.78,1,0.52,2.17,0.51,3.29
	C117.2,128.22,117.12,128.85,116.41,128.29z"/>
<path class="st31" d="M117.39,127.78c-0.65-1.02-0.45-2.18-0.51-3.29c0.15-0.02,0.29-0.05,0.44-0.1c0.19,0.31,0.38,0.62,0.57,0.93
	c0.12,0.49-0.3,0.95-0.07,1.45c0.03,0.31,0.05,0.62,0.08,0.92C117.72,127.72,117.56,127.75,117.39,127.78z"/>
<path class="st31" d="M112.55,126.79c0,0.67,0,1.35,0,2.08c-0.67-0.38-0.06-1.76-1.32-1.51
	C111.49,126.75,112.05,126.84,112.55,126.79z"/>
<path class="st31" d="M113.65,130.22c-0.01-0.48-0.02-0.96-0.03-1.44c0.47,0.28,0.66,1.01,1.39,0.89
	C114.71,130.22,114.11,130.04,113.65,130.22z"/>
<path class="st32" d="M106.52,65.28c-9.76,0.04-17.96-8.09-18.04-17.88c-0.07-9.68,8.05-18.16,17.42-18.21
	c10.38-0.05,18.43,7.71,18.46,17.81C124.4,57.07,116.42,65.24,106.52,65.28z"/>
<path class="st31" d="M117.81,126.77c-0.68-0.52-0.6-1,0.07-1.45C119.65,125.89,118.04,126.29,117.81,126.77z"/>
<path class="st33" d="M117.96,47.23c-0.1,6.72-5.14,11.85-11.53,11.76c-6.31-0.09-11.76-5.89-11.68-12.42
	c0.08-6.31,5.5-11.33,12.15-11.23C113.29,35.43,118.06,40.56,117.96,47.23z"/>
<g>
	<polygon class="st2" points="106.7,103.04 121.91,132.77 155.92,137.54 131.31,160.67 137.12,193.35 106.7,177.92 76.29,193.35 
		82.09,160.67 57.49,137.54 91.49,132.77 	"/>
	<g>
		<path class="st2" d="M105.15,103.96c2.76,5.39,5.52,10.78,8.27,16.17c1.71,3.33,3.41,6.67,5.12,10c0.62,1.21,1.25,3.39,2.46,4.2
			c1.22,0.81,3.64,0.63,5.03,0.83c3.81,0.53,7.62,1.07,11.43,1.6c5.99,0.84,11.99,1.68,17.98,2.52c-0.27-1-0.53-2.01-0.8-3.01
			c-4.22,3.97-8.44,7.94-12.67,11.91c-2.83,2.66-5.66,5.33-8.5,7.99c-1.01,0.95-3.32,2.41-3.82,3.82c-0.47,1.35,0.34,3.58,0.57,4.9
			c0.66,3.71,1.32,7.43,1.98,11.14c1.06,5.93,2.11,11.87,3.17,17.8c0.88-0.68,1.77-1.36,2.65-2.04c-5.36-2.72-10.72-5.44-16.09-8.16
			c-3.51-1.78-7.01-3.56-10.52-5.34c-1.2-0.61-3.26-2.19-4.72-2.18c-1.4,0.01-3.25,1.43-4.42,2.02c-3.61,1.83-7.22,3.66-10.82,5.49
			c-5.36,2.72-10.72,5.44-16.09,8.16c0.88,0.68,1.77,1.36,2.65,2.04c1.03-5.77,2.05-11.54,3.08-17.32
			c0.67-3.77,1.34-7.54,2.01-11.31c0.24-1.37,1.14-3.81,0.63-5.22c-0.49-1.34-2.6-2.68-3.57-3.58c-2.8-2.63-5.59-5.26-8.39-7.89
			c-4.34-4.08-8.68-8.17-13.03-12.25c-0.27,1-0.53,2.01-0.8,3.01c5.99-0.84,11.99-1.68,17.98-2.52c3.81-0.53,7.62-1.07,11.43-1.6
			c1.35-0.19,3.82-0.04,5.03-0.83c1.23-0.8,1.83-2.97,2.46-4.2c1.71-3.33,3.41-6.67,5.12-10c2.76-5.39,5.52-10.78,8.27-16.17
			c1.06-2.06-2.06-3.89-3.11-1.82c-2.53,4.95-5.07,9.91-7.6,14.86c-1.71,3.35-3.43,6.7-5.14,10.05c-0.56,1.09-1.39,2.3-1.78,3.48
			c-0.56,1.73-1.19,0.79,0.36,0.51c-11.21,2.06-22.68,3.18-33.97,4.76c-1.37,0.19-1.7,2.17-0.8,3.01
			c3.98,3.74,7.96,7.49,11.94,11.23c2.8,2.63,5.6,5.27,8.4,7.9c0.6,0.56,3.38,4.02,4.24,3.98c-1.47,0.06,0.17-2.93-0.67-0.43
			c-0.36,1.06-0.42,2.34-0.61,3.44c-0.69,3.86-1.37,7.73-2.06,11.59c-0.97,5.45-1.94,10.89-2.9,16.34
			c-0.28,1.56,1.18,2.78,2.65,2.04c5.07-2.57,10.14-5.14,15.21-7.71c3.49-1.77,6.97-3.53,10.46-5.3c1.07-0.54,2.24-1,3.25-1.65
			c0.61-0.39,2.35-0.75,0.6-0.75c-1.72,0-0.05,0.33,0.6,0.75c1.01,0.64,2.18,1.11,3.25,1.65c3.49,1.77,6.97,3.53,10.46,5.3
			c5.07,2.57,10.14,5.14,15.21,7.71c1.47,0.75,2.93-0.48,2.65-2.04c-0.97-5.45-1.94-10.89-2.9-16.34c-0.67-3.74-1.33-7.48-2-11.23
			c-0.21-1.21-0.29-2.65-0.68-3.81c-0.85-2.51,0.84,0.5-0.67,0.43c0.79,0.04,3.4-3.2,3.95-3.72c2.89-2.72,5.79-5.44,8.68-8.17
			c3.98-3.74,7.96-7.49,11.94-11.23c0.9-0.85,0.57-2.82-0.8-3.01c-11.29-1.58-22.76-2.7-33.97-4.76c1.53,0.28,0.98,1.28,0.46-0.31
			c-0.38-1.14-1.17-2.29-1.71-3.35c-1.7-3.31-3.39-6.63-5.09-9.94c-2.61-5.1-5.22-10.2-7.83-15.3
			C107.2,100.07,104.09,101.89,105.15,103.96z"/>
	</g>
</g>
<path class="st34" d="M130.78,123.27c-0.17-0.16-0.35-0.32-0.52-0.48c0.63-0.45,1.25-0.94,2.06-0.37
	C131.91,122.9,131.39,123.16,130.78,123.27z"/>
<path class="st31" d="M107.81,164.49c-4.72-3.49-9.53-6.83-14.49-9.96c0.42-0.34,0.81-0.71,1.25-1.01c5.72-3.82,6.57-10.07,1.7-15
	c-3.42-3.46-7.28-6.48-10.92-9.71c-0.76-0.67-1.46-1.42-2.18-2.13c0.12-3.93,0.12-7.03,0.4-11.02c0.22-3.85,0.22-3.85,4.11-2.77
	c2.09,0.46,3.95,1.47,5.69,2.63c4.89,3.25,9.25,7,13.78,10.76c0.25,0.34,0.72,0.52,0.8,0.93c0.33,8.33,0.05,16.65,0.16,24.97
	c0.04,3.37-0.2,6.75,0.23,10.12C108.44,163.07,108.45,163.87,107.81,164.49z"/>
<path class="st31" d="M133.83,127c-3.76,3.3-7.51,6.63-11.3,9.91c-2.34,2.02-4.5,4.11-5.13,7.35c-0.97,4.99-0.24,6.88,3.98,9.78
	c0.44,0.31,0.84,0.68,1.26,1.02c-4.46,3.13-8.92,6.25-13.38,9.38c-0.53-0.46-0.74-1.11-0.6-1.71c0.91-3.9-0.24-7.82,0.19-11.74
	c0.27-2.45-0.03-5.01-0.19-7.51c-0.36-5.66,0.3-11.27,0.56-16.91c0.52-0.58,0.97-1.09,1.47-1.52c4.19-2.46,7.32-5.93,11.4-8.54
	c1.72-1.1,3.46-2.13,5.3-2.98c0.59-0.31,1.19-0.57,1.86-0.65c3.97-1.08,3.97-1.08,4.22,3.2"/>
<path class="st35" d="M90.29,113.34c6.07,2.63,10.71,7.27,15.8,11.28c0.44,0.34,0.78,0.78,0.8,1.39c-2.9-2.14-5.84-4.22-8.69-6.43
	c-3.3-2.56-6.93-4.58-10.51-6.7C88.68,112.3,89.44,113.05,90.29,113.34z"/>
<path class="st36" d="M110.68,125.38c1.97-2.89,5.03-4.57,7.56-6.83c2.39-2.14,5.26-3.61,8.06-5.14c0.29-0.05,0.59-0.1,0.88-0.16
	c0.51-0.2,0.59,0.06,0.52,0.48C121.56,116.92,116.57,121.81,110.68,125.38z"/>
<path class="st37" d="M107.39,126.53c0.97,0.95,1.61-0.13,2.38-0.39c-0.14,6.31-0.42,12.61-0.3,18.93
	c0.12,6.44,0.51,12.93-0.22,19.37c-0.46,0.7-0.94,0.78-1.45,0.04C106.91,151.84,107.63,139.18,107.39,126.53z"/>
<path class="st25" d="M141.67,121.2l-11.99,9.46l-7.83,6.85c0,0-9.23,7.34-2.89,14.6l3.68,2.96c0,0,4.5,0.91,7.76,0
	c3.26-0.91,17.94-4.79,17.94-4.79l10.67-5.21l-2.55-22.7L141.67,121.2z"/>
<path class="st25" d="M75.09,119.96l11.99,9.46l7.83,6.85c0,0,9.23,7.34,2.89,14.6l-3.68,2.96c0,0-4.5,0.91-7.76,0
	c-3.26-0.91-17.94-4.79-17.94-4.79l-10.67-5.21l2.55-22.7L75.09,119.96z"/>
<circle class="st25" cx="57.15" cy="137.16" r="6.42"/>
<circle class="st25" cx="157.42" cy="137.16" r="6.42"/>
<path class="st36" d="M109.51,126.26l2.1-1.46l0.29-0.93C111.9,123.87,111.19,124.26,109.51,126.26z"/>
<polygon class="st35" points="106.38,124.89 108.2,126.91 107.85,126.79 107.39,126.53 107.15,126.26 106.54,125.75 "/>
</svg>
