<?xml version="1.0" encoding="utf-8"?>
<!-- Generator: Adobe Illustrator 28.0.0, SVG Export Plug-In . SVG Version: 6.00 Build 0)  -->
<svg version="1.1" xmlns="http://www.w3.org/2000/svg" xmlns:xlink="http://www.w3.org/1999/xlink" x="0px" y="0px"
	 viewBox="0 0 841.89 595.28" style="enable-background:new 0 0 841.89 595.28;" xml:space="preserve">
<style type="text/css">
	.st0{display:none;}
	.st1{display:inline;fill:#35363E;}
	.st2{display:inline;fill:none;stroke:#F8AD79;stroke-miterlimit:10;}
	.st3{display:inline;}
	.st4{fill:#F7924D;}
	.st5{fill:#F8AD79;stroke:#F8AD79;stroke-miterlimit:10;}
	.st6{fill:#F8AD79;stroke:#F8AD79;stroke-width:0.4241;stroke-miterlimit:10;}
	.st7{fill:#F7924D;stroke:#F8AD79;stroke-miterlimit:10;}
	.st8{fill:#F7924D;stroke:#F7924D;stroke-width:1.9097;stroke-miterlimit:10;}
	.st9{fill:#F7924D;stroke:#F8AD79;stroke-width:1.4945;stroke-miterlimit:10;}
	.st10{fill:#F7924D;stroke:#F7924D;stroke-width:1.4945;stroke-miterlimit:10;}
	.st11{fill:#F8AD79;stroke:#F8AD79;stroke-width:0.2834;stroke-miterlimit:10;}
	.st12{fill:#F7924D;stroke:#F8AD79;stroke-width:0.2834;stroke-miterlimit:10;}
	.st13{fill:#F7924D;stroke:#F7924D;stroke-width:0.5411;stroke-miterlimit:10;}
	.st14{fill:#F7924D;stroke:#F8AD79;stroke-width:0.4235;stroke-miterlimit:10;}
	.st15{fill:#F7924D;stroke:#F7924D;stroke-width:0.4235;stroke-miterlimit:10;}
	.st16{display:inline;fill:#F8F7F3;}
	.st17{fill:#DBEFED;stroke:#DBEFED;stroke-width:1.0346;stroke-miterlimit:10;}
	.st18{fill:#6DBFB7;}
	.st19{fill:#BCB9DD;}
	.st20{fill:#B8DFDB;}
	.st21{fill:#F8F7F3;}
	.st22{fill:#67696F;}
	.st23{fill:#090A11;}
	.st24{fill:#35363E;}
	.st25{fill:#414042;}
	.st26{fill:#6D6E71;}
	.st27{fill:#58595B;}
	.st28{fill:#BCBEC0;}
	.st29{fill:#939598;}
	.st30{fill:#7473B6;}
	.st31{fill:#7473B6;stroke:#7473B6;stroke-width:0.7162;stroke-miterlimit:10;}
	.st32{fill:#DBEFED;stroke:#DBEFED;stroke-width:0.9264;stroke-miterlimit:10;}
</style>
<g id="Layer_1">
</g>
<g id="Layer_6" class="st0">
	<rect x="-0.78" y="-1.31" class="st1" width="843.45" height="597.89"/>
</g>
<g id="Layer_4" class="st0">
	<path class="st2" d="M-22.79,492.65"/>
	<g class="st3">
		<path class="st4" d="M819.45,109.8c0,46.25-37.49,83.74-83.74,83.74s-83.74-37.49-83.74-83.74c0-32.52,20.49-55.08,23.75-58.43
			c3-3.08,26.16-26.13,59.99-25.31C775.03,27.01,819.45,60,819.45,109.8z"/>
		<path class="st5" d="M675.71,51.37c0,0-54.9-20.04-39.07,20.3S758,176.01,796.3,176.52c38.3,0.51,37.53-21.37,19.36-41.75
			l-4.63,11.66c0,0,8.76,13.79-7.75,12.83s-109.96-31.08-143.15-91.34c0,0-9.66-17.01,9.6-9.4L675.71,51.37z"/>
	</g>
	<g class="st3">
		<path class="st4" d="M149.61,170.1c0,19.62,15.9,35.52,35.52,35.52s35.52-15.9,35.52-35.52c0-13.79-8.69-23.36-10.07-24.78
			c-1.27-1.31-11.1-11.08-25.44-10.74C168.45,134.99,149.61,148.98,149.61,170.1z"/>
		<path class="st6" d="M210.57,145.32c0,0,23.29-8.5,16.57,8.61s-51.47,44.25-67.72,44.47s-15.92-9.06-8.21-17.71l1.97,4.95
			c0,0-3.72,5.85,3.29,5.44s46.64-13.18,60.71-38.74c0,0,4.1-7.22-4.07-3.99L210.57,145.32z"/>
	</g>
	<g class="st3">
		<path class="st5" d="M142.34,542.42c0,49.5-40.12,89.62-89.62,89.62c-49.49,0-89.61-40.12-89.61-89.62
			c0-26.13,11.18-49.65,29.03-66.02c12.29-11.29,27.75-19.19,44.89-22.22c5.09-0.9,10.34-1.37,15.69-1.37
			c18.96,0,36.55,5.89,51.03,15.94c10.14,7.03,18.77,16.11,25.26,26.64C137.47,509.06,142.34,525.17,142.34,542.42z"/>
		<ellipse class="st7" cx="47.36" cy="491.34" rx="13.45" ry="12.26"/>
		<path class="st8" d="M39,463.17c0,12.93-11.5,23.4-25.68,23.4c-8.79,0-16.56-4.03-21.18-10.17
			c12.29-11.29,27.75-19.19,44.89-22.22C38.3,456.94,39,459.98,39,463.17z"/>
		<ellipse class="st7" cx="83.11" cy="593.81" rx="13.45" ry="12.26"/>
		<ellipse class="st9" cx="79.36" cy="542.57" rx="20.6" ry="17.87"/>
		<ellipse class="st9" cx="13.32" cy="582.4" rx="20.6" ry="17.87"/>
		<path class="st10" d="M129.01,495.39c-2.58,1.01-5.44,1.57-8.46,1.57c-11.37,0-20.59-8-20.59-17.87c0-3.85,1.4-7.42,3.79-10.34
			C113.89,475.78,122.52,484.86,129.01,495.39z"/>
	</g>
	<g class="st3">
		<path class="st11" d="M756.15,496.96c0,14.03-11.37,25.39-25.39,25.39c-14.02,0-25.39-11.37-25.39-25.39
			c0-7.4,3.17-14.07,8.23-18.71c3.48-3.2,7.86-5.44,12.72-6.3c1.44-0.26,2.93-0.39,4.45-0.39c5.37,0,10.36,1.67,14.46,4.52
			c2.87,1.99,5.32,4.56,7.16,7.55C754.77,487.51,756.15,492.07,756.15,496.96z"/>
		<ellipse class="st12" cx="729.24" cy="482.48" rx="3.81" ry="3.47"/>
		<path class="st13" d="M726.87,474.5c0,3.66-3.26,6.63-7.28,6.63c-2.49,0-4.69-1.14-6-2.88c3.48-3.2,7.86-5.44,12.72-6.3
			C726.67,472.74,726.87,473.6,726.87,474.5z"/>
		<ellipse class="st12" cx="739.36" cy="511.52" rx="3.81" ry="3.47"/>
		<ellipse class="st14" cx="738.3" cy="497" rx="5.84" ry="5.06"/>
		<ellipse class="st14" cx="719.59" cy="508.29" rx="5.84" ry="5.06"/>
		<path class="st15" d="M752.37,483.63c-0.73,0.29-1.54,0.44-2.4,0.44c-3.22,0-5.83-2.27-5.83-5.06c0-1.09,0.4-2.1,1.07-2.93
			C748.09,478.08,750.53,480.65,752.37,483.63z"/>
	</g>
</g>
<g id="Layer_5" class="st0">
	<polygon class="st16" points="38.29,23.19 39.84,28.52 45.1,30.25 40.52,33.37 40.5,38.92 36.11,35.52 30.83,37.21 32.71,31.99 
		29.47,27.49 35.01,27.66 	"/>
	<polygon class="st16" points="204.44,400.52 205.99,405.84 211.25,407.58 206.67,410.7 206.64,416.24 202.26,412.85 196.98,414.54 
		198.85,409.32 195.62,404.82 201.16,404.99 	"/>
	<polygon class="st16" points="132.32,229.97 133.87,235.29 139.13,237.03 134.55,240.15 134.52,245.69 130.14,242.3 124.86,243.98 
		126.73,238.77 123.5,234.27 129.04,234.44 	"/>
	<polygon class="st16" points="569.91,51.39 571.46,56.72 576.73,58.45 572.15,61.57 572.12,67.12 567.74,63.72 562.46,65.41 
		564.33,60.19 561.09,55.69 566.63,55.86 	"/>
	<polygon class="st16" points="89.41,104.52 90.45,108.09 93.97,109.25 90.9,111.34 90.89,115.05 87.95,112.78 84.41,113.91 
		85.67,110.42 83.5,107.4 87.21,107.52 	"/>
	<polygon class="st16" points="38.29,274.2 39.84,279.53 45.1,281.26 40.52,284.38 40.5,289.93 36.11,286.53 30.83,288.22 
		32.71,283 29.47,278.5 35.01,278.67 	"/>
	<polygon class="st16" points="668.03,585.95 669.58,591.27 674.84,593.01 670.26,596.13 670.23,601.67 665.85,598.28 
		660.57,599.96 662.44,594.75 659.21,590.25 664.75,590.42 	"/>
	<polygon class="st16" points="468.59,462.51 470.14,467.84 475.41,469.57 470.83,472.69 470.8,478.24 466.42,474.84 461.14,476.53 
		463.01,471.31 459.77,466.81 465.31,466.98 	"/>
	<polygon class="st16" points="801.26,534.71 802.81,540.03 808.07,541.77 803.49,544.89 803.46,550.43 799.08,547.04 793.8,548.73 
		795.68,543.51 792.44,539.01 797.98,539.18 	"/>
	<polygon class="st16" points="785.63,358.43 787.18,363.75 792.44,365.49 787.86,368.61 787.83,374.15 783.45,370.76 
		778.17,372.44 780.04,367.23 776.81,362.73 782.35,362.89 	"/>
	<polygon class="st16" points="642.59,219.96 644.14,225.28 649.4,227.02 644.82,230.14 644.8,235.68 640.41,232.29 635.13,233.97 
		637.01,228.76 633.77,224.26 639.31,224.43 	"/>
	<polygon class="st16" points="308.14,126.71 309.69,132.03 314.95,133.77 310.37,136.89 310.34,142.43 305.96,139.04 
		300.68,140.73 302.55,135.51 299.32,131.01 304.86,131.18 	"/>
	<polygon class="st16" points="767.84,256.54 771.28,260.89 776.81,260.52 773.74,265.13 775.79,270.28 770.46,268.78 766.2,272.33 
		765.97,266.79 761.29,263.84 766.48,261.91 	"/>
	<polygon class="st16" points="261.35,497.03 263.54,499.8 267.07,499.57 265.11,502.51 266.42,505.8 263.02,504.84 260.3,507.1 
		260.15,503.57 257.16,501.69 260.48,500.46 	"/>
	<polygon class="st16" points="355.27,548.07 357.46,550.84 360.99,550.61 359.03,553.55 360.34,556.83 356.94,555.88 
		354.22,558.14 354.08,554.61 351.08,552.72 354.4,551.49 	"/>
	<polygon class="st16" points="465.86,116.39 465.1,119.94 467.59,122.57 463.98,122.95 462.24,126.13 460.77,122.81 457.21,122.14 
		459.91,119.72 459.44,116.12 462.58,117.94 	"/>
	<polygon class="st16" points="580.19,529.98 579.43,533.52 581.92,536.16 578.31,536.53 576.57,539.72 575.1,536.4 571.54,535.73 
		574.24,533.31 573.77,529.71 576.91,531.53 	"/>
	<polygon class="st16" points="650.37,417.5 649.61,421.04 652.1,423.68 648.49,424.05 646.75,427.24 645.28,423.92 641.72,423.25 
		644.42,420.83 643.95,417.23 647.09,419.05 	"/>
	<polygon class="st16" points="284.84,292.37 284.08,295.92 286.57,298.55 282.96,298.93 281.23,302.11 279.76,298.79 
		276.19,298.12 278.89,295.7 278.43,292.1 281.56,293.92 	"/>
	<polygon class="st16" points="411.16,41.65 410.4,45.2 412.89,47.84 409.28,48.21 407.55,51.39 406.08,48.08 402.51,47.41 
		405.21,44.99 404.75,41.39 407.88,43.21 	"/>
	<polygon class="st16" points="820.15,21.3 819.39,24.84 821.88,27.48 818.27,27.85 816.53,31.04 815.06,27.72 811.5,27.05 
		814.2,24.63 813.73,21.03 816.87,22.85 	"/>
	<polygon class="st16" points="237.01,41.65 236.25,45.2 238.74,47.84 235.14,48.21 233.4,51.39 231.93,48.08 228.36,47.41 
		231.06,44.99 230.6,41.39 233.74,43.21 	"/>
	<polygon class="st16" points="164.63,577.96 163.91,581.29 166.25,583.76 162.87,584.11 161.23,587.1 159.85,583.99 156.51,583.36 
		159.04,581.09 158.61,577.71 161.55,579.42 	"/>
	<polygon class="st16" points="55.48,357.88 54.88,360.71 56.86,362.81 53.99,363.11 52.6,365.65 51.43,363.01 48.59,362.47 
		50.74,360.54 50.37,357.67 52.87,359.12 	"/>
</g>
<g id="Layer_2">
	<ellipse class="st17" cx="430.45" cy="282.57" rx="123.32" ry="132"/>
	<g>
		<g>
			<g>
				<path class="st18" d="M371.88,381.91c-2.23-6.93-4.86-13.76-6.6-20.8c-2.39-9.65-4.17-19.45-6.04-29.22
					c-0.32-1.65,0.22-3.47,0.36-5.21c-6.71,0.08-10.04-3.77-10.44-13.04c-0.82-18.99,4.16-36.2,17.48-50.16
					c6.48-6.79,8.38-15.34,11.48-23.58c5.06-13.47,10.55-26.77,15.85-40.15c2.68-3.3,5.36-6.61,8.05-9.91
					c7.29-7.17,15.41-11.77,26.27-11.25c9.67,0.46,16.35,5.96,23.36,11.32c1.97,3.25,3.94,6.5,5.9,9.75
					c4.68,12.22,9.08,24.56,14.16,36.62c2.76,6.55,6.6,12.64,10.08,18.87c1.47,2.63,3.76,2.51,5.77,0.73
					c6.02-5.33,12.08-10.62,17.8-16.26c3.86-3.8,6.99-8.33,10.79-12.21c4.6-4.69,11.84-5.4,15-1.4c4.33,5.48,6.83,13.34,0.94,18.19
					c-7.43,6.13-15.13,11.95-22.42,18.23c-5.19,4.47-10.21,9.22-14.75,14.34c-4.56,5.14-1.39,11.29-1.16,17.07
					c0.45,11.47,0.61,22.94,0.84,34.42c0.07,3.48-0.09,6.96-0.07,10.45c0.08,14.36-1.57,28.49-5.51,42.33
					c-0.36,1.25-0.42,2.59-0.61,3.88c-15.19,1.99-30.37,3.97-45.56,5.96c-2.51-2.62-4.93-5.33-7.54-7.85
					c-5.04-4.86-10.79-3.26-14.44,3.8c-0.79,1.52-2.01,2.82-3.03,4.22c-1.42-0.38-2.82-0.84-4.26-1.12
					C399.69,387.23,385.79,384.58,371.88,381.91z M427.8,258.2c0.31-0.21,0.63-0.42,0.94-0.63c1.03-0.12,2.06-0.24,3.09-0.36
					c0.3-0.21,0.61-0.42,0.91-0.63c0.34-0.11,0.68-0.22,1.02-0.33c0.36-0.01,0.72-0.02,1.09-0.03c0.29-0.21,0.59-0.42,0.88-0.64
					c0.34-0.11,0.68-0.23,1.02-0.34c0.34-0.01,0.69-0.02,1.03-0.03l0.46,0.06l0.45-0.09c1.17,2.71,2.43,4.9,6.11,3.23
					c3.77-1.71,3.49-4.09,1.78-7.01c0.73-0.97,1.45-1.93,2.18-2.9c1.03-0.68,2.06-1.36,3.1-2.04c-0.19-0.26-0.37-0.52-0.56-0.78
					c-0.86,0.64-1.72,1.29-2.59,1.93c-0.36,0.26-0.73,0.52-1.09,0.78c-1.32,0.99-2.64,1.98-3.95,2.97
					c-0.64,0.08-1.28,0.15-1.92,0.23c-0.37,0.26-0.74,0.52-1.11,0.78c-0.31,0.02-0.6,0.09-0.88,0.22c-0.37,0.26-0.73,0.52-1.1,0.78
					c-0.63,0.09-1.25,0.17-1.88,0.26c-0.35,0.24-0.71,0.48-1.06,0.71c-0.32,0.04-0.64,0.12-0.94,0.25c-0.33,0.01-0.67,0.02-1,0.03
					c-0.35,0.24-0.7,0.48-1.06,0.71c-0.32,0.04-0.64,0.12-0.93,0.25c-0.33,0.01-0.66,0.01-0.99,0.02c-0.36,0.24-0.71,0.48-1.07,0.71
					c-0.64,0.09-1.28,0.17-1.92,0.26c-0.33,0.01-0.66,0.02-0.99,0.04c-0.33,0.02-0.66,0.05-1,0.07c-0.3,0.18-0.61,0.36-0.91,0.54
					c-0.37,0.12-0.74,0.23-1.1,0.35c-0.99,0.01-1.98,0.01-2.97,0.02c-1.35,0.03-2.69,0.07-4.04,0.1c-0.53,0.23-1.06,0.45-1.59,0.68
					c2.51,0.06,5.03,0.12,7.55,0.17c0.35-0.11,0.71-0.21,1.06-0.32c0.99-0.01,1.99-0.01,2.98-0.02
					C427.13,258.22,427.47,258.21,427.8,258.2z M428.33,287.86c-12.91-8.54-25.99-8.15-34.93,4.58c-5.93,8.45-9.38,17.37-4.91,28.2
					c7.52,18.2,21.44,30.2,37.27,40.53c1.26,0.82,3.99,0.55,5.42-0.28c4.13-2.37,8.1-5.08,11.85-8.03
					c10.1-7.94,18.67-17.23,24.28-28.95c7.49-15.64-0.53-36.02-16.17-40.81C442.74,280.52,435.23,283.19,428.33,287.86z
					 M408.89,216.97c-1.68,8.19,9.03,18.87,17.74,18.59c9.12-0.29,17.94-8.77,18.07-18.02c0.15-10.55-7.38-18.26-17.18-19
					C417.52,197.8,407.58,207.64,408.89,216.97z"/>
				<path class="st19" d="M371.88,381.91c13.9,2.67,27.81,5.32,41.7,8.01c1.44,0.28,2.84,0.74,4.26,1.12
					c-1.75,4.58-4.95,6.18-9.69,4.79c-1.03-0.3-2.35-0.68-3.23-0.31c-9.46,4-13.53,3.16-19.35-4.25
					C376.59,393.63,373.95,391.83,371.88,381.91z"/>
				<path class="st19" d="M442.86,390.86c15.19-1.99,30.37-3.97,45.56-5.96c-2.17,4.54-4.11,9.35-10.82,7.19
					c-0.67-0.22-1.89,0.44-2.53,1.05c-7.11,6.76-10.33,7.09-19.54,2.36c-1.49-0.76-3.67-0.1-5.27-0.73
					C447.69,393.75,445.32,392.19,442.86,390.86z"/>
				<path class="st19" d="M402.02,189.83c-2.68,3.3-5.36,6.61-8.05,9.91c-3.16-2.55-6.61-6.1-4.26-9.76
					C392.9,185.02,397.84,188.3,402.02,189.83z"/>
				<path class="st19" d="M457.56,199.64c-1.97-3.25-3.94-6.5-5.9-9.75c1.52-0.99,2.92-2.3,4.58-2.87c1.5-0.51,4.05-0.9,4.75-0.11
					c1.08,1.21,1.76,3.77,1.21,5.24C461.19,194.85,459.17,197.17,457.56,199.64z"/>
				<path class="st20" d="M428.33,287.86c6.9-4.68,14.41-7.34,22.81-4.77c15.64,4.79,23.66,25.17,16.17,40.81
					c-5.61,11.72-14.18,21.02-24.28,28.95c-3.75,2.94-7.72,5.66-11.85,8.03c-1.44,0.83-4.17,1.1-5.42,0.28
					c-15.82-10.33-29.74-22.33-37.27-40.53c-4.47-10.82-1.02-19.75,4.91-28.2C402.34,279.71,415.42,279.32,428.33,287.86z"/>
				<path class="st21" d="M408.89,216.97c-1.32-9.33,8.63-19.18,18.63-18.43c9.8,0.74,17.33,8.45,17.18,19
					c-0.13,9.25-8.95,17.73-18.07,18.02C417.93,235.84,407.21,225.17,408.89,216.97z M428.79,204.45c-0.99,0-1.98,0.01-2.97,0.01
					c-0.38,0.37-0.76,0.73-1.13,1.1c-2.82,1.39-6.73,2.07-8.22,4.33c-2.65,4.03-2.58,10.34,1,13.91c5.91,5.91,9.13,6.76,15.18,3.84
					c3.99-1.92,6.56-8.74,6.11-12.35c-0.68-5.45-3.62-8.67-8.82-9.73C429.54,205.19,429.17,204.82,428.79,204.45z"/>
				<path class="st21" d="M446.59,251.41c1.71,2.92,1.99,5.31-1.78,7.01c-3.68,1.67-4.94-0.52-6.11-3.23
					c0.09-0.21,0.15-0.43,0.17-0.66c0.28-0.07,0.55-0.15,0.82-0.25c0.39-0.25,0.78-0.5,1.17-0.75c0.29-0.05,0.58-0.13,0.85-0.25
					c0.38-0.26,0.76-0.51,1.14-0.77c0.3-0.02,0.59-0.09,0.87-0.22l0.45,0.15l0.46-0.12c0.39-0.25,0.78-0.5,1.18-0.74
					C446.06,251.48,446.32,251.42,446.59,251.41z"/>
				<path class="st22" d="M422.74,258.57c-2.51-0.06-5.03-0.12-7.54-0.18c0.56-0.07,1.12-0.15,1.68-0.22c1.33,0.02,2.66,0.05,4,0.07
					C421.49,258.35,422.12,258.46,422.74,258.57z"/>
				<path class="st23" d="M446.59,251.41c-0.27,0.01-0.52,0.06-0.78,0.15c-0.33-0.02-0.66-0.05-0.99-0.07
					c-0.35-0.01-0.7-0.01-1.06-0.02l-0.09-0.09c1.32-0.99,2.64-1.98,3.96-2.97c0.35,0,0.69,0,1.04,0c0,0,0.1,0.1,0.1,0.1
					C448.04,249.48,447.31,250.45,446.59,251.41z"/>
				<path class="st23" d="M448.72,247.64c0.86-0.64,1.72-1.29,2.59-1.93c0.19,0.26,0.37,0.52,0.56,0.78
					c-1.03,0.68-2.06,1.36-3.1,2.04c0,0-0.1-0.1-0.1-0.1C448.7,248.16,448.72,247.9,448.72,247.64z"/>
				<path class="st23" d="M427.81,256.61c0.64-0.09,1.28-0.17,1.92-0.26c0.35,0.02,0.7,0.04,1.05,0.07l0.49,0.01l0.49-0.01
					l0.05,0.05c-0.01,0.25,0,0.5,0.02,0.75c-1.03,0.12-2.06,0.24-3.09,0.36c-0.3-0.1-0.6-0.17-0.91-0.19
					C427.81,257.12,427.8,256.87,427.81,256.61z"/>
				<path class="st24" d="M420.87,258.24c-1.33-0.02-2.66-0.05-4-0.07c0,0-0.09-0.46-0.09-0.46c1.35-0.03,2.69-0.07,4.04-0.1
					C420.85,257.82,420.86,258.03,420.87,258.24z"/>
				<path class="st23" d="M420.87,258.24c-0.01-0.21-0.02-0.42-0.04-0.63c0.99-0.01,1.98-0.01,2.97-0.02c0.01,0.22,0.01,0.43,0,0.65
					c-0.35,0.11-0.71,0.21-1.06,0.32C422.12,258.46,421.49,258.35,420.87,258.24z"/>
				<path class="st25" d="M423.8,258.25c0.01-0.22,0.01-0.43,0-0.65c0.37-0.11,0.74-0.23,1.1-0.34c0,0,0.44,0.11,0.44,0.11
					l0.45-0.01c0.33,0.02,0.66,0.04,0.99,0.06c0,0,0.02,0.02,0.02,0.02c-0.01,0.26-0.02,0.53-0.03,0.79
					C425.79,258.23,424.8,258.24,423.8,258.25z"/>
				<path class="st23" d="M439.69,254.28c-0.27,0.1-0.54,0.19-0.82,0.25c-0.34,0-0.69,0.01-1.03,0.01
					c-0.36-0.04-0.72-0.07-1.08-0.11l0,0c0.01-0.26,0.02-0.52,0.02-0.78c0.63-0.09,1.25-0.17,1.88-0.26
					c0.36,0.01,0.72,0.02,1.08,0.04l0.01,0.01C439.76,253.73,439.74,254,439.69,254.28z"/>
				<path class="st23" d="M443.72,252.29c-0.28,0.13-0.56,0.2-0.87,0.22c-0.37-0.02-0.74-0.04-1.11-0.06l0,0
					c0-0.28,0-0.55,0.01-0.83c0.64-0.08,1.28-0.15,1.92-0.23c0,0,0.09,0.09,0.09,0.09C443.74,251.74,443.72,252.01,443.72,252.29z"
					/>
				<path class="st23" d="M431.79,255.62c0.3-0.13,0.61-0.22,0.93-0.25c0.35,0.02,0.69,0.05,1.04,0.07c0.01,0.28,0.01,0.55,0,0.83
					c-0.34,0.11-0.68,0.22-1.01,0.33c-0.3-0.1-0.61-0.14-0.93-0.13c0,0-0.05-0.05-0.05-0.05
					C431.78,256.15,431.79,255.88,431.79,255.62z"/>
				<path class="st26" d="M416.79,257.71c0,0,0.09,0.47,0.09,0.46c-0.56,0.07-1.12,0.14-1.68,0.22
					C415.73,258.17,416.26,257.94,416.79,257.71z"/>
				<path class="st23" d="M434.78,254.61c0.3-0.13,0.61-0.21,0.94-0.25c0.35,0.02,0.7,0.05,1.04,0.07c0,0,0,0,0,0
					c0,0.27,0,0.55,0,0.82c-0.34,0.11-0.68,0.23-1.02,0.34c-0.3-0.1-0.6-0.11-0.91-0.06C434.79,255.23,434.78,254.92,434.78,254.61z
					"/>
				<path class="st25" d="M434.78,254.61c0,0.31,0.01,0.62,0.04,0.92c-0.01,0.23,0,0.46,0.03,0.69c-0.36,0.01-0.72,0.02-1.09,0.03
					c0.01-0.28,0.01-0.55,0-0.83c0.01-0.26,0.02-0.52,0.02-0.78C434.12,254.64,434.45,254.63,434.78,254.61z"/>
				<path class="st23" d="M441.71,253.28c-0.27,0.11-0.56,0.2-0.85,0.25c-0.37-0.03-0.74-0.05-1.11-0.08c0,0-0.01-0.01-0.01-0.01
					c0.01-0.27,0.01-0.54,0.02-0.81c0.28-0.13,0.57-0.21,0.88-0.22c0.37,0.02,0.73,0.03,1.1,0.05c0,0,0,0,0,0
					C441.75,252.72,441.74,253,441.71,253.28z"/>
				<path class="st25" d="M448.72,247.64c0,0.26-0.02,0.52-0.05,0.78c-0.35,0-0.69,0-1.04,0
					C447.99,248.16,448.36,247.9,448.72,247.64z"/>
				<path class="st25" d="M441.74,252.44c-0.37-0.02-0.73-0.03-1.1-0.05c0.37-0.26,0.74-0.52,1.11-0.78
					C441.74,251.89,441.74,252.17,441.74,252.44z"/>
				<path class="st22" d="M437.84,254.54c0.34,0,0.69-0.01,1.03-0.01c-0.02,0.23-0.08,0.45-0.17,0.66c0,0-0.45,0.09-0.45,0.09
					s-0.46-0.06-0.46-0.06C437.78,255,437.8,254.77,437.84,254.54z"/>
				<path class="st27" d="M430.78,256.41c-0.35-0.02-0.7-0.04-1.05-0.07c0.36-0.24,0.71-0.48,1.07-0.72
					C430.79,255.89,430.78,256.15,430.78,256.41z"/>
				<path class="st25" d="M430.78,256.41c0-0.26,0.01-0.52,0.02-0.78c0.33-0.01,0.66-0.01,0.99-0.02c0,0.27-0.01,0.53-0.02,0.8
					c0,0-0.49,0.01-0.49,0.01L430.78,256.41z"/>
				<path class="st26" d="M434.85,256.23c-0.03-0.23-0.04-0.46-0.03-0.69c0.31-0.06,0.61-0.04,0.91,0.06
					C435.44,255.81,435.14,256.02,434.85,256.23z"/>
				<path class="st27" d="M433.78,254.65c0,0.26-0.01,0.52-0.02,0.78c-0.35-0.02-0.69-0.04-1.04-0.07
					C433.08,255.12,433.43,254.89,433.78,254.65z"/>
				<path class="st22" d="M425.8,257.35l-0.45,0.01c0,0-0.44-0.11-0.44-0.11c0.31-0.18,0.61-0.36,0.92-0.54
					C425.83,256.92,425.82,257.14,425.8,257.35z"/>
				<path class="st27" d="M425.8,257.35c0.03-0.21,0.04-0.42,0.03-0.63c0.33-0.02,0.66-0.05,1-0.07c-0.01,0.26-0.02,0.51-0.03,0.77
					C426.46,257.39,426.13,257.37,425.8,257.35z"/>
				<path class="st25" d="M426.79,257.41c0.01-0.26,0.02-0.51,0.03-0.77c0.33-0.01,0.66-0.02,0.99-0.04c0,0.26,0,0.52,0.03,0.77
					l-0.02,0.09c-0.33-0.01-0.67-0.03-1-0.04L426.79,257.41z"/>
				<path class="st26" d="M431.82,256.46c0.32-0.01,0.63,0.03,0.93,0.13c-0.31,0.21-0.61,0.42-0.91,0.63
					C431.81,256.97,431.8,256.72,431.82,256.46z"/>
				<path class="st27" d="M436.76,254.44c-0.35-0.02-0.7-0.05-1.04-0.07c0.35-0.24,0.71-0.48,1.06-0.71
					C436.78,253.91,436.78,254.18,436.76,254.44z"/>
				<path class="st24" d="M437.84,254.54c-0.04,0.23-0.06,0.45-0.05,0.68c-0.34,0.01-0.69,0.02-1.03,0.03c0-0.27,0-0.55,0-0.82
					C437.12,254.47,437.48,254.51,437.84,254.54z"/>
				<path class="st26" d="M427.84,257.38c0.31,0.03,0.62,0.09,0.91,0.19c-0.32,0.21-0.63,0.42-0.95,0.63c0-0.24,0.01-0.48,0.01-0.73
					L427.84,257.38z"/>
				<path class="st25" d="M439.76,252.62c-0.01,0.27-0.01,0.54-0.02,0.81c-0.36-0.01-0.72-0.02-1.08-0.04
					C439.03,253.14,439.39,252.88,439.76,252.62z"/>
				<path class="st24" d="M427.81,257.48c0,0.24-0.01,0.49-0.01,0.73c-0.34,0.01-0.68,0.02-1.01,0.03c0.01-0.26,0.01-0.53,0.03-0.79
					C427.15,257.45,427.48,257.46,427.81,257.48z"/>
				<path class="st23" d="M429.92,205.56c5.21,1.06,8.14,4.28,8.82,9.73c0.45,3.62-2.12,10.43-6.11,12.35
					c-6.05,2.92-9.27,2.07-15.18-3.84c-3.57-3.58-3.65-9.88-1-13.91c1.49-2.27,5.4-2.94,8.22-4.33c0.37,0.02,0.73,0.04,1.1,0.06
					c1.01,0,2.02,0,3.03,0C429.18,205.6,429.55,205.58,429.92,205.56z"/>
				<path class="st28" d="M425.82,204.47c0.99,0,1.98-0.01,2.97-0.01c0,0,0.04,0.42,0.04,0.42c-1.02,0-2.04,0-3.07,0l-0.12-0.23
					L425.82,204.47z"/>
				<path class="st24" d="M425.79,205.62c-0.37-0.02-0.73-0.04-1.1-0.06c0.38-0.37,0.76-0.73,1.13-1.1c0,0-0.17,0.19-0.17,0.19
					s0.12,0.23,0.12,0.23C425.8,205.13,425.81,205.37,425.79,205.62z"/>
				<path class="st27" d="M429.92,205.56c-0.37,0.02-0.73,0.04-1.1,0.06c-0.02-0.25-0.02-0.49,0.01-0.74c0,0-0.04-0.42-0.04-0.42
					C429.17,204.82,429.54,205.19,429.92,205.56z"/>
				<path class="st25" d="M443.72,252.29c0-0.27,0.01-0.54,0.04-0.81c0.35,0.01,0.71,0.01,1.06,0.02c-0.06,0.27-0.12,0.54-0.18,0.82
					l-0.46,0.12L443.72,252.29z"/>
				<path class="st26" d="M439.75,253.44c0.37,0.03,0.74,0.05,1.11,0.08c-0.39,0.25-0.78,0.5-1.17,0.76
					C439.74,254,439.76,253.73,439.75,253.44z"/>
				<path class="st24" d="M441.71,253.28c0.02-0.28,0.03-0.55,0.03-0.83c0.37,0.02,0.74,0.04,1.11,0.06
					C442.47,252.76,442.09,253.02,441.71,253.28z"/>
				<path class="st29" d="M444.63,252.31c0.06-0.27,0.13-0.54,0.18-0.82c0.33,0.02,0.66,0.05,0.99,0.07
					C445.42,251.81,445.03,252.06,444.63,252.31z"/>
				<path class="st25" d="M428.83,204.88c-0.03,0.25-0.03,0.49-0.01,0.74c-1.01,0-2.02,0-3.03,0c0.02-0.25,0.01-0.5-0.03-0.74
					C426.78,204.88,427.81,204.88,428.83,204.88z"/>
			</g>
			<circle class="st21" cx="426.77" cy="216.62" r="19.06"/>
			<circle class="st23" cx="426.77" cy="216.62" r="12.6"/>
			<g>
				<path class="st23" d="M416.3,258.23c9.41-1.24,18.8-3.2,27.37-7.34c2.86-1.34,5.5-3.05,8.2-4.84
					C443.26,255.9,428.99,259.63,416.3,258.23L416.3,258.23z"/>
			</g>
			<ellipse class="st18" cx="426.77" cy="319.31" rx="49.87" ry="46.98"/>
		</g>
		<g>
			<polygon class="st20" points="428.77,277.11 442.8,304.54 474.18,308.94 451.48,330.3 456.84,360.45 428.77,346.21 400.7,360.45 
				406.06,330.3 383.35,308.94 414.73,304.54 			"/>
			<g>
				<path class="st20" d="M427.33,277.95c2.49,4.86,4.98,9.73,7.47,14.59c1.64,3.21,3.29,6.43,4.93,9.64
					c0.55,1.08,1.13,3.09,2.23,3.79c1.13,0.72,3.32,0.58,4.59,0.75c3.51,0.49,7.02,0.98,10.52,1.47c5.56,0.78,11.11,1.56,16.67,2.34
					c-0.24-0.93-0.49-1.85-0.73-2.78c-3.91,3.67-7.81,7.34-11.72,11.02c-2.61,2.46-5.23,4.92-7.84,7.37c-0.97,0.91-3,2.18-3.49,3.5
					c-0.45,1.21,0.3,3.23,0.51,4.42c0.61,3.42,1.22,6.85,1.83,10.27c0.98,5.52,1.96,11.03,2.94,16.55c0.81-0.63,1.63-1.25,2.44-1.88
					c-4.97-2.52-9.94-5.04-14.91-7.56c-3.24-1.64-6.47-3.28-9.71-4.92c-1.13-0.57-2.93-1.98-4.29-1.98c-1.27,0-2.93,1.29-3.99,1.82
					c-3.34,1.69-6.67,3.38-10.01,5.08c-4.97,2.52-9.94,5.04-14.91,7.56c0.81,0.63,1.63,1.25,2.44,1.88
					c0.95-5.35,1.9-10.71,2.86-16.06c0.62-3.48,1.24-6.96,1.86-10.44c0.23-1.27,1.04-3.45,0.57-4.74c-0.46-1.23-2.34-2.41-3.24-3.26
					c-2.58-2.42-5.16-4.85-7.73-7.27c-4.03-3.79-8.05-7.57-12.08-11.36c-0.24,0.93-0.49,1.85-0.73,2.78
					c5.39-0.76,10.79-1.51,16.18-2.27c3.67-0.51,7.34-1.03,11.01-1.54c1.21-0.17,3.51-0.03,4.59-0.75c1.11-0.75,1.66-2.67,2.23-3.79
					c1.57-3.07,3.14-6.14,4.71-9.21c2.56-5.01,5.13-10.02,7.69-15.03c0.97-1.9-1.9-3.59-2.87-1.68c-2.34,4.57-4.68,9.14-7.02,13.72
					c-1.58,3.09-3.16,6.18-4.74,9.26c-0.52,1.03-1.28,2.13-1.65,3.22c-0.49,1.46-1.17,0.83,0.33,0.47
					c-10.1,2.45-21.04,2.95-31.34,4.39c-1.26,0.18-1.57,2-0.73,2.78c3.66,3.45,7.33,6.89,10.99,10.34c2.58,2.43,5.17,4.86,7.75,7.29
					c0.96,0.9,2.65,3.29,3.94,3.7c-1.23-0.4,0.23-2.36-0.61-0.39c-0.38,0.89-0.39,2.2-0.56,3.15c-0.64,3.58-1.27,7.15-1.91,10.73
					c-0.89,5.03-1.79,10.05-2.68,15.08c-0.26,1.44,1.09,2.57,2.44,1.88c4.68-2.37,9.36-4.75,14.04-7.12
					c3.1-1.57,6.21-3.15,9.31-4.72c1.06-0.54,2.33-1.01,3.31-1.68c0.57-0.39,2.18-0.7,0.57-0.7c-1.56,0-0.2,0.2,0.37,0.59
					c0.94,0.66,2.16,1.09,3.18,1.61c3.22,1.63,6.43,3.26,9.65,4.89c4.68,2.37,9.36,4.75,14.04,7.12c1.36,0.69,2.7-0.44,2.44-1.88
					c-0.89-5.03-1.79-10.05-2.68-15.08c-0.61-3.45-1.23-6.91-1.84-10.36c-0.19-1.06-0.25-2.29-0.59-3.31
					c-0.73-2.17,0.73-0.51-0.65,0.19c1.32-0.67,2.59-2.43,3.65-3.44c2.68-2.52,5.35-5.03,8.03-7.55c3.66-3.45,7.33-6.89,10.99-10.34
					c0.83-0.78,0.53-2.6-0.73-2.78c-5.07-0.71-10.13-1.42-15.2-2.13c-5.22-0.73-11.05-0.85-16.14-2.26
					c1.31,0.36,0.82,0.99,0.33-0.47c-0.33-0.99-1.01-1.98-1.48-2.9c-1.56-3.05-3.12-6.1-4.68-9.15c-2.41-4.72-4.83-9.44-7.24-14.15
					C429.23,274.37,426.35,276.05,427.33,277.95z"/>
			</g>
		</g>
	</g>
</g>
<g id="Layer_3">
	<g>
		<g>
			<path class="st30" d="M430.8,366.05c-134.52,0-243.57-42.53-243.57-42.53s109.05-21.19,243.57-21.19"/>
			<g>
				<path class="st30" d="M430.8,364.28c-25.09-0.01-50.16-1.47-75.1-4.21c-22.02-2.42-43.94-5.84-65.66-10.17
					c-17.55-3.49-34.98-7.57-52.24-12.26c-11.88-3.23-23.68-6.73-35.36-10.62c-3.36-1.12-6.71-2.27-10.05-3.47
					c-1.48-0.53-2.98-1.26-4.51-1.66c-0.06-0.02-0.12-0.05-0.18-0.07c0,1.13,0,2.27,0,3.4c3.95-0.77,7.92-1.44,11.89-2.12
					c10.94-1.85,21.92-3.51,32.91-5.04c16.73-2.33,33.51-4.35,50.31-6.09c21.37-2.22,42.78-3.98,64.22-5.28
					c24.62-1.49,49.29-2.38,73.96-2.56c3.27-0.02,6.55-0.04,9.82-0.04c2.27,0,2.27-3.53,0-3.53c-25.14,0-50.28,0.74-75.39,2.12
					c-21.96,1.21-43.9,2.91-65.79,5.08c-17.58,1.74-35.12,3.79-52.63,6.16c-11.81,1.6-23.61,3.34-35.37,5.29
					c-3.4,0.56-6.79,1.14-10.18,1.75c-1.49,0.27-3.03,0.45-4.5,0.83c-0.06,0.02-0.13,0.02-0.19,0.04c-1.88,0.37-1.45,2.84,0,3.4
					c3.93,1.53,7.94,2.9,11.94,4.26c10.91,3.7,21.94,7.05,33.04,10.15c16.78,4.69,33.72,8.79,50.78,12.34
					c21.25,4.42,42.69,7.96,64.23,10.59c24.74,3.02,49.64,4.81,74.57,5.18c3.16,0.05,6.32,0.07,9.49,0.07
					C433.07,367.81,433.08,364.28,430.8,364.28L430.8,364.28z"/>
			</g>
		</g>
		<g>
			<path class="st30" d="M430.8,366.05c134.52,0,243.57-42.53,243.57-42.53s-109.05-21.19-243.57-21.19"/>
			<g>
				<path class="st30" d="M430.8,367.81c25.23-0.01,50.45-1.49,75.53-4.26c22.01-2.43,43.91-5.83,65.63-10.14
					c17.68-3.51,35.25-7.61,52.65-12.33c11.87-3.22,23.67-6.73,35.34-10.6c4.93-1.64,9.88-3.28,14.71-5.18
					c0.06-0.02,0.12-0.05,0.18-0.07c1.45-0.57,1.89-3.04,0-3.4c-3.95-0.77-7.92-1.44-11.89-2.12c-11.03-1.86-22.09-3.53-33.17-5.08
					c-16.9-2.35-33.84-4.4-50.8-6.16c-21.35-2.22-42.75-3.98-64.18-5.29c-24.7-1.5-49.43-2.39-74.17-2.58
					c-3.27-0.02-6.55-0.04-9.82-0.04c-2.27,0-2.27,3.53,0,3.53c25.14,0,50.28,0.74,75.39,2.12c21.84,1.2,43.65,2.89,65.42,5.04
					c17.43,1.72,34.84,3.74,52.2,6.09c11.79,1.6,23.57,3.34,35.31,5.28c3.39,0.56,6.77,1.14,10.15,1.74
					c1.45,0.26,2.97,0.7,4.45,0.82c0.06,0.01,0.13,0.03,0.19,0.04c0-1.13,0-2.27,0-3.4c-3.89,1.52-7.85,2.87-11.8,4.21
					c-10.91,3.7-21.95,7.06-33.05,10.16c-16.65,4.66-33.46,8.73-50.38,12.26c-21.25,4.43-42.69,8.01-64.25,10.63
					c-24.6,2.99-49.36,4.77-74.14,5.13c-3.16,0.05-6.32,0.07-9.49,0.07C428.53,364.28,428.53,367.81,430.8,367.81L430.8,367.81z"/>
			</g>
		</g>
	</g>
	<path class="st31" d="M555.65,337.75c0,46.66-56.78,84.49-126.82,84.49s-126.82-37.83-126.82-84.49"/>
	<g>
		
			<ellipse transform="matrix(0.3848 -0.923 0.923 0.3848 -149.2672 433.5976)" class="st32" cx="250.65" cy="328.78" rx="7.94" ry="4.26"/>
		
			<ellipse transform="matrix(0.866 -0.5 0.5 0.866 -130.4062 150.8772)" class="st32" cx="216.34" cy="318.78" rx="7.94" ry="4.26"/>
		
			<ellipse transform="matrix(0.2502 -0.9682 0.9682 0.2502 -113.9336 524.0583)" class="st32" cx="281.38" cy="335.59" rx="7.94" ry="4.26"/>
		
			<ellipse transform="matrix(0.2502 -0.9682 0.9682 0.2502 -93.4602 565.6832)" class="st32" cx="318.49" cy="343.18" rx="7.94" ry="4.26"/>
		
			<ellipse transform="matrix(0.1408 -0.99 0.99 0.1408 -39.1575 651.9247)" class="st32" cx="356.04" cy="348.52" rx="7.94" ry="4.26"/>
		
			<ellipse transform="matrix(0.0896 -0.996 0.996 0.0896 7.9253 711.8041)" class="st32" cx="393.3" cy="351.57" rx="7.94" ry="4.26"/>
		
			<ellipse transform="matrix(0.923 -0.3848 0.3848 0.923 -79.8579 261.1797)" class="st32" cx="612.59" cy="330.1" rx="4.26" ry="7.94"/>
		<ellipse transform="matrix(0.5 -0.866 0.866 0.5 46.2359 720.2902)" class="st32" cx="646.91" cy="320.1" rx="4.26" ry="7.94"/>
		
			<ellipse transform="matrix(0.9682 -0.2502 0.2502 0.9682 -65.7879 156.2949)" class="st32" cx="581.86" cy="336.91" rx="4.26" ry="7.94"/>
		
			<ellipse transform="matrix(0.9682 -0.2502 0.2502 0.9682 -68.8682 147.2514)" class="st32" cx="544.75" cy="344.51" rx="4.26" ry="7.94"/>
		
			<ellipse transform="matrix(0.99 -0.1408 0.1408 0.99 -44.2175 74.9238)" class="st32" cx="507.21" cy="349.85" rx="4.26" ry="7.94"/>
		
			<ellipse transform="matrix(0.996 -0.0896 0.0896 0.996 -29.7167 43.5064)" class="st32" cx="469.94" cy="352.89" rx="4.26" ry="7.94"/>
		<ellipse class="st32" cx="429.35" cy="352.89" rx="4.26" ry="7.94"/>
	</g>
</g>
</svg>
