<?xml version="1.0" encoding="utf-8"?>
<!-- Generator: Adobe Illustrator 28.0.0, SVG Export Plug-In . SVG Version: 6.00 Build 0)  -->
<svg version="1.1" id="Layer_1" xmlns="http://www.w3.org/2000/svg" xmlns:xlink="http://www.w3.org/1999/xlink" x="0px" y="0px"
	 viewBox="0 0 213.64 234.09" style="enable-background:new 0 0 213.64 234.09;" xml:space="preserve">
<style type="text/css">
	.st0{fill:#6DBFB7;}
	.st1{fill:#BCB9DD;}
	.st2{fill:#B8DFDB;}
	.st3{fill:#F8F7F3;}
	.st4{fill:#67696F;}
	.st5{fill:#090A11;}
	.st6{fill:#35363E;}
	.st7{fill:#414042;}
	.st8{fill:#6D6E71;}
	.st9{fill:#58595B;}
	.st10{fill:#BCBEC0;}
	.st11{fill:#939598;}
	.st12{fill:#5EC4BB;}
	.st13{fill:#BCBADB;}
	.st14{fill:#BBBBDB;}
	.st15{fill:#BAB9D7;}
	.st16{fill:#BBB9D7;}
	.st17{fill:#B7B3B8;}
	.st18{fill:#B4B1BC;}
	.st19{fill:#A39FAC;}
	.st20{fill:#BFE5E3;}
	.st21{fill:#EEF3F4;}
	.st22{fill:#E8EFEF;}
	.st23{fill:#0A0A0A;}
	.st24{fill:#B8DFDB;stroke:#B8DFDB;stroke-width:0.2926;stroke-miterlimit:10;}
	.st25{fill:#5DC4BB;}
	.st26{fill:#BDBBDE;}
	.st27{fill:#0B0E14;}
	.st28{fill:#050D0B;}
	.st29{fill:#F1F6F6;}
	.st30{fill:#1E433F;}
	.st31{fill:#F47622;}
	.st32{fill:#F2F7F7;}
	.st33{fill:#010101;}
	.st34{fill:#E5E5DF;}
	.st35{fill:#EDF1EE;}
	.st36{fill:#F0F2EF;}
	.st37{fill:#F6AB77;}
	.st38{fill:#89A2A0;}
	.st39{fill:#071110;}
	.st40{fill:#EFF5F5;}
	.st41{fill:#152F2D;}
	.st42{fill:#030302;}
	.st43{fill:#676FB4;}
	.st44{fill:#BCB9DC;}
	.st45{fill:#F7934E;}
	.st46{fill:#FCCAA8;}
	.st47{fill:#6AB5AD;}
	.st48{fill:#99A5A4;}
	.st49{fill:#398B84;}
	.st50{fill:#030202;}
	.st51{fill:#040908;}
	.st52{fill:#F1F6F7;}
	.st53{fill:#ACD0CD;}
	.st54{fill:#EFF4F5;}
	.st55{fill:#91A4A3;}
	.st56{fill:#ABA7AE;}
	.st57{fill:#AEA9B1;}
	.st58{fill:#88A2A0;}
	.st59{fill:#A6A1AD;}
	.st60{fill:#C0E5E3;}
	.st61{fill:#595BA8;}
	.st62{fill:#5A5CA8;}
	.st63{fill:#BDBBDD;}
	.st64{fill:#BCBADD;}
	.st65{fill:#5C5EA8;}
	.st66{fill:#B7B5D9;}
	.st67{fill:#ADAEAE;}
	.st68{fill:#BAB7DC;}
	.st69{fill:#B6DBD7;}
	.st70{fill:#BBB9DC;}
	.st71{fill:#A3ABAB;}
	.st72{fill:#AAC2C0;}
	.st73{fill:#A4ACAC;}
	.st74{fill:#A9ACAC;}
	.st75{fill:#A8BEBD;}
	.st76{fill:#6C6AA8;}
	.st77{fill:#CBD8D7;}
	.st78{fill:#AECAC8;}
	.st79{fill:#B4C8C6;}
	.st80{fill:#7CA9A4;}
	.st81{fill:#C3C0C4;}
	.st82{fill:#89A19F;}
	.st83{fill:#B4D7D4;}
	.st84{fill:#AAA7B7;}
	.st85{fill:#A5ABAA;}
	.st86{fill:#7AA7A2;}
	.st87{fill:#ADB4B4;}
	.st88{fill:#D8D7D7;}
	.st89{fill:#A8B0B0;}
	.st90{fill:#C2C3C3;}
	.st91{fill:#ADBBBA;}
	.st92{fill:#0A1816;}
	.st93{fill:#061311;}
	.st94{fill:#051210;}
	.st95{fill:#BFE4E2;}
	.st96{fill:#1D3735;}
	.st97{fill:#BBB9DD;}
	.st98{fill:#F0F5F5;}
	.st99{fill:#2D6B65;}
	.st100{fill:none;stroke:#C0E5E3;stroke-width:1.698;stroke-miterlimit:10;}
	.st101{fill:#5EC3BC;}
	.st102{fill:#595DA9;}
	.st103{fill:#92CEC9;}
	.st104{fill:#050D0C;}
	.st105{fill:#132624;}
	.st106{fill:#E0F2F3;}
	.st107{fill:#B4BDBC;}
	.st108{fill:#ADA9B0;}
	.st109{fill:#7DA49F;}
	.st110{fill:#BFC4C3;}
	.st111{fill:#A5A1AF;}
	.st112{fill:#EBEAEA;}
	.st113{fill:#85A5A1;}
	.st114{fill:#C8DFDC;}
	.st115{fill:#AAA6B2;}
	.st116{fill:#ABA7B5;}
	.st117{fill:#DFF2F2;}
	.st118{fill:#050C0B;}
	.st119{fill:#DBF0F0;}
	.st120{fill:#1F4340;}
	.st121{fill:#60C5BC;}
	.st122{fill:none;stroke:#FFFFFF;stroke-width:2.1779;stroke-miterlimit:10;}
	.st123{fill:none;stroke:#FFFFFF;stroke-width:1.315;stroke-miterlimit:10;}
	.st124{fill:#D0DDDC;}
</style>
<g>
	<g>
		<g>
			<path class="st0" d="M37.05,211.33c-2.23-6.93-4.86-13.76-6.6-20.8c-2.39-9.65-4.17-19.45-6.04-29.22
				c-0.32-1.65,0.22-3.47,0.36-5.21c-6.71,0.08-10.04-3.77-10.44-13.04c-0.82-18.99,4.16-36.2,17.48-50.16
				c6.48-6.79,8.38-15.34,11.48-23.58c5.06-13.47,10.55-26.77,15.85-40.15c2.68-3.3,5.36-6.61,8.05-9.91
				c7.29-7.17,15.41-11.77,26.27-11.25c9.67,0.46,16.35,5.96,23.36,11.32c1.97,3.25,3.94,6.5,5.9,9.75
				c4.68,12.22,9.08,24.56,14.16,36.62c2.76,6.55,6.6,12.64,10.08,18.87c1.47,2.63,3.76,2.51,5.77,0.73
				c6.02-5.33,12.08-10.62,17.8-16.26c3.86-3.8,6.99-8.33,10.79-12.21c4.6-4.69,11.84-5.4,15-1.4c4.33,5.48,6.83,13.34,0.94,18.19
				c-7.43,6.13-15.13,11.95-22.42,18.23c-5.19,4.47-10.21,9.22-14.75,14.34c-4.56,5.14-1.39,11.29-1.16,17.07
				c0.45,11.47,0.61,22.94,0.84,34.42c0.07,3.48-0.09,6.96-0.07,10.45c0.08,14.36-1.57,28.49-5.51,42.33
				c-0.36,1.25-0.42,2.59-0.61,3.88c-15.19,1.99-30.37,3.97-45.56,5.96c-2.51-2.62-4.93-5.33-7.54-7.85
				c-5.04-4.86-10.79-3.26-14.44,3.8c-0.79,1.52-2.01,2.82-3.03,4.22c-1.42-0.38-2.82-0.84-4.26-1.12
				C64.86,216.65,50.95,213.99,37.05,211.33z M92.97,87.62c0.31-0.21,0.63-0.42,0.94-0.63c1.03-0.12,2.06-0.24,3.09-0.36
				c0.3-0.21,0.61-0.42,0.91-0.63c0.34-0.11,0.68-0.22,1.02-0.33c0.36-0.01,0.72-0.02,1.09-0.03c0.29-0.21,0.59-0.42,0.88-0.64
				c0.34-0.11,0.68-0.23,1.02-0.34c0.34-0.01,0.69-0.02,1.03-0.03l0.46,0.06l0.45-0.09c1.17,2.71,2.43,4.9,6.11,3.23
				c3.77-1.71,3.49-4.09,1.78-7.01c0.73-0.97,1.45-1.93,2.18-2.9c1.03-0.68,2.06-1.36,3.1-2.04c-0.19-0.26-0.37-0.52-0.56-0.78
				c-0.86,0.64-1.72,1.29-2.59,1.93c-0.36,0.26-0.73,0.52-1.09,0.78c-1.32,0.99-2.64,1.98-3.95,2.97c-0.64,0.08-1.28,0.15-1.92,0.23
				c-0.37,0.26-0.74,0.52-1.11,0.78c-0.31,0.02-0.6,0.09-0.88,0.22c-0.37,0.26-0.73,0.52-1.1,0.78c-0.63,0.09-1.25,0.17-1.88,0.26
				c-0.35,0.24-0.71,0.48-1.06,0.71c-0.32,0.04-0.64,0.12-0.94,0.25c-0.33,0.01-0.67,0.02-1,0.03c-0.35,0.24-0.7,0.48-1.06,0.71
				c-0.32,0.04-0.64,0.12-0.93,0.25c-0.33,0.01-0.66,0.01-0.99,0.02c-0.36,0.24-0.71,0.48-1.07,0.71c-0.64,0.09-1.28,0.17-1.92,0.26
				c-0.33,0.01-0.66,0.02-0.99,0.04c-0.33,0.02-0.66,0.05-1,0.07c-0.3,0.18-0.61,0.36-0.91,0.54c-0.37,0.12-0.74,0.23-1.1,0.35
				c-0.99,0.01-1.98,0.01-2.97,0.02c-1.35,0.03-2.69,0.07-4.04,0.1c-0.53,0.23-1.06,0.45-1.59,0.68c2.51,0.06,5.03,0.12,7.55,0.17
				c0.35-0.11,0.71-0.21,1.06-0.32c0.99-0.01,1.99-0.01,2.98-0.02C92.29,87.63,92.63,87.63,92.97,87.62z M93.5,117.28
				c-12.91-8.54-25.99-8.15-34.93,4.58c-5.93,8.45-9.38,17.37-4.91,28.2c7.52,18.2,21.44,30.2,37.27,40.53
				c1.26,0.82,3.99,0.55,5.42-0.28c4.13-2.37,8.1-5.08,11.85-8.03c10.1-7.94,18.67-17.23,24.28-28.95
				c7.49-15.64-0.53-36.02-16.17-40.81C107.91,109.94,100.4,112.6,93.5,117.28z M74.06,46.39c-1.68,8.19,9.03,18.87,17.74,18.59
				c9.12-0.29,17.94-8.77,18.07-18.02c0.15-10.55-7.38-18.26-17.18-19C82.69,27.21,72.74,37.06,74.06,46.39z"/>
			<path class="st1" d="M37.05,211.33c13.9,2.67,27.81,5.32,41.7,8.01c1.44,0.28,2.84,0.74,4.26,1.12
				c-1.75,4.58-4.95,6.18-9.69,4.79c-1.03-0.3-2.35-0.68-3.23-0.31c-9.46,4-13.53,3.16-19.35-4.25
				C41.75,223.04,39.12,221.24,37.05,211.33z"/>
			<path class="st1" d="M108.03,220.28c15.19-1.99,30.37-3.97,45.56-5.96c-2.17,4.54-4.11,9.35-10.82,7.19
				c-0.67-0.22-1.89,0.44-2.53,1.05c-7.11,6.76-10.33,7.09-19.54,2.36c-1.49-0.76-3.67-0.1-5.27-0.73
				C112.86,223.17,110.49,221.61,108.03,220.28z"/>
			<path class="st1" d="M67.19,19.25c-2.68,3.3-5.36,6.61-8.05,9.91c-3.16-2.55-6.61-6.1-4.26-9.76
				C58.07,14.44,63.01,17.72,67.19,19.25z"/>
			<path class="st1" d="M122.73,29.06c-1.97-3.25-3.94-6.5-5.9-9.75c1.52-0.99,2.92-2.3,4.58-2.87c1.5-0.51,4.05-0.9,4.75-0.11
				c1.08,1.21,1.76,3.77,1.21,5.24C126.36,24.26,124.34,26.58,122.73,29.06z"/>
			<path class="st2" d="M93.5,117.28c6.9-4.68,14.41-7.34,22.81-4.77c15.64,4.79,23.66,25.17,16.17,40.81
				c-5.61,11.72-14.18,21.02-24.28,28.95c-3.75,2.94-7.72,5.66-11.85,8.03c-1.44,0.83-4.17,1.1-5.42,0.28
				c-15.82-10.33-29.74-22.33-37.27-40.53c-4.47-10.82-1.02-19.75,4.91-28.2C67.5,109.13,80.59,108.74,93.5,117.28z"/>
			<path class="st3" d="M74.06,46.39c-1.32-9.33,8.63-19.18,18.63-18.43c9.8,0.74,17.33,8.45,17.18,19
				c-0.13,9.25-8.95,17.73-18.07,18.02C83.09,65.26,72.38,54.58,74.06,46.39z M93.96,33.87c-0.99,0-1.98,0.01-2.97,0.01
				c-0.38,0.37-0.76,0.73-1.13,1.1c-2.82,1.39-6.73,2.07-8.22,4.33c-2.65,4.03-2.58,10.34,1,13.91c5.91,5.91,9.13,6.76,15.18,3.84
				c3.99-1.92,6.56-8.74,6.11-12.35c-0.68-5.45-3.62-8.67-8.82-9.73C94.71,34.61,94.33,34.24,93.96,33.87z"/>
			<path class="st3" d="M111.75,80.83c1.71,2.92,1.99,5.31-1.78,7.01c-3.68,1.67-4.94-0.52-6.11-3.23c0.09-0.21,0.15-0.43,0.17-0.66
				c0.28-0.07,0.55-0.15,0.82-0.25c0.39-0.25,0.78-0.5,1.17-0.75c0.29-0.05,0.58-0.13,0.85-0.25c0.38-0.26,0.76-0.51,1.14-0.77
				c0.3-0.02,0.59-0.09,0.87-0.22l0.45,0.15l0.46-0.12c0.39-0.25,0.78-0.5,1.18-0.74C111.23,80.89,111.49,80.84,111.75,80.83z"/>
			<path class="st4" d="M87.91,87.99c-2.51-0.06-5.03-0.12-7.54-0.18c0.56-0.07,1.12-0.15,1.68-0.22c1.33,0.02,2.66,0.05,4,0.07
				C86.66,87.77,87.28,87.88,87.91,87.99z"/>
			<path class="st5" d="M111.75,80.83c-0.27,0.01-0.52,0.06-0.78,0.15c-0.33-0.02-0.66-0.05-0.99-0.07
				c-0.35-0.01-0.7-0.01-1.06-0.02l-0.09-0.09c1.32-0.99,2.64-1.98,3.96-2.97c0.35,0,0.69,0,1.04,0c0,0,0.1,0.1,0.1,0.1
				C113.21,78.9,112.48,79.86,111.75,80.83z"/>
			<path class="st5" d="M113.89,77.05c0.86-0.64,1.72-1.29,2.59-1.93c0.19,0.26,0.37,0.52,0.56,0.78c-1.03,0.68-2.06,1.36-3.1,2.04
				c0,0-0.1-0.1-0.1-0.1C113.87,77.57,113.89,77.31,113.89,77.05z"/>
			<path class="st5" d="M92.98,86.02c0.64-0.09,1.28-0.17,1.92-0.26c0.35,0.02,0.7,0.04,1.05,0.07l0.49,0.01l0.49-0.01l0.05,0.05
				c-0.01,0.25,0,0.5,0.02,0.75c-1.03,0.12-2.06,0.24-3.09,0.36c-0.3-0.1-0.6-0.17-0.91-0.19C92.98,86.54,92.97,86.28,92.98,86.02z"
				/>
			<path class="st6" d="M86.04,87.66c-1.33-0.02-2.66-0.05-4-0.07c0,0-0.09-0.46-0.09-0.46c1.35-0.03,2.69-0.07,4.04-0.1
				C86.02,87.24,86.03,87.45,86.04,87.66z"/>
			<path class="st5" d="M86.04,87.66c-0.01-0.21-0.02-0.42-0.04-0.63c0.99-0.01,1.98-0.01,2.97-0.02c0.01,0.22,0.01,0.43,0,0.65
				c-0.35,0.11-0.71,0.21-1.06,0.32C87.28,87.88,86.66,87.77,86.04,87.66z"/>
			<path class="st7" d="M88.97,87.66c0.01-0.22,0.01-0.43,0-0.65c0.37-0.11,0.74-0.23,1.1-0.34c0,0,0.44,0.11,0.44,0.11l0.45-0.01
				c0.33,0.02,0.66,0.04,1,0.06c0,0,0.02,0.02,0.02,0.02c-0.01,0.26-0.02,0.53-0.03,0.79C90.96,87.65,89.97,87.66,88.97,87.66z"/>
			<path class="st5" d="M104.86,83.7c-0.27,0.1-0.54,0.19-0.82,0.25c-0.34,0-0.69,0.01-1.03,0.01c-0.36-0.04-0.72-0.07-1.08-0.11
				l0,0c0.01-0.26,0.02-0.52,0.02-0.78c0.63-0.09,1.25-0.17,1.88-0.26c0.36,0.01,0.72,0.02,1.08,0.04l0.01,0.01
				C104.93,83.14,104.91,83.42,104.86,83.7z"/>
			<path class="st5" d="M108.89,81.7c-0.28,0.13-0.56,0.2-0.87,0.22c-0.37-0.02-0.74-0.04-1.11-0.06l0,0c0-0.28,0-0.55,0.01-0.83
				c0.64-0.08,1.28-0.15,1.92-0.23c0,0,0.09,0.09,0.09,0.09C108.9,81.16,108.89,81.43,108.89,81.7z"/>
			<path class="st5" d="M96.96,85.03c0.3-0.13,0.61-0.22,0.93-0.25c0.35,0.02,0.69,0.05,1.04,0.07c0.01,0.28,0.01,0.55,0,0.83
				c-0.34,0.11-0.68,0.22-1.01,0.33c-0.3-0.1-0.61-0.14-0.93-0.13c0,0-0.05-0.05-0.05-0.05C96.95,85.56,96.96,85.3,96.96,85.03z"/>
			<path class="st8" d="M81.96,87.13c0,0,0.09,0.47,0.09,0.46c-0.56,0.07-1.12,0.14-1.68,0.22C80.89,87.58,81.43,87.35,81.96,87.13z
				"/>
			<path class="st5" d="M99.95,84.03c0.3-0.13,0.61-0.21,0.94-0.25c0.35,0.02,0.7,0.05,1.04,0.07c0,0,0,0,0,0c0,0.27,0,0.55,0,0.82
				c-0.34,0.11-0.68,0.23-1.02,0.34c-0.3-0.1-0.6-0.11-0.91-0.06C99.96,84.65,99.95,84.34,99.95,84.03z"/>
			<path class="st7" d="M99.95,84.03c0,0.31,0.01,0.62,0.04,0.92c-0.01,0.23,0,0.46,0.03,0.69c-0.36,0.01-0.72,0.02-1.09,0.03
				c0.01-0.28,0.01-0.55,0-0.83c0.01-0.26,0.02-0.52,0.02-0.78C99.28,84.05,99.62,84.04,99.95,84.03z"/>
			<path class="st5" d="M106.88,82.69c-0.27,0.11-0.56,0.2-0.85,0.25c-0.37-0.03-0.74-0.05-1.11-0.08c0,0-0.01-0.01-0.01-0.01
				c0.01-0.27,0.01-0.54,0.02-0.81c0.28-0.13,0.57-0.21,0.88-0.22c0.37,0.02,0.73,0.03,1.1,0.05c0,0,0,0,0,0
				C106.92,82.14,106.91,82.42,106.88,82.69z"/>
			<path class="st7" d="M113.89,77.05c0,0.26-0.02,0.52-0.05,0.78c-0.35,0-0.69,0-1.04,0C113.16,77.57,113.52,77.31,113.89,77.05z"
				/>
			<path class="st7" d="M106.91,81.86c-0.37-0.02-0.73-0.03-1.1-0.05c0.37-0.26,0.74-0.52,1.11-0.78
				C106.91,81.31,106.91,81.58,106.91,81.86z"/>
			<path class="st4" d="M103.01,83.96c0.34,0,0.69-0.01,1.03-0.01c-0.02,0.23-0.08,0.45-0.17,0.66c0,0-0.45,0.09-0.45,0.09
				s-0.46-0.06-0.46-0.06C102.95,84.41,102.97,84.18,103.01,83.96z"/>
			<path class="st9" d="M95.95,85.83c-0.35-0.02-0.7-0.04-1.05-0.07c0.36-0.24,0.71-0.48,1.07-0.72
				C95.96,85.31,95.95,85.57,95.95,85.83z"/>
			<path class="st7" d="M95.95,85.83c0-0.26,0.01-0.52,0.02-0.78c0.33-0.01,0.66-0.01,0.99-0.02c0,0.27-0.01,0.53-0.02,0.8
				c0,0-0.49,0.01-0.49,0.01L95.95,85.83z"/>
			<path class="st8" d="M100.02,85.65c-0.03-0.23-0.04-0.46-0.03-0.69c0.31-0.06,0.61-0.04,0.91,0.06
				C100.6,85.22,100.31,85.43,100.02,85.65z"/>
			<path class="st9" d="M98.95,84.06c0,0.26-0.01,0.52-0.02,0.78c-0.35-0.02-0.69-0.04-1.04-0.07C98.25,84.54,98.6,84.3,98.95,84.06
				z"/>
			<path class="st4" d="M90.96,86.76l-0.45,0.01c0,0-0.44-0.11-0.44-0.11c0.31-0.18,0.61-0.36,0.92-0.54
				C91,86.34,90.99,86.55,90.96,86.76z"/>
			<path class="st9" d="M90.96,86.76c0.03-0.21,0.04-0.42,0.03-0.63c0.33-0.02,0.66-0.05,1-0.07c-0.01,0.26-0.02,0.51-0.03,0.77
				C91.63,86.8,91.29,86.78,90.96,86.76z"/>
			<path class="st7" d="M91.96,86.83c0.01-0.26,0.02-0.51,0.03-0.77c0.33-0.01,0.66-0.02,0.99-0.04c0,0.26,0,0.52,0.03,0.77
				l-0.02,0.09c-0.33-0.01-0.67-0.03-1-0.04L91.96,86.83z"/>
			<path class="st8" d="M96.98,85.88c0.32-0.01,0.63,0.03,0.93,0.13c-0.31,0.21-0.61,0.42-0.91,0.63
				C96.98,86.38,96.97,86.13,96.98,85.88z"/>
			<path class="st9" d="M101.93,83.85c-0.35-0.02-0.7-0.05-1.04-0.07c0.35-0.24,0.71-0.48,1.06-0.71
				C101.95,83.33,101.94,83.59,101.93,83.85z"/>
			<path class="st6" d="M103.01,83.96c-0.04,0.23-0.06,0.45-0.05,0.68c-0.34,0.01-0.69,0.02-1.03,0.03c0-0.27,0-0.55,0-0.82
				C102.29,83.89,102.65,83.92,103.01,83.96z"/>
			<path class="st8" d="M93,86.8c0.31,0.03,0.62,0.09,0.91,0.19c-0.32,0.21-0.63,0.42-0.95,0.63c0-0.24,0.01-0.48,0.01-0.73L93,86.8
				z"/>
			<path class="st7" d="M104.93,82.03c-0.01,0.27-0.01,0.54-0.02,0.81c-0.36-0.01-0.72-0.02-1.08-0.04
				C104.19,82.55,104.56,82.29,104.93,82.03z"/>
			<path class="st6" d="M92.98,86.89c0,0.24-0.01,0.49-0.01,0.73c-0.34,0.01-0.68,0.02-1.01,0.03c0.01-0.26,0.01-0.53,0.03-0.79
				C92.31,86.86,92.65,86.88,92.98,86.89z"/>
			<path class="st5" d="M95.09,34.98c5.21,1.06,8.14,4.28,8.82,9.73c0.45,3.62-2.12,10.43-6.11,12.35
				c-6.05,2.92-9.27,2.07-15.18-3.84c-3.57-3.58-3.65-9.88-1-13.91c1.49-2.27,5.4-2.94,8.22-4.33c0.37,0.02,0.73,0.04,1.1,0.06
				c1.01,0,2.02,0,3.03,0C94.35,35.01,94.72,35,95.09,34.98z"/>
			<path class="st10" d="M90.99,33.88c0.99,0,1.98-0.01,2.97-0.01c0,0,0.04,0.42,0.04,0.42c-1.02,0-2.04,0-3.07,0l-0.12-0.23
				L90.99,33.88z"/>
			<path class="st6" d="M90.95,35.04c-0.37-0.02-0.73-0.04-1.1-0.06c0.38-0.37,0.76-0.73,1.13-1.1c0,0-0.17,0.19-0.17,0.19
				s0.12,0.23,0.12,0.23C90.97,34.54,90.97,34.79,90.95,35.04z"/>
			<path class="st9" d="M95.09,34.98c-0.37,0.02-0.73,0.04-1.1,0.06c-0.02-0.25-0.02-0.49,0.01-0.74c0,0-0.04-0.42-0.04-0.42
				C94.33,34.24,94.71,34.61,95.09,34.98z"/>
			<path class="st7" d="M108.89,81.7c0-0.27,0.01-0.54,0.04-0.81c0.35,0.01,0.71,0.01,1.06,0.02c-0.06,0.27-0.12,0.54-0.18,0.82
				l-0.46,0.12L108.89,81.7z"/>
			<path class="st8" d="M104.92,82.86c0.37,0.03,0.74,0.05,1.11,0.08c-0.39,0.25-0.78,0.5-1.17,0.76
				C104.91,83.42,104.93,83.14,104.92,82.86z"/>
			<path class="st6" d="M106.88,82.69c0.02-0.28,0.03-0.56,0.03-0.83c0.37,0.02,0.74,0.04,1.11,0.06
				C107.64,82.18,107.26,82.44,106.88,82.69z"/>
			<path class="st11" d="M109.8,81.73c0.06-0.27,0.13-0.54,0.18-0.82c0.33,0.02,0.66,0.05,0.99,0.07
				C110.59,81.23,110.19,81.48,109.8,81.73z"/>
			<path class="st7" d="M94,34.29c-0.03,0.25-0.03,0.49-0.01,0.74c-1.01,0-2.02,0-3.03,0c0.02-0.25,0.01-0.5-0.03-0.74
				C91.95,34.29,92.97,34.29,94,34.29z"/>
		</g>
		<circle class="st3" cx="91.93" cy="46.03" r="19.06"/>
		<circle class="st5" cx="91.93" cy="46.03" r="12.6"/>
		<g>
			<path class="st5" d="M81.47,87.65c9.41-1.24,18.8-3.2,27.37-7.34c2.86-1.34,5.5-3.05,8.2-4.84
				C108.43,85.31,94.15,89.05,81.47,87.65L81.47,87.65z"/>
		</g>
		<ellipse class="st0" cx="91.93" cy="148.72" rx="49.87" ry="46.98"/>
	</g>
	<g>
		<polygon class="st2" points="93.93,106.53 107.97,133.96 139.35,138.36 116.64,159.71 122,189.86 93.93,175.63 65.86,189.86 
			71.22,159.71 48.51,138.36 79.9,133.96 		"/>
		<g>
			<path class="st2" d="M92.5,107.37c2.49,4.86,4.98,9.73,7.47,14.59c1.64,3.21,3.29,6.43,4.93,9.64c0.55,1.08,1.13,3.09,2.23,3.79
				c1.13,0.72,3.32,0.58,4.59,0.75c3.51,0.49,7.02,0.98,10.52,1.47c5.56,0.78,11.11,1.56,16.67,2.34c-0.24-0.93-0.49-1.85-0.73-2.78
				c-3.91,3.67-7.81,7.34-11.72,11.02c-2.61,2.46-5.23,4.92-7.84,7.37c-0.97,0.91-3,2.18-3.49,3.5c-0.45,1.21,0.3,3.23,0.51,4.42
				c0.61,3.42,1.22,6.85,1.83,10.27c0.98,5.52,1.96,11.03,2.94,16.55c0.81-0.63,1.63-1.25,2.44-1.88
				c-4.97-2.52-9.94-5.04-14.91-7.56c-3.24-1.64-6.47-3.28-9.71-4.92c-1.13-0.57-2.93-1.98-4.29-1.98c-1.27,0-2.93,1.29-3.99,1.82
				c-3.34,1.69-6.67,3.38-10.01,5.08c-4.97,2.52-9.94,5.04-14.91,7.56c0.81,0.63,1.63,1.25,2.44,1.88
				c0.95-5.35,1.9-10.71,2.86-16.06c0.62-3.48,1.24-6.96,1.86-10.44c0.23-1.27,1.04-3.45,0.57-4.74c-0.46-1.23-2.34-2.41-3.24-3.26
				c-2.58-2.42-5.16-4.85-7.73-7.27c-4.03-3.79-8.05-7.57-12.08-11.36c-0.24,0.93-0.49,1.85-0.73,2.78
				c5.39-0.76,10.79-1.51,16.18-2.27c3.67-0.51,7.34-1.03,11.01-1.54c1.21-0.17,3.51-0.03,4.59-0.75c1.11-0.75,1.66-2.67,2.23-3.79
				c1.57-3.07,3.14-6.14,4.71-9.21c2.56-5.01,5.13-10.02,7.69-15.03c0.97-1.9-1.9-3.59-2.87-1.68c-2.34,4.57-4.68,9.14-7.02,13.72
				c-1.58,3.09-3.16,6.18-4.74,9.26c-0.52,1.03-1.28,2.13-1.65,3.22c-0.49,1.46-1.17,0.83,0.33,0.47
				c-10.1,2.45-21.04,2.95-31.34,4.39c-1.26,0.18-1.57,2-0.73,2.78c3.66,3.45,7.33,6.89,10.99,10.34c2.58,2.43,5.17,4.86,7.75,7.29
				c0.96,0.9,2.65,3.29,3.94,3.7c-1.23-0.4,0.23-2.36-0.61-0.39c-0.38,0.89-0.39,2.2-0.56,3.15c-0.64,3.58-1.27,7.15-1.91,10.73
				c-0.89,5.03-1.79,10.05-2.68,15.08c-0.26,1.44,1.09,2.57,2.44,1.88c4.68-2.37,9.36-4.75,14.04-7.12c3.1-1.57,6.21-3.15,9.31-4.72
				c1.06-0.54,2.33-1.01,3.31-1.68c0.57-0.39,2.18-0.7,0.57-0.7c-1.56,0-0.2,0.2,0.37,0.59c0.94,0.66,2.16,1.09,3.18,1.61
				c3.22,1.63,6.43,3.26,9.65,4.89c4.68,2.37,9.36,4.75,14.04,7.12c1.36,0.69,2.7-0.44,2.44-1.88c-0.89-5.03-1.79-10.05-2.68-15.08
				c-0.61-3.45-1.23-6.91-1.84-10.36c-0.19-1.06-0.25-2.29-0.59-3.31c-0.73-2.17,0.73-0.51-0.65,0.19c1.32-0.67,2.59-2.43,3.65-3.44
				c2.68-2.52,5.35-5.03,8.03-7.55c3.66-3.45,7.33-6.89,10.99-10.34c0.83-0.78,0.53-2.6-0.73-2.78c-5.07-0.71-10.13-1.42-15.2-2.13
				c-5.22-0.73-11.05-0.85-16.14-2.26c1.31,0.36,0.82,0.99,0.33-0.47c-0.33-0.99-1.01-1.98-1.48-2.9c-1.56-3.05-3.12-6.1-4.68-9.15
				c-2.41-4.72-4.83-9.44-7.24-14.15C94.39,103.78,91.52,105.46,92.5,107.37z"/>
		</g>
	</g>
</g>
</svg>
