<svg width="211" height="66" viewBox="0 0 211 66" fill="none" xmlns="http://www.w3.org/2000/svg">
<path d="M17.3455 49.6776C14.8309 53.9421 12.496 62.6488 6.56867 62.6488C3.15599 62.6488 0.102539 59.9835 0.102539 56.4298C0.102539 46.3016 1.00061 36.351 1.00061 26.2228C1.00061 19.8261 0.102539 13.2516 0.102539 6.85489C0.102539 -0.963363 12.8552 -1.31874 12.8552 6.49952C12.8552 12.3632 13.5736 18.4046 13.5736 24.446C13.5736 26.7559 13.5736 28.8882 13.5736 31.1981C16.4475 27.289 23.6321 16.0947 28.6613 16.0947C32.074 16.0947 35.1274 18.9377 35.1274 22.4914C35.1274 25.8675 27.2244 34.0411 24.8894 37.5949C26.8651 40.7932 33.3313 49.6776 35.6662 54.4752C37.8216 59.2727 33.1516 63.1819 29.9186 63.1819C25.069 63.3596 19.5009 53.2314 17.3455 49.6776Z" fill="#F47621"/>
<path d="M61.5314 31.7309C61.3518 33.5077 60.9926 35.2846 60.6334 37.0615C59.7353 43.4583 58.6576 49.855 57.9391 56.2518C57.5799 59.8055 54.7061 62.4708 50.9342 62.1155C47.5215 61.9378 44.8273 58.9171 45.1865 55.1856C45.5457 51.0988 48.2399 29.4209 49.6769 27.6441C53.6284 23.0242 62.0703 25.1564 61.5314 31.7309ZM57.5799 19.6481C49.6769 19.1151 50.2157 6.49923 58.478 7.03229C66.9199 7.74304 65.8422 20.3589 57.5799 19.6481Z" fill="#F47621"/>
<path d="M77.5241 59.4501C76.9853 55.8963 76.9853 52.1649 76.8057 48.7888C76.2668 40.4375 75.1892 32.0862 74.1115 23.7348C73.5726 19.648 70.6988 8.80908 73.5726 5.78839C75.728 3.12307 80.0388 2.23463 82.733 5.07764C85.966 8.63139 86.1456 16.6273 86.6845 20.5365C93.5099 16.6273 101.952 18.7596 106.622 23.3795C118.476 34.5738 116.501 61.76 97.8206 64.2476C94.5875 64.603 91.3545 64.2476 88.301 63.3592C82.3737 67.9791 78.4222 66.2022 77.5241 59.4501ZM89.0195 38.6606C88.8399 42.3921 89.5583 46.3012 89.738 50.2103C91.1749 50.9211 93.5099 51.9872 96.3837 51.6318C101.413 50.9211 101.233 42.0367 100.874 38.3052C99.6168 28.7101 89.7379 29.2432 89.0195 38.6606Z" fill="#F47621"/>
<path d="M135.713 64.2477C110.746 59.8056 120.805 14.3175 143.616 18.4043C171.097 23.3796 162.655 69.0453 135.713 64.2477ZM138.048 51.0989C147.747 52.6981 152.596 32.6194 141.999 32.264C134.276 31.9086 129.785 49.6774 138.048 51.0989Z" fill="#F47621"/>
<path d="M196.067 50.5659C198.761 50.0329 201.096 49.4998 203.072 50.5659C205.586 52.1651 206.305 55.5412 205.407 58.7396C203.611 65.314 191.756 65.314 186.547 63.8925C173.256 60.3387 165.353 47.0122 168.945 33.5079C172.537 20.5367 183.494 12.7185 196.965 16.4499C205.048 18.5821 212.951 26.5781 210.436 35.6402C207.203 47.7229 191.576 46.1237 181.338 43.2807C184.571 48.0783 190.858 51.632 196.067 50.5659ZM192.474 28.7103C189.421 28.1773 185.829 29.5988 183.853 32.6195C186.906 33.5079 189.601 34.041 192.115 34.2187C199.839 34.574 198.761 29.7765 192.474 28.7103Z" fill="#F47621"/>
</svg>
