<svg width="46" height="38" viewBox="0 0 46 38" fill="none" xmlns="http://www.w3.org/2000/svg">
<path d="M0.236132 4.22909L20.3485 24.3438C20.9435 24.9392 21.7383 25.2926 22.5789 25.3358C23.4195 25.3789 24.2463 25.1086 24.899 24.5772L25.1574 24.3438L45.2562 4.24269C45.3219 4.49197 45.365 4.74578 45.3876 5.0064L45.4058 5.40298V32.5972C45.4061 33.7407 44.9743 34.842 44.1968 35.6805C43.4193 36.5189 42.3536 37.0325 41.2133 37.1183L40.8734 37.1296H4.61441C3.47094 37.13 2.3696 36.6981 1.53115 35.9206C0.692702 35.1431 0.179122 34.0774 0.0933624 32.9371L0.0820312 32.5972V5.40298C0.0820312 5.13104 0.104693 4.86816 0.150017 4.60981L0.236132 4.22909ZM40.8734 0.870605C41.1476 0.870605 41.4173 0.893268 41.6779 0.940858L42.0631 1.02924L22.7552 20.3372L3.44052 1.02471C3.6898 0.95672 3.94815 0.911397 4.21102 0.888735L4.61441 0.870605H40.8734Z" fill="#5553CC"/>
</svg>
