<svg width="193" height="100" viewBox="0 0 193 100" fill="none" xmlns="http://www.w3.org/2000/svg">
<mask id="mask0_632_8" style="mask-type:alpha" maskUnits="userSpaceOnUse" x="0" y="0" width="193" height="100">
<rect width="192.121" height="100" fill="#D9D9D9"/>
</mask>
<g mask="url(#mask0_632_8)">
<path d="M37.7136 223.879C35.2898 216.353 32.4312 208.936 30.54 201.29C27.9423 190.81 26.0077 180.168 23.9752 169.557C23.6273 167.765 23.1275 164.14 23.2796 162.25C23.2141 156.245 21.8788 148.502 23.0345 139.731C25.6101 120.185 25.244 112.817 32.0182 95.2632C39.0613 87.8892 41.1264 78.6038 44.4958 69.655C49.9955 55.0265 55.9626 40.5825 61.7231 26.0517C64.636 22.4679 67.5489 18.8732 70.4727 15.2893C78.3962 7.50263 87.2218 2.50698 99.0255 3.07171C109.536 3.57127 116.796 9.54433 124.415 15.3654C126.557 18.8949 128.698 22.4244 130.828 25.954C135.915 39.225 140.697 52.6264 146.219 65.7237C149.218 72.8371 153.392 79.4509 157.174 86.2167C158.772 89.0729 159.916 93.9504 159.94 96.2021C162.546 105.683 151.129 108.111 157.346 101.986C161.542 97.8587 155.147 108.43 159.277 104.217C164.277 99.1232 152.884 97.6527 156.318 101.997C161.024 107.948 91.5066 139.886 153.583 109.891C145.507 116.548 116.522 133.58 150.347 111.456C144.706 116.31 159.407 116.184 171.445 109.696C166.489 115.278 169.935 121.957 170.185 128.234C170.674 140.691 170.848 153.148 171.098 165.615C171.174 169.394 171 173.174 171.022 176.964C171.109 192.559 169.315 207.904 165.033 222.935C164.641 224.292 164.576 225.747 164.37 227.148C147.86 229.31 131.361 231.46 114.851 233.621C112.123 230.776 109.492 227.833 106.655 225.096C101.178 219.818 94.9279 221.555 90.9607 229.223C90.102 230.873 88.776 232.285 87.6674 233.806C86.124 233.393 84.6024 232.893 83.0372 232.589C67.9402 229.657 52.8214 226.768 37.7136 223.879ZM98.4929 89.5291C98.8298 89.301 99.1776 89.0729 99.5146 88.8449C100.634 88.7145 101.754 88.5842 102.873 88.4539C103.199 88.2258 103.536 87.9978 103.862 87.7697C104.232 87.6503 104.601 87.5308 104.971 87.4113C105.362 87.4005 105.753 87.3896 106.156 87.3787C106.471 87.1507 106.797 86.9226 107.112 86.6837C107.482 86.5642 107.851 86.4339 108.221 86.3145C108.59 86.3036 108.971 86.2927 109.34 86.2819L109.84 86.347L110.329 86.2493C111.601 89.1924 112.97 91.5708 116.97 89.7571C121.068 87.9 120.763 85.3153 118.905 82.1442C119.698 81.0907 120.481 80.0482 121.274 78.9947C122.394 78.2563 123.513 77.5178 124.644 76.7793C124.437 76.4969 124.242 76.2146 124.035 75.9322C123.1 76.6272 122.166 77.3331 121.22 78.0282C120.829 78.3106 120.427 78.5929 120.035 78.8753C118.601 79.9504 117.166 81.0256 115.742 82.1007C115.046 82.1876 114.351 82.2636 113.655 82.3505C113.253 82.6329 112.851 82.9152 112.449 83.1976C112.112 83.2193 111.797 83.2954 111.492 83.4365C111.09 83.7189 110.699 84.0013 110.297 84.2836C109.612 84.3814 108.938 84.4682 108.253 84.566C107.873 84.8266 107.482 85.0873 107.101 85.3371C106.753 85.3805 106.406 85.4674 106.079 85.6086C105.721 85.6194 105.351 85.6303 104.993 85.6411C104.612 85.9018 104.232 86.1624 103.84 86.4122C103.493 86.4556 103.145 86.5425 102.83 86.6837C102.471 86.6946 102.112 86.6946 101.754 86.7054C101.362 86.9661 100.982 87.2267 100.591 87.4765C99.895 87.5742 99.1994 87.6611 98.5038 87.7589C98.1451 87.7697 97.7864 87.7806 97.4277 87.8023C97.0691 87.824 96.7104 87.8566 96.3408 87.8783C96.0148 88.0738 95.6778 88.2693 95.3518 88.4648C94.9496 88.5951 94.5475 88.7145 94.1562 88.8449C93.0801 88.8557 92.0041 88.8557 90.9281 88.8666C89.4608 88.8992 88.0043 88.9426 86.537 88.9752C85.961 89.225 85.3849 89.4639 84.8089 89.7137C87.537 89.7788 90.2759 89.844 93.0149 89.8983C93.3953 89.7788 93.7866 89.6702 94.167 89.5508C95.2431 89.5399 96.33 89.5399 97.406 89.5291C97.7538 89.5399 98.1233 89.5399 98.4929 89.5291ZM99.0689 121.74C85.0371 112.466 70.8205 112.889 61.1036 126.714C54.6583 135.891 50.9085 145.578 55.7669 157.34C63.9404 177.105 79.07 190.137 96.2756 201.356C97.6451 202.246 100.612 201.953 102.167 201.052C106.655 198.478 110.97 195.535 115.046 192.331C126.024 183.708 135.339 173.619 141.436 160.891C149.577 143.906 140.86 121.773 123.861 116.571C114.731 113.769 106.569 116.658 99.0689 121.74ZM77.9397 44.7528C76.1137 53.6472 87.7543 65.2458 97.2212 64.9418C107.134 64.6268 116.72 55.4174 116.861 45.3718C117.025 33.9144 108.84 25.5413 98.1886 24.7376C87.3196 23.9231 76.505 34.6203 77.9397 44.7528Z" fill="#55C9BE"/>
<path d="M70.4712 15.2788C67.5584 18.8627 64.6455 22.4574 61.7217 26.0412C58.2871 23.2719 54.5373 19.4165 57.0915 15.4417C60.5587 10.0551 65.928 13.6172 70.4712 15.2788Z" fill="#BDBADD"/>
<path d="M130.838 25.9319C128.697 22.4024 126.556 18.8729 124.426 15.3433C126.078 14.2682 127.6 12.8455 129.404 12.2265C131.034 11.6726 133.806 11.2491 134.567 12.107C135.74 13.4211 136.479 16.2013 135.882 17.7977C134.784 20.7191 132.588 23.2386 130.838 25.9319Z" fill="#BDBADD"/>
<path d="M77.9409 44.7528C76.5062 34.6203 87.3208 23.9231 98.1898 24.7376C108.841 25.5413 117.026 33.9144 116.863 45.3718C116.721 55.4174 107.135 64.6268 97.2225 64.9418C87.7556 65.2458 76.1149 53.6472 77.9409 44.7528ZM99.5702 31.1559C98.4941 31.1559 97.4181 31.1668 96.3421 31.1668C95.929 31.5686 95.516 31.9596 95.1139 32.3614C92.0488 33.871 87.799 34.6095 86.1796 37.0639C83.2993 41.4405 83.3754 48.2932 87.2665 52.1703C93.69 58.5886 97.1898 59.5117 103.766 56.3406C108.102 54.2554 110.896 46.8488 110.407 42.9283C109.667 37.0095 106.472 33.5126 100.82 32.3614C100.385 31.9596 99.9723 31.5578 99.5702 31.1559Z" fill="#F8F7F3"/>
<path d="M118.907 82.1548C120.765 85.3259 121.07 87.9215 116.972 89.7677C112.972 91.5814 111.603 89.203 110.331 86.2599C110.429 86.0318 110.494 85.7929 110.516 85.5431C110.82 85.4671 111.114 85.3802 111.407 85.2716C111.831 85.0001 112.255 84.7286 112.679 84.4571C112.994 84.4028 113.309 84.3159 113.603 84.1856C114.016 83.9033 114.429 83.6318 114.842 83.3494C115.168 83.3277 115.483 83.2517 115.787 83.1105L116.276 83.2734L116.776 83.1431C117.2 82.8715 117.624 82.6 118.059 82.3394C118.341 82.2199 118.624 82.1656 118.907 82.1548Z" fill="#F8F7F3"/>
<path d="M92.995 89.9305C90.2669 89.8653 87.5279 89.8002 84.7998 89.735C85.4085 89.659 86.0171 89.5721 86.6258 89.4961C88.0714 89.5178 89.5169 89.5504 90.9734 89.5721C91.6364 89.6916 92.3103 89.811 92.995 89.9305Z" fill="#67696F"/>
<path d="M118.902 82.155C118.609 82.1659 118.337 82.2202 118.054 82.3179C117.696 82.2962 117.337 82.2636 116.978 82.2419C116.598 82.231 116.218 82.231 115.826 82.2202L115.729 82.1224C117.163 81.0473 118.598 79.9721 120.033 78.897C120.413 78.897 120.783 78.897 121.163 78.897L121.272 79.0056C120.489 80.059 119.696 81.1016 118.902 82.155Z" fill="#090A11"/>
<path d="M121.232 78.0506C122.167 77.3555 123.102 76.6496 124.047 75.9546C124.254 76.237 124.449 76.5193 124.656 76.8017C123.536 77.5402 122.417 78.2787 121.286 79.0171L121.178 78.9085C121.21 78.6153 121.232 78.333 121.232 78.0506Z" fill="#090A11"/>
<path d="M98.5023 87.7911C99.1979 87.6934 99.8935 87.6065 100.589 87.5088C100.97 87.5305 101.35 87.5522 101.73 87.5848L102.263 87.5957L102.796 87.5848L102.85 87.6391C102.839 87.9106 102.85 88.1821 102.872 88.4536C101.752 88.5839 100.633 88.7143 99.5131 88.8446C99.1871 88.736 98.861 88.66 98.524 88.6382C98.5023 88.3559 98.4914 88.0735 98.5023 87.7911Z" fill="#090A11"/>
<path d="M90.9601 89.5719C89.5145 89.5502 88.0689 89.5176 86.6125 89.4959L86.5146 88.9963C87.982 88.9637 89.4384 88.9203 90.9057 88.8877C90.9383 89.1158 90.9492 89.3438 90.9601 89.5719Z" fill="#35363E"/>
<path d="M90.9614 89.5721C90.9506 89.3441 90.9397 89.116 90.918 88.8879C91.994 88.8771 93.07 88.8771 94.1461 88.8662C94.1569 89.1051 94.1569 89.3332 94.1461 89.5721C93.7656 89.6916 93.3744 89.8002 92.9939 89.9196C92.3092 89.811 91.6353 89.6916 90.9614 89.5721Z" fill="#090A11"/>
<path d="M94.1465 89.5722C94.1574 89.3333 94.1574 89.1052 94.1465 88.8663C94.5486 88.7469 94.9508 88.6165 95.3421 88.4971L95.8203 88.6165L96.3094 88.6057C96.6681 88.6274 97.0268 88.6491 97.3963 88.6708L97.4181 88.6926C97.4072 88.9749 97.3963 89.2681 97.3854 89.5505C96.3094 89.5614 95.2334 89.5722 94.1465 89.5722Z" fill="#414042"/>
<path d="M111.418 85.2722C111.125 85.3808 110.831 85.4786 110.527 85.5437C110.157 85.5437 109.777 85.5546 109.407 85.5546C109.016 85.5111 108.625 85.4786 108.233 85.4351C108.244 85.1528 108.255 84.8704 108.255 84.588C108.94 84.4903 109.614 84.4034 110.299 84.3057C110.69 84.3165 111.081 84.3274 111.472 84.3491L111.483 84.36C111.494 84.6641 111.472 84.9681 111.418 85.2722Z" fill="#090A11"/>
<path d="M115.797 83.1C115.492 83.2411 115.188 83.3172 114.851 83.3389C114.449 83.3172 114.047 83.2954 113.645 83.2737C113.645 82.9696 113.645 82.6764 113.655 82.3723C114.351 82.2855 115.047 82.2094 115.742 82.1226L115.84 82.2203C115.807 82.5135 115.797 82.8067 115.797 83.1Z" fill="#090A11"/>
<path d="M102.828 86.7158C103.154 86.5747 103.491 86.4769 103.839 86.4443C104.22 86.4661 104.589 86.4986 104.97 86.5204C104.98 86.8244 104.98 87.1177 104.97 87.4217C104.6 87.5412 104.23 87.6607 103.872 87.7801C103.546 87.6715 103.209 87.6281 102.861 87.6389L102.807 87.5847C102.818 87.2914 102.828 87.0091 102.828 86.7158Z" fill="#090A11"/>
<path d="M86.528 88.9966C86.528 88.9966 86.6258 89.507 86.6258 89.4961C86.0171 89.5722 85.4085 89.6482 84.7998 89.7351C85.365 89.4853 85.9519 89.2355 86.528 88.9966Z" fill="#6D6E71"/>
<path d="M106.079 85.6304C106.405 85.4892 106.742 85.4023 107.101 85.3589C107.481 85.3806 107.862 85.4132 108.231 85.4349C108.231 85.7281 108.231 86.0322 108.231 86.3254C107.862 86.4449 107.492 86.5752 107.123 86.6947C106.796 86.5861 106.47 86.5752 106.133 86.6295C106.09 86.3037 106.079 85.9671 106.079 85.6304Z" fill="#090A11"/>
<path d="M106.079 85.6299C106.079 85.9665 106.09 86.3032 106.123 86.629C106.112 86.8788 106.123 87.1286 106.155 87.3784C105.764 87.3892 105.373 87.4001 104.971 87.4109C104.982 87.1069 104.982 86.8136 104.971 86.5095C104.982 86.2272 104.992 85.9448 104.992 85.6625C105.351 85.6516 105.721 85.6407 106.079 85.6299Z" fill="#414042"/>
<path d="M113.613 84.1758C113.319 84.2953 113.004 84.393 112.689 84.4473C112.287 84.4147 111.885 84.393 111.483 84.3604L111.472 84.3495C111.483 84.0563 111.483 83.7631 111.493 83.4699C111.798 83.3287 112.113 83.2418 112.45 83.231C112.852 83.2527 113.243 83.2635 113.645 83.2853C113.656 83.5785 113.645 83.8826 113.613 84.1758Z" fill="#090A11"/>
<path d="M121.232 78.0498C121.232 78.3322 121.21 78.6145 121.177 78.8969C120.797 78.8969 120.427 78.8969 120.047 78.8969C120.438 78.6145 120.829 78.3322 121.232 78.0498Z" fill="#414042"/>
<path d="M113.643 83.2739C113.241 83.2522 112.849 83.2414 112.447 83.2196C112.849 82.9373 113.252 82.6549 113.654 82.3726C113.643 82.6766 113.643 82.9699 113.643 83.2739Z" fill="#414042"/>
<path d="M109.403 85.5548C109.772 85.5548 110.153 85.5439 110.522 85.5439C110.501 85.7937 110.435 86.0327 110.338 86.2607L109.848 86.3585L109.348 86.2933C109.338 86.0435 109.359 85.7937 109.403 85.5548Z" fill="#67696F"/>
<path d="M101.732 87.5855C101.352 87.5638 100.971 87.542 100.591 87.5095C100.982 87.2488 101.363 86.9882 101.754 86.7275C101.743 87.0208 101.732 87.3031 101.732 87.5855Z" fill="#58595B"/>
<path d="M101.732 87.5856C101.732 87.3032 101.743 87.0209 101.754 86.7385C102.113 86.7277 102.472 86.7277 102.83 86.7168C102.83 87.01 102.819 87.2924 102.808 87.5856L102.276 87.5965L101.732 87.5856Z" fill="#414042"/>
<path d="M106.153 87.389C106.12 87.1392 106.109 86.8895 106.12 86.6397C106.457 86.5745 106.783 86.5962 107.109 86.7048C106.783 86.922 106.468 87.1501 106.153 87.389Z" fill="#6D6E71"/>
<path d="M104.991 85.6631C104.991 85.9454 104.98 86.2278 104.969 86.5102C104.589 86.4885 104.219 86.4667 103.839 86.4342C104.23 86.1844 104.611 85.9237 104.991 85.6631Z" fill="#58595B"/>
<path d="M96.3072 88.5954L95.8181 88.6063L95.3398 88.4868C95.6768 88.2914 96.0028 88.0959 96.3398 87.9004C96.3507 88.1393 96.3398 88.3674 96.3072 88.5954Z" fill="#67696F"/>
<path d="M96.3057 88.5957C96.3383 88.3676 96.3491 88.1395 96.3383 87.9115C96.6969 87.8897 97.0556 87.8572 97.4252 87.8354C97.4143 88.1178 97.4034 88.3893 97.3926 88.6717C97.0339 88.6391 96.6643 88.6174 96.3057 88.5957Z" fill="#58595B"/>
<path d="M97.3945 88.6712C97.4054 88.3888 97.4163 88.1173 97.4271 87.8349C97.7858 87.8241 98.1445 87.8132 98.5032 87.7915C98.5032 88.0739 98.5032 88.3562 98.5358 88.6277L98.514 88.7255C98.1554 88.7146 97.7858 88.6929 97.4271 88.682L97.3945 88.6712Z" fill="#414042"/>
<path d="M102.854 87.6393C103.202 87.6285 103.539 87.6719 103.865 87.7805C103.528 88.0086 103.202 88.2366 102.876 88.4647C102.854 88.1823 102.843 87.9108 102.854 87.6393Z" fill="#6D6E71"/>
<path d="M108.232 85.4345C107.852 85.4128 107.471 85.3802 107.102 85.3585C107.482 85.0978 107.873 84.8372 108.254 84.5874C108.254 84.8698 108.243 85.1521 108.232 85.4345Z" fill="#58595B"/>
<path d="M109.407 85.554C109.364 85.8038 109.342 86.0427 109.353 86.2925C108.983 86.3034 108.603 86.3142 108.233 86.3251C108.233 86.0319 108.233 85.7278 108.233 85.4346C108.625 85.478 109.016 85.5106 109.407 85.554Z" fill="#35363E"/>
<path d="M98.5279 88.6392C98.8648 88.6717 99.2017 88.7369 99.5169 88.8455C99.1691 89.0736 98.8322 89.3016 98.4844 89.5297C98.4844 89.269 98.4952 89.0084 98.4952 88.7369L98.5279 88.6392Z" fill="#6D6E71"/>
<path d="M111.493 83.458C111.483 83.7512 111.483 84.0445 111.472 84.3377C111.08 84.3268 110.689 84.316 110.298 84.2942C110.689 84.0227 111.091 83.7404 111.493 83.458Z" fill="#414042"/>
<path d="M98.5032 88.7367C98.5032 88.9973 98.4923 89.2688 98.4923 89.5295C98.1228 89.5403 97.7532 89.5512 97.3945 89.5621C97.4054 89.2797 97.4054 88.9865 97.4271 88.7041C97.7749 88.7041 98.1445 88.7258 98.5032 88.7367Z" fill="#35363E"/>
<path d="M100.798 32.3618C106.461 33.513 109.645 37.0099 110.384 42.9287C110.873 46.8601 108.08 54.2558 103.743 56.3409C97.1677 59.5121 93.6679 58.589 87.2443 52.1707C83.3641 48.2827 83.2771 41.4409 86.1574 37.0642C87.7769 34.599 92.0266 33.8714 95.0917 32.3618C95.4939 32.3835 95.8851 32.4053 96.2873 32.427C97.3851 32.427 98.4828 32.427 99.5806 32.427C99.9936 32.3944 100.396 32.3835 100.798 32.3618Z" fill="#090A11"/>
<path d="M96.3402 31.1666C97.4162 31.1666 98.4922 31.1558 99.5683 31.1558L99.6117 31.6119C98.5031 31.6119 97.3945 31.6119 96.275 31.6119L96.1445 31.3621L96.3402 31.1666Z" fill="#BCBEC0"/>
<path d="M96.2991 32.4263C95.8969 32.4046 95.5057 32.3828 95.1035 32.3611C95.5165 31.9593 95.9296 31.5683 96.3317 31.1665L96.1469 31.3728L96.2774 31.6226C96.3208 31.8833 96.3208 32.1548 96.2991 32.4263Z" fill="#35363E"/>
<path d="M100.797 32.3611C100.394 32.3828 100.003 32.4046 99.601 32.4263C99.5792 32.1548 99.5792 31.8941 99.6118 31.6226L99.5684 31.1665C99.9705 31.5575 100.384 31.9593 100.797 32.3611Z" fill="#58595B"/>
<path d="M115.795 83.0994C115.795 82.8062 115.806 82.5129 115.838 82.2197C116.219 82.2306 116.61 82.2306 116.991 82.2415C116.925 82.5347 116.86 82.8279 116.795 83.132L116.295 83.2623L115.795 83.0994Z" fill="#414042"/>
<path d="M111.48 84.3599C111.882 84.3924 112.285 84.4142 112.687 84.4467C112.263 84.7182 111.839 84.9897 111.415 85.2721C111.469 84.968 111.491 84.6639 111.48 84.3599Z" fill="#6D6E71"/>
<path d="M113.612 84.1748C113.634 83.8707 113.645 83.5667 113.645 83.2734C114.047 83.2952 114.449 83.3169 114.851 83.3386C114.438 83.621 114.025 83.9033 113.612 84.1748Z" fill="#35363E"/>
<path d="M116.784 83.1327C116.849 82.8395 116.925 82.5463 116.98 82.2422C117.338 82.2639 117.697 82.2965 118.056 82.3182C117.643 82.5897 117.208 82.8612 116.784 83.1327Z" fill="#939598"/>
<path d="M99.6141 31.6128C99.5815 31.8843 99.5815 32.1449 99.6032 32.4164C98.5055 32.4164 97.4077 32.4164 96.3099 32.4164C96.3317 32.1449 96.3208 31.8734 96.2773 31.6128C97.386 31.6128 98.4946 31.6128 99.6141 31.6128Z" fill="#414042"/>
<path d="M97.3628 65.0613C108.804 65.0613 118.079 55.7939 118.079 44.362C118.079 32.93 108.804 23.6626 97.3628 23.6626C85.9215 23.6626 76.6465 32.93 76.6465 44.362C76.6465 55.7939 85.9215 65.0613 97.3628 65.0613Z" fill="#F8F7F3"/>
<path d="M93.0885 64.9412C100.652 64.9412 106.783 58.8148 106.783 51.2575C106.783 43.7001 100.652 37.5737 93.0885 37.5737C85.525 37.5737 79.3936 43.7001 79.3936 51.2575C79.3936 58.8148 85.525 64.9412 93.0885 64.9412Z" fill="#090A11"/>
<path d="M85.9893 89.5626C96.217 88.2159 106.423 86.0873 115.738 81.5913C118.846 80.136 121.716 78.2789 124.65 76.335C115.292 87.0213 99.7711 91.083 85.9893 89.5626Z" fill="#090A11"/>
<ellipse cx="20.0997" cy="99.7701" rx="15.7639" ry="8.50751" transform="rotate(-0.62345 20.0997 99.7701)" fill="#55C9BE"/>
<ellipse cx="170.204" cy="97.7495" rx="15.7639" ry="8.50751" transform="rotate(-0.62345 170.204 97.7495)" fill="#55C9BE"/>
</g>
</svg>
